<svg width="601" height="395" viewBox="0 0 601 395" fill="none" xmlns="http://www.w3.org/2000/svg">
<path d="M33.5062 394.016C33.5062 394.016 -19.786 326.485 34.2647 242.57C84.3711 164.723 161.958 202.065 210.851 130.633C334.773 -50.3744 599.283 88.7835 559.601 242.613C540.4 317.058 618.052 319.767 578.478 394.168L33.5062 394.016Z" fill="#F4F4F4"/>
<path d="M599.716 394.753H0.671841C0.303412 394.753 0 394.45 0 394.081V393.843C0 393.474 0.303412 393.171 0.671841 393.171H599.694C600.063 393.171 600.366 393.474 600.366 393.843V394.081C600.388 394.45 600.084 394.753 599.716 394.753Z" fill="#2E3552"/>
<path d="M404.07 340.599C403.965 342.694 404.384 349.814 403.546 351.699C402.08 355.259 399.881 358.505 398.52 362.065C397.159 365.625 396.74 369.394 397.054 373.164C397.159 374.421 397.473 375.782 398.52 376.41C399.986 377.248 401.766 376.305 403.232 375.363C406.373 373.269 409.619 370.86 410.876 367.3C411.923 364.264 411.19 360.808 411.19 357.562C411.19 354.212 411.19 355.259 411.923 349.919C412.027 348.976 413.389 346.149 413.703 345.207L414.75 341.542L404.07 340.599Z" fill="#F5AB7E"/>
<path d="M401.348 369.918C399.253 369.918 397.997 368.976 397.159 367.614C396.95 369.499 396.845 371.384 397.055 373.164C397.159 374.421 397.473 375.782 398.521 376.41C399.986 377.248 401.766 376.305 403.232 375.363C406.374 373.269 409.62 370.86 410.876 367.3C411.923 364.264 411.19 360.808 411.19 357.562C411.19 357.353 411.19 357.248 411.19 357.144C409.724 363.321 408.573 370.86 401.348 369.918Z" fill="#EF7856"/>
<path d="M410.98 352.327C411.817 352.118 412.655 351.803 413.074 351.07C413.283 350.652 413.283 350.128 413.283 349.605C413.283 347.196 413.807 344.893 414.749 342.694C410.351 344.16 405.43 344.16 401.032 342.694C401.242 345.102 401.451 347.51 401.66 349.919C401.66 350.233 401.765 350.652 401.87 350.966C402.184 351.803 403.126 352.118 403.964 352.327C406.372 352.746 408.676 352.851 410.98 352.327Z" fill="#2E3F4C"/>
<path d="M418.416 341.437C418.311 282.591 431.923 228.77 441.975 174.95C430.143 174.95 418.206 174.95 406.374 174.845C393.914 228.142 389.411 288.036 397.579 342.17C402.709 348.139 407.002 352.327 416.74 344.893C417.787 344.055 418.416 342.799 418.416 341.437Z" fill="#7C2E44"/>
<path d="M411.609 346.149C411.294 304.58 416.739 258.298 426.268 222.278L426.791 222.383C417.263 258.298 411.818 304.58 412.132 346.044L411.609 346.149Z" fill="#EF7856"/>
<path d="M403.024 347.615C400.72 343.531 399.673 338.715 399.987 334.108H400.511C400.197 338.715 401.244 343.322 403.547 347.301L403.024 347.615Z" fill="#EF7856"/>
<path d="M414.121 346.987L413.598 346.777C414.854 343.217 415.797 339.448 416.111 335.678L416.634 335.783C416.32 339.552 415.482 343.322 414.121 346.987Z" fill="#EF7856"/>
<path d="M482.813 252.853C487.002 254.319 491.818 254.11 495.902 252.225C497.787 251.283 499.986 250.026 501.87 250.759C503.65 251.387 504.488 253.482 504.698 255.366C504.907 257.251 504.593 259.241 505.116 261.021C505.535 262.696 506.582 264.057 507.315 265.628C509.724 270.968 508.048 277.251 506.163 282.8C504.383 282.172 503.127 280.601 502.185 279.031C501.347 277.355 500.823 275.575 500.195 273.795C498.834 270.026 496.844 266.361 493.598 264.057C490.352 261.754 485.85 260.916 482.395 263.01C482.499 259.764 482.709 256.309 482.813 252.853Z" fill="#F5AB7E"/>
<path d="M507.314 265.837C506.581 264.267 505.534 262.801 505.115 261.23C504.592 259.345 504.906 257.46 504.696 255.576C504.487 253.691 503.649 251.597 501.869 250.968C500.927 250.654 499.985 250.759 498.938 251.073C503.021 258.089 505.429 270.235 500.822 276.099C501.241 277.25 501.555 278.298 502.183 279.345C503.021 281.02 504.382 282.486 506.162 283.114C508.152 277.46 509.723 271.177 507.314 265.837Z" fill="#EF7856"/>
<path d="M484.173 254.424C484.592 254.11 484.278 252.644 484.906 252.644C487 252.539 489.827 252.539 492.026 252.435C492.655 256.204 493.492 261.335 494.225 265.209C490.979 265.942 487.733 266.57 484.487 267.303C484.697 263.953 484.487 260.707 483.859 257.461C483.44 256.414 483.231 255.052 484.173 254.424Z" fill="#2E3F4C"/>
<path d="M484.803 270.759C490.666 265.837 491.609 259.241 485.64 252.853C477.578 245 470.457 250.445 458.416 247.932C455.589 226.048 454.228 215.053 450.144 201.232C447.317 191.808 445.641 192.227 443.024 180.29C433.286 177.463 430.144 176.206 419.988 176.625C415.904 210.865 421.349 241.231 434.752 269.502C436.532 273.167 440.406 275.261 444.385 274.842C457.369 273.586 473.389 271.91 484.803 270.759Z" fill="#7C2E44"/>
<path d="M454.332 257.251V253.9L450.563 256.099V255.576C451.924 235.576 448.155 215.472 439.568 197.357L440.092 197.148C448.678 215.158 452.448 235.262 451.086 255.157L454.856 253.063V256.623C465.641 253.481 477.054 253.167 487.944 255.89L487.839 256.413C476.949 253.691 465.432 253.9 454.646 257.146L454.332 257.251Z" fill="#EF7856"/>
<path d="M403.861 98.8262C404.699 100.816 404.28 103.015 403.652 105.109C403.024 107.098 402.081 109.192 402.081 111.287C402.081 114.114 403.652 116.941 402.919 119.768C402.5 121.548 401.139 122.909 399.568 123.852C397.997 124.794 396.217 125.108 394.437 125.422C394.123 125.422 393.914 125.527 393.6 125.318C393.286 125.108 393.286 124.585 393.39 124.27C394.123 119.035 391.61 113.59 392.867 108.459C393.914 104.271 397.265 101.13 400.406 98.1979C400.72 97.8838 401.139 97.5697 401.558 97.465C402.709 97.1509 403.547 97.9885 403.861 98.8262Z" fill="#F5AB7E"/>
<path d="M400.72 114.742C402.395 113.904 403.652 112.543 404.28 110.763C404.49 110.24 404.594 109.821 405.013 109.402C405.432 109.088 406.06 109.088 406.27 109.507C406.374 109.716 406.374 110.03 406.27 110.24C405.956 111.81 405.641 113.276 405.327 114.847C405.013 116.313 404.699 117.883 403.861 119.245C402.395 121.548 399.778 122.595 397.265 123.642L400.72 114.742Z" fill="#F5AB7E"/>
<path d="M410.04 137.464C412.553 134.846 415.59 131.81 414.857 128.25C414.124 124.794 410.145 123.014 408.993 119.768C396.742 128.983 387.528 141.967 382.816 156.521C382.083 158.615 381.559 161.024 382.501 163.013C384.177 166.259 389.098 166.364 392.03 164.06C394.962 161.861 396.323 158.197 397.894 154.951C400.93 148.459 405.014 142.595 410.04 137.464Z" fill="#EF758A"/>
<path d="M379.046 159.139C378.313 162.49 378.208 166.678 381.14 168.458C383.548 169.819 386.69 168.563 388.888 166.783C395.59 161.338 396.951 152.647 397.998 144.061C399.045 135.475 399.569 126.26 403.652 118.616C401.663 120.815 398.626 117.883 395.904 119.14C394.647 119.768 394.019 121.025 393.391 122.281C387.632 134.113 381.768 146.26 379.046 159.139Z" fill="#F5AB7E"/>
<path d="M401.768 148.982L401.35 148.668C405.329 142.385 407.423 135.056 407.527 127.621H408.051C407.946 135.16 405.747 142.595 401.768 148.982Z" fill="#2E3F4C"/>
<path d="M458.415 128.354C446.687 116.941 425.222 122.909 408.992 120.815C408.678 123.747 408.364 126.784 408.05 129.715C408.05 129.715 408.049 129.715 407.945 129.715V130.03C407.735 131.81 407.526 133.485 407.317 135.265C405.118 140.082 401.034 144.584 401.558 149.82C401.767 152.647 403.547 159.139 405.432 161.338C404.908 167.62 404.385 169.819 404.175 176.206C403.966 185.421 397.893 196.415 397.997 205.629C414.332 208.666 435.274 199.138 452.865 202.069C437.682 159.243 475.692 145.108 458.415 128.354Z" fill="#EF758A"/>
<path d="M429.829 174.322C428.048 174.217 426.478 173.17 425.221 171.913C421.138 167.83 419.044 162.071 418.311 156.312C421.557 158.092 425.535 157.254 429.096 156.312C439.566 153.589 450.352 150.762 459.252 144.479C454.226 156.207 445.325 166.364 434.331 172.856C432.865 173.589 431.399 174.426 429.829 174.322Z" fill="#7C2E44"/>
<path d="M404.28 205.525C402.395 205.525 400.301 205.315 398.416 204.478L398.625 203.954C400.929 204.897 403.442 205.001 405.746 204.897C411.714 204.687 417.682 203.431 423.546 202.174C425.326 201.755 427.211 201.441 429.096 201.022C436.216 199.661 444.697 198.509 452.655 200.499L452.341 201.022C444.383 199.033 436.111 200.185 428.991 201.546C427.106 201.86 425.326 202.279 423.441 202.698C417.578 203.954 411.609 205.211 405.536 205.42C405.222 205.525 404.699 205.525 404.28 205.525Z" fill="#2E3F4C"/>
<path d="M407.631 179.766L407.526 179.243C418.94 176.311 431.086 176.206 442.604 179.033L442.499 179.557C431.086 176.73 419.044 176.834 407.631 179.766Z" fill="#2E3F4C"/>
<path d="M413.18 181.128L413.075 180.604C417.892 180.08 422.918 179.976 427.734 180.08V180.604C423.023 180.499 418.101 180.604 413.18 181.128Z" fill="#2E3F4C"/>
<path d="M428.259 82.073C418.94 86.9943 415.275 96.4181 413.076 106.68C412.448 109.297 413.285 113.172 414.856 115.266C416.427 117.36 417.683 117.255 420.196 117.883C426.688 119.245 433.285 120.396 439.986 120.187C442.918 120.082 446.059 119.559 447.944 117.465C449.305 115.999 449.829 113.905 450.143 111.915C450.981 105.737 449.934 99.4547 448.782 93.2769C448.049 89.4026 447.106 85.1096 443.965 82.7012C441.662 80.9212 438.416 80.5024 435.484 80.9212C432.552 81.34 429.829 82.5965 427.107 83.853L428.259 82.073Z" fill="#2E3F4C"/>
<path d="M438.624 122.491C436.844 116.103 436.739 109.297 438.52 102.91C434.959 104.795 431.085 105.842 427.106 105.947C425.954 111.182 424.803 116.522 423.546 121.758C423.023 121.758 422.499 121.862 421.976 121.967C421.347 122.072 420.719 122.177 420.091 122.386C419.567 122.595 419.044 123.014 418.834 123.538C418.625 124.166 418.939 124.899 419.358 125.632C420.405 127.517 421.557 129.402 423.651 130.553C425.536 131.6 428.049 132.019 430.352 131.81C432.656 131.6 434.855 130.972 436.844 130.239C438.624 129.611 440.404 128.878 441.87 127.831C443.336 126.784 444.488 125.423 444.907 123.957C442.917 123.224 440.718 122.805 438.624 122.491Z" fill="#F5AB7E"/>
<path d="M436.32 103.957C433.388 105.214 430.246 105.947 427 106.051C425.953 110.658 424.906 115.266 423.964 119.873C431.398 118.302 436.738 112.648 436.32 103.957Z" fill="#2E3F4C"/>
<path d="M418.417 97.0464C418.312 97.884 418.626 99.4547 418.312 100.188C416.846 105.004 417.474 111.077 420.825 116.522C426.584 117.465 432.657 114.533 436.741 110.449C440.824 106.365 443.442 100.606 442.395 94.9522C441.453 89.2979 436.217 84.2719 430.563 84.586C427.212 84.7954 424.176 86.5755 422.082 89.1932C419.883 91.8109 419.045 93.8004 418.417 97.0464Z" fill="#F5AB7E"/>
<path d="M418.417 97.0464C418.312 97.884 418.626 99.4547 418.312 100.188C416.846 105.004 417.474 111.077 420.825 116.522C426.584 117.465 432.657 114.533 436.741 110.449C440.824 106.365 443.442 100.606 442.395 94.9522C441.453 89.2979 436.217 84.2719 430.563 84.586C427.212 84.7954 424.176 86.5755 422.082 89.1932C419.883 91.8109 419.045 93.8004 418.417 97.0464Z" fill="#F5AB7E"/>
<path d="M422.499 107.727C421.662 107.413 420.824 106.889 420.196 106.261C419.986 106.051 419.777 105.842 419.777 105.528C419.672 105.109 419.882 104.795 420.091 104.585C420.405 104.062 420.929 103.538 421.452 103.119L421.766 102.805C422.29 102.282 422.813 101.758 423.023 101.025C423.232 100.502 423.128 99.6641 422.604 99.1405L422.918 98.7217C423.651 99.3499 423.756 100.397 423.442 101.13C423.128 101.968 422.604 102.596 422.08 103.119L421.766 103.434C421.348 103.852 420.824 104.271 420.51 104.795C420.3 105.004 420.3 105.214 420.3 105.423C420.3 105.632 420.51 105.737 420.615 105.842C421.138 106.47 421.871 106.889 422.709 107.203L422.499 107.727Z" fill="#2E3F4C"/>
<path d="M422.29 111.706C421.557 111.601 420.929 111.077 420.615 110.449C420.405 109.821 420.405 109.193 420.405 108.564C421.766 109.297 423.337 109.821 424.908 110.03C424.594 110.449 424.279 110.868 423.861 111.287C423.547 111.496 422.918 111.706 422.29 111.706Z" fill="#7C2E44"/>
<path d="M419.044 99.6643C418.939 99.5596 418.939 99.4549 418.939 99.2455C418.939 98.8266 419.463 98.5125 419.882 98.7219C420.301 98.8266 420.51 99.3502 420.405 99.769C420.301 99.9784 420.091 100.188 419.882 100.188C419.672 100.188 419.568 99.9784 419.463 99.8737C419.254 99.769 419.149 99.769 419.044 99.6643Z" fill="#2E3F4C"/>
<path d="M418.102 97.2558L417.997 96.7323C418.206 96.7323 418.521 96.6276 418.73 96.6276C419.463 96.5229 420.196 96.3134 420.929 96.6276L420.719 97.1511C420.196 96.9417 419.463 97.0464 418.835 97.1511C418.625 97.1511 418.416 97.2558 418.102 97.2558Z" fill="#2E3F4C"/>
<path d="M427.525 102.177C427.525 101.758 427.944 101.444 428.363 101.444C428.782 101.444 429.201 101.758 429.305 102.177C429.515 102.596 429.724 102.805 429.201 103.119C428.991 103.329 428.363 102.701 427.84 102.701C427.735 102.701 427.63 102.701 427.63 102.701C427.525 102.596 427.525 102.386 427.525 102.177Z" fill="#2E3F4C"/>
<path d="M431.714 101.13C430.772 99.5594 429.096 99.0359 427.316 98.5123L427.421 97.9888C429.306 98.5123 430.981 99.0359 432.133 100.816L431.714 101.13Z" fill="#2E3F4C"/>
<path d="M447.63 103.224C447.316 100.502 446.269 97.9887 445.117 95.4757C445.222 94.2192 445.012 92.9627 444.698 91.7061C443.023 85.5283 442.604 81.6541 431.295 80.607C421.662 79.7693 411.715 84.9001 416.95 92.5438C417.474 90.6591 419.463 89.8214 420.929 88.4602C419.777 89.7167 419.358 91.6014 419.882 93.2768C420.301 92.6485 420.824 92.125 421.243 91.4967C421.138 92.0203 421.138 92.5438 421.243 93.0674C421.557 94.5333 422.709 95.5804 424.07 96.2086C425.327 96.8369 426.793 97.151 428.259 97.3604C428.782 96.7322 429.306 96.1039 429.829 95.5804C429.515 95.9992 429.306 96.418 429.201 96.9416C429.096 97.884 430.039 99.0358 430.876 98.7217C431.086 98.6169 431.295 98.5122 431.4 98.3028C431.505 98.5122 431.609 98.6169 431.819 98.7217C432.447 99.2452 433.494 99.1405 434.018 98.5122C434.227 100.502 436.007 101.968 437.997 102.282C437.997 105.423 437.683 108.564 436.95 111.601C436.426 113.8 436.112 115.161 434.437 116.627C433.913 117.046 433.599 117.15 432.238 117.883C433.808 118.512 435.379 118.93 437.054 118.93C438.73 118.93 440.405 118.616 441.766 117.779C443.756 116.522 445.012 114.533 445.955 112.334C447.211 109.507 447.944 106.365 447.63 103.224Z" fill="#2E3F4C"/>
<path d="M462.081 134.532C461.558 132.124 460.197 129.715 457.788 128.983C454.647 128.04 449.412 127.307 447.003 129.611C439.674 136.522 433.915 141.862 422.292 147.097C419.884 148.144 419.465 158.929 419.674 159.976C420.303 162.594 421.664 165.526 423.758 167.201C426.795 169.61 431.088 167.62 434.334 165.631C437.58 163.641 440.721 161.652 443.967 159.767C448.679 156.94 453.391 154.008 457.055 149.82C460.825 145.631 463.233 139.977 462.081 134.532Z" fill="#EF758A"/>
<path d="M425.329 147.411C427.528 145.945 430.565 145.527 432.764 147.097C434.229 148.144 434.962 149.82 435.381 151.495C436.533 156.102 435.172 161.338 431.926 164.793C430.146 166.678 427.319 168.144 425.015 166.887C423.549 166.154 422.816 164.479 422.293 162.908C421.35 160.186 420.827 157.359 421.246 154.531C421.56 151.704 423.026 148.982 425.329 147.411Z" fill="#7C2E44"/>
<path d="M445.642 130.344C440.72 135.789 434.752 140.186 428.155 143.432L428.26 143.537C428.365 143.642 428.365 143.746 428.365 143.851C434.961 140.605 441.034 136.103 445.956 130.658L445.642 130.344Z" fill="#2E3F4C"/>
<path d="M429.62 145.945C424.385 137.255 419.149 128.668 414.019 119.978C414.019 119.349 414.123 118.826 414.228 118.198C414.542 116.313 415.171 114.428 415.38 112.543C415.903 107.517 414.123 102.491 412.343 97.7793C412.134 97.151 411.82 96.5228 411.296 96.1039C410.354 95.371 408.993 95.7898 408.155 96.5228C406.27 98.1981 406.061 101.025 406.584 103.538C407.003 106.051 407.946 108.46 407.631 110.973C407.527 112.543 406.899 114.009 406.375 115.475C405.851 116.941 405.433 118.512 405.642 120.082C405.851 121.444 406.584 122.805 407.841 123.328C412.867 137.15 411.61 149.087 419.149 160.605C420.825 163.222 423.128 165.945 426.27 166.259C430.563 166.783 434.018 162.175 434.123 157.882C434.123 153.589 431.819 149.61 429.62 145.945Z" fill="#F5AB7E"/>
<path d="M328.47 303.323L303.131 303.951C287.948 316.097 285.644 334.003 277.163 351.803C276.116 352.85 275.174 354.002 274.441 355.259C273.393 357.039 272.765 359.238 273.289 361.227C273.603 362.484 274.231 363.531 274.545 364.787C274.964 366.881 274.126 368.871 273.917 370.965C273.498 375.572 276.849 380.284 281.351 381.331C282.713 381.645 284.388 381.541 285.016 380.389C285.54 379.446 285.33 378.295 285.121 377.352C283.341 369.604 282.189 364.682 283.76 356.829C296.22 335.469 311.403 317.354 328.47 303.323Z" fill="#F5AB7E"/>
<path d="M279.152 374.002C276.011 367.824 273.812 360.599 275.697 353.374C275.278 353.898 274.859 354.526 274.441 355.154C273.393 356.934 272.765 359.133 273.289 361.122C273.603 362.379 274.231 363.426 274.545 364.683C274.964 366.777 274.126 368.766 273.917 370.86C273.498 375.468 276.849 380.18 281.351 381.227C282.713 381.541 284.388 381.436 285.016 380.284C285.54 379.342 285.33 378.19 285.121 377.248C285.016 376.829 284.911 376.41 284.807 376.096C282.817 376.619 280.618 376.096 279.152 374.002Z" fill="#7C2E44"/>
<path d="M372.972 366.672C368.365 362.693 365.329 357.144 364.282 351.175C367.528 328.558 367.423 306.046 362.187 287.198C357.475 288.036 349.622 298.402 344.806 299.24C350.879 312.956 353.287 331.804 356.533 347.51C357.057 350.233 356.847 353.06 355.8 355.573C354.544 358.505 354.02 360.913 355.277 362.065C357.894 364.054 359.046 363.845 359.988 365.102C360.931 366.358 361.454 367.929 362.397 369.08C363.967 371.07 366.48 372.117 368.993 372.431C370.983 372.641 373.077 372.536 375.171 372.222C376.114 372.117 376.742 371.07 376.323 370.232C375.695 368.976 374.229 367.719 372.972 366.672Z" fill="#F5AB7E"/>
<path d="M363.549 296.622C362.92 293.899 361.769 290.758 360.721 287.721C355.905 290.025 349.099 298.506 344.806 299.239C350.879 312.956 353.287 331.804 356.533 347.51C357.057 350.233 356.847 353.06 355.8 355.573C354.544 358.505 354.02 360.913 355.277 362.065C357.894 364.054 359.046 363.845 359.988 365.101C360.931 366.358 361.454 367.929 362.397 369.08C363.13 370.023 364.072 370.756 365.119 371.279C364.91 370.756 364.805 370.337 364.596 369.813C357.266 345.835 366.69 321.752 363.549 296.622Z" fill="#2E3F4C"/>
<path d="M365.539 368.138C361.351 364.997 358.105 360.913 355.801 355.992C354.65 358.714 354.126 361.018 355.383 362.17C358 364.159 359.152 363.95 360.094 365.206C361.037 366.463 361.56 368.033 362.503 369.185C364.073 371.175 366.586 372.222 369.099 372.536C371.089 372.745 373.183 372.641 375.277 372.326C376.22 372.222 376.848 371.175 376.429 370.337C376.01 369.29 375.068 368.452 374.23 367.615C371.194 368.766 367.319 368.766 365.539 368.138Z" fill="#7C2E44"/>
<path d="M349.308 209.085C349.204 208.876 349.204 208.561 349.099 208.352L295.174 208.457C291.3 219.661 293.289 227.514 296.64 236.309C300.2 245.838 305.645 254.319 310.252 263.324C312.346 267.303 314.231 271.806 313.603 276.413C313.079 279.868 311.194 282.905 309.31 285.732C301.77 297.355 294.231 308.873 286.692 320.495C310.357 332.223 339.152 330.652 361.559 316.412C365.224 314.108 369.098 310.862 369.831 306.255C370.25 303.847 369.727 301.334 369.203 298.925C362.606 268.979 356.01 239.032 349.308 209.085Z" fill="#7C2E44"/>
<path d="M371.505 106.261C365.956 95.5804 360.406 85.0048 354.857 74.3245C350.564 77.361 346.271 80.5023 341.978 83.5389C347.737 93.5909 353.496 103.643 359.15 113.695C363.129 112.124 366.898 108.878 371.505 106.261Z" fill="#2E3F4C"/>
<path d="M375.068 108.145C374.963 108.041 374.963 107.936 374.963 107.936C374.649 105.842 373.916 103.748 372.346 102.386C370.984 100.397 369.1 98.7217 366.796 97.7793C367.005 98.7217 367.11 99.6641 367.32 100.606C363.759 99.9782 360.304 99.3499 356.744 98.7217C355.906 98.617 354.964 98.4075 354.126 98.617C353.289 98.8264 352.451 99.5594 352.451 100.397C352.451 100.921 352.765 101.444 353.184 101.654C352.765 101.654 352.451 101.863 352.137 101.968C352.451 102.701 352.87 103.329 353.498 103.852C353.498 103.852 353.498 103.852 353.393 103.852C352.66 103.748 351.718 104.271 351.613 105.004C351.613 105.632 352.032 106.156 352.451 106.47C354.964 108.46 359.048 107.831 361.037 110.344C361.665 111.182 361.979 112.334 362.712 113.172C363.55 114.219 364.807 114.742 366.168 115.161C366.796 124.69 366.272 134.532 367.424 142.595C359.048 139.872 355.592 137.255 345.959 132.229C339.781 129.401 329.729 126.574 329.205 129.82C328.682 133.066 335.488 138.406 336.326 141.548C338.106 148.354 346.378 152.123 352.556 154.322C359.362 156.73 367.215 160.395 373.602 160.395C374.649 160.395 377.895 159.767 378.523 158.929C379.152 158.196 380.303 156.521 380.303 155.579C381.979 137.359 379.361 123.957 375.068 108.145Z" fill="#F5AB7E"/>
<path d="M300.618 88.2506C295.801 86.3658 290.042 87.2035 285.959 90.4495C283.341 92.5437 281.247 95.8944 282.189 99.1403C283.027 102.072 286.064 104.585 285.331 107.622C284.807 109.716 282.608 110.868 281.142 112.334C279.048 114.323 278.001 117.674 279.362 120.292C280.095 121.757 281.352 122.7 282.713 123.642C284.074 124.48 285.435 125.318 286.587 126.365C287.739 127.516 288.577 128.982 288.367 130.553C288.158 132.124 286.692 133.59 285.121 133.275C287.529 135.998 291.404 137.464 295.069 137.15C299.362 136.731 303.026 134.008 306.482 131.391C308.471 129.925 310.67 128.04 310.88 125.632C311.089 122.805 308.681 120.292 308.785 117.569C308.89 114.742 311.298 112.648 312.555 110.135C314.23 106.784 313.393 102.386 310.775 99.7686C309.623 98.6168 308.262 97.8838 307.005 96.9415C305.749 95.9991 304.492 94.8473 303.969 93.3813C303.445 91.9154 303.864 90.0307 305.225 89.193L300.618 88.2506Z" fill="#2E3F4C"/>
<path d="M326.169 132.542C321.981 126.365 319.363 119.14 318.63 111.705C314.861 112.962 310.882 113.381 307.008 113.067C307.531 119.977 307.008 126.993 305.646 133.799C312.243 136.103 319.887 135.579 326.169 132.542Z" fill="#F5AB7E"/>
<path d="M321.144 122.7C319.888 119.14 318.945 115.475 318.631 111.705C315.28 112.752 311.72 113.276 308.16 113.067C309.207 119.768 315.176 122.804 321.144 122.7Z" fill="#2E3F4C"/>
<path d="M298.212 102.701C298.84 109.193 303.134 115.161 308.997 117.988C314.861 120.815 322.191 120.292 327.635 116.627C327.007 111.601 327.74 107.517 326.065 102.805C325.437 101.13 324.18 101.13 322.819 97.0464C321.876 93.9051 318.84 91.8109 316.013 90.2403C311.615 87.832 305.647 87.9367 301.877 91.2874C298.945 94.0098 297.793 98.617 298.212 102.701Z" fill="#F5AB7E"/>
<path d="M317.581 86.4706C315.278 85.3188 311.404 85.0046 308.786 85.0046C305.435 85.1093 301.875 85.7376 299.257 87.8318C295.802 90.6589 294.65 95.4755 294.65 99.8733C294.545 103.852 295.278 108.145 298.001 111.077C300.409 113.59 304.179 114.847 305.645 117.883C307.215 117.779 307.529 115.789 307.425 114.218C307.32 112.438 306.796 111.601 306.587 109.821C306.378 108.145 307.425 106.575 308.367 105.109C309.205 103.643 309.938 101.758 309.1 100.292C310.252 100.397 311.404 99.5592 311.613 98.4074C311.718 97.8839 311.613 97.3603 311.822 96.8368C312.346 95.5803 315.801 97.9886 316.953 97.2556C318 96.6273 318.838 95.7897 318.419 94.7426C319.676 95.0567 321.246 94.8473 322.503 95.0567C324.492 91.4966 319.885 87.6224 317.581 86.4706Z" fill="#2E3F4C"/>
<path d="M308.158 106.784C307.844 106.156 307.635 105.632 307.216 105.109C306.797 104.585 306.169 104.271 305.54 104.271C304.389 104.376 303.656 105.632 303.446 106.784C303.027 108.355 303.027 110.135 303.656 111.601C304.284 113.172 305.436 114.428 307.006 114.952C308.577 115.475 310.357 115.161 311.509 114.009L308.158 106.784Z" fill="#F5AB7E"/>
<path d="M298.629 88.4601C296.116 88.2507 293.603 89.8213 292.556 92.0202C291.509 94.3238 291.928 97.151 293.708 98.931C292.87 95.2662 296.011 91.1826 298.629 88.4601Z" fill="#EF758A"/>
<path d="M312.765 102.91L312.241 102.805C312.555 100.92 313.917 99.245 315.697 98.6167L315.906 99.1402C314.231 99.6638 313.079 101.13 312.765 102.91Z" fill="#2E3F4C"/>
<path d="M321.139 96.9415L320.825 96.5227C321.453 95.9991 321.977 96.1038 322.396 96.2085C322.501 96.2085 322.605 96.3133 322.71 96.3133L322.815 96.8368C322.605 96.8368 322.396 96.8368 322.291 96.7321C321.872 96.7321 321.558 96.6274 321.139 96.9415Z" fill="#2E3F4C"/>
<path d="M322.816 99.7688C322.816 99.9782 322.92 100.292 323.025 100.397C323.13 100.606 323.444 100.711 323.653 100.606C323.863 100.502 323.967 100.292 323.967 100.083C323.967 99.8735 323.863 99.6641 323.863 99.4547C323.758 99.1405 323.444 98.8264 323.13 98.8264C322.816 99.0358 322.711 99.4547 322.816 99.7688Z" fill="#2E3F4C"/>
<path d="M315.069 103.748C315.069 104.166 315.173 104.585 315.383 104.899C315.488 105.004 315.592 105.109 315.697 105.109C316.011 105.109 316.116 104.899 316.221 104.585C316.325 104.166 316.325 103.748 316.221 103.329C316.116 103.015 315.802 102.596 315.488 102.7C315.278 102.7 315.069 102.91 315.069 103.119C314.964 103.329 314.964 103.538 315.069 103.748Z" fill="#2E3F4C"/>
<path d="M323.235 108.564L322.816 108.355C323.13 107.831 323.549 107.412 323.968 107.098C324.072 106.994 324.177 106.889 324.282 106.784C324.701 106.365 325.224 105.842 325.119 105.213C325.015 104.585 324.282 104.062 323.653 103.748L321.14 102.386C320.722 102.177 320.093 101.863 319.779 101.339C319.151 100.397 319.465 99.1403 319.989 97.9885L320.512 98.1979C320.093 99.245 319.779 100.292 320.303 101.13C320.617 101.549 321.036 101.758 321.455 101.967L323.968 103.329C324.805 103.748 325.538 104.271 325.748 105.213C325.852 105.842 325.538 106.575 324.805 107.308C324.701 107.412 324.596 107.517 324.386 107.622C323.863 107.831 323.444 108.145 323.235 108.564Z" fill="#2E3F4C"/>
<path d="M320.933 111.182C321.142 112.02 321.875 112.438 322.817 112.648C323.655 112.857 324.597 112.438 325.121 111.81C325.645 111.077 325.749 110.135 325.33 109.402C324.702 110.554 323.55 111.287 322.189 111.391C321.77 111.287 321.351 111.287 320.933 111.182Z" fill="#7C2E44"/>
<path d="M348.89 205.106C347.738 197.462 346.587 195.054 345.958 193.169C343.759 186.782 342.712 180.918 342.398 175.055C342.712 174.426 342.922 173.798 343.236 173.275C345.121 168.772 346.587 163.746 345.749 158.825C345.33 156.626 344.492 154.636 343.759 152.542C343.969 150.972 344.178 149.506 344.388 147.83C345.749 137.464 338.315 128.354 328.891 128.145C319.676 127.936 305.855 128.145 291.614 132.857C274.756 156.731 301.143 180.814 294.023 210.551H349.833C349.937 210.132 348.995 205.839 348.89 205.106Z" fill="#EF7856"/>
<path d="M303.342 143.014C303.342 152.856 300.306 162.908 293.814 170.343C292.871 171.39 291.405 172.542 290.149 171.913C289.416 171.599 289.102 170.761 288.788 170.029C288.055 167.725 287.845 165.212 287.741 162.699C287.322 154.846 287.531 146.469 291.824 139.768C292.767 138.302 293.918 136.94 295.489 136.103C297.06 135.265 298.944 135.056 300.515 135.893C302.819 137.15 303.342 140.291 303.342 143.014Z" fill="#2E3F4C"/>
<path d="M300.096 211.703C298.84 209.923 299.049 207.724 299.259 205.525C299.363 204.164 299.573 202.698 299.259 201.337C299.049 200.499 298.735 199.661 298.421 198.824C298.107 197.986 297.688 197.148 297.583 196.206C296.955 193.274 298.212 190.447 299.363 187.724C300.62 184.793 301.876 181.965 300.934 179.034C300.411 177.253 299.154 175.892 297.793 174.426C297.269 173.798 296.641 173.17 296.118 172.542C292.767 168.248 291.51 162.071 292.348 154.113C292.557 151.914 292.976 149.61 293.395 147.411C294.128 143.432 294.756 139.349 294.756 135.265H295.28C295.385 139.349 294.652 143.537 293.919 147.516C293.5 149.715 293.186 151.914 292.872 154.217C291.929 161.966 293.186 168.039 296.536 172.227C297.06 172.856 297.583 173.484 298.107 174.007C299.468 175.473 300.829 176.939 301.353 178.824C302.295 181.861 301.039 184.897 299.782 187.829C298.631 190.551 297.479 193.274 298.002 195.996C298.212 196.834 298.526 197.672 298.84 198.509C299.154 199.347 299.573 200.185 299.678 201.127C299.992 202.488 299.782 204.059 299.678 205.42C299.468 207.619 299.259 209.609 300.411 211.284L300.096 211.703Z" fill="#2E3F4C"/>
<path d="M327.738 129.401C326.377 132.961 322.503 135.16 318.628 135.474C314.754 135.893 310.985 134.846 307.215 133.694C305.645 133.276 303.864 132.647 302.817 131.286C311.194 131.705 319.571 130.972 327.738 129.401Z" fill="#2E3F4C"/>
<path d="M302.4 131.077C310.358 135.265 321.772 134.846 328.682 129.192C327.007 126.784 326.588 125.213 325.96 122.281C318.63 124.271 311.719 125.108 304.076 124.48C305.228 127.098 303.029 128.25 302.4 131.077Z" fill="#EF7856"/>
<path d="M295.279 133.59C292.452 133.38 289.834 135.37 288.368 137.883C286.902 140.396 286.274 143.433 285.646 146.364C283.237 158.615 281.457 164.688 279.049 176.939C273.29 164.374 268.473 164.165 260.097 154.008C260.097 153.694 259.154 150.343 259.154 150.029C259.259 148.668 257.793 144.165 257.688 142.804C257.584 141.443 256.641 139.977 255.175 139.977C253.5 140.187 251.825 139.139 251.301 137.569C250.568 138.092 250.044 138.93 249.94 139.872C249.207 139.349 248.264 139.349 247.531 139.872C246.798 140.291 246.38 141.234 246.589 142.071C246.694 142.49 246.798 142.909 246.694 143.223C246.484 143.642 245.961 143.747 245.437 143.956C244.39 144.48 244.076 146.155 244.914 146.993C244.181 146.993 243.448 147.621 243.343 148.354C243.238 149.087 243.657 149.924 244.39 150.134C243.552 150.867 244.181 152.333 245.018 153.17C247.531 155.788 250.463 157.987 253.814 159.558H253.919C255.594 163.118 257.688 168.039 258.945 170.238C265.856 182.28 266.065 184.06 275.489 196.834C276.955 198.928 280.829 201.127 283.132 201.022C285.017 200.918 288.263 197.462 289.101 195.787C293.918 186.049 296.221 180.918 298.629 169.924C300.095 163.327 302.085 157.987 301.875 151.181C301.875 146.993 301.352 134.009 295.279 133.59Z" fill="#F5AB7E"/>
<path d="M202.82 71.3927C205.228 74.6386 205.542 79.3505 203.658 82.9106C203.343 78.7223 202.192 74.5339 200.202 70.7644L202.82 71.3927Z" fill="#7C2E44"/>
<path d="M197.376 112.962C196.643 106.365 196.014 99.7687 195.281 93.172C190.255 93.4861 185.125 93.2767 180.099 92.7532C180.308 99.7687 177.69 106.47 174.968 112.962H197.376Z" fill="#F5AB7E"/>
<path d="M182.193 92.9626C183.031 100.292 189.628 104.271 196.643 105.109C196.224 101.13 195.806 97.151 195.387 93.1721C190.989 93.4862 186.591 93.3815 182.193 92.9626Z" fill="#2E3F4C"/>
<path d="M197.585 68.356C194.339 66.0524 190.36 65.11 186.381 64.9006C183.136 64.6912 179.785 65.11 177.167 66.9948C174.131 69.2983 172.979 73.2773 172.769 77.1515C172.455 84.6906 175.806 92.3343 181.67 97.0462C187.533 101.758 196.015 103.119 203.03 100.397C204.287 94.7426 205.439 89.0884 205.02 83.3294C204.706 77.4657 202.297 71.602 197.585 68.356Z" fill="#F5AB7E"/>
<path d="M141.565 386.043C143.345 386.043 145.23 385.938 146.8 385.101C148.266 384.368 149.418 383.111 150.779 382.274C154.444 380.284 159.366 381.75 162.611 379.237C161.041 373.478 160.936 367.196 162.402 361.332C158.109 360.808 153.921 359.761 149.837 358.295C150.57 362.379 148.79 366.567 145.963 369.604C143.136 372.64 139.366 374.525 135.492 375.991C133.293 376.829 131.094 377.562 129.314 379.132C127.639 380.703 126.696 383.425 127.953 385.415C132.455 385.834 137.062 386.043 141.565 386.043Z" fill="#2E3F4C"/>
<path d="M213.081 362.798C209.207 362.274 205.228 361.855 201.354 361.332C201.354 365.834 201.354 370.232 201.354 374.735C206.275 374.735 210.568 377.771 215.28 379.237C221.353 381.122 227.845 380.18 234.023 379.237C235.07 377.352 233.813 374.839 231.929 373.688C230.044 372.536 227.845 372.326 225.646 372.012C223.552 371.698 221.248 371.07 219.782 369.499C218.212 367.614 217.898 364.787 215.803 363.531C215.07 363.112 214.128 363.007 213.081 362.798Z" fill="#2E3F4C"/>
<path d="M155.596 201.232C151.617 228.98 152.559 248.77 150.046 273.795C147.219 301.752 145.648 333.165 143.449 361.437C143.345 363.112 142.402 367.824 143.449 369.29C146.8 373.792 157.062 373.792 162.297 372.431C170.255 313.375 191.302 251.597 188.893 201.755L155.596 201.232Z" fill="#7C2E44"/>
<path d="M217.375 204.059L184.077 203.221C181.355 261.439 190.046 312.537 199.888 364.787C204.391 367.824 213.501 371.907 220.202 365.625C219.888 341.437 215.071 244.477 217.375 204.059Z" fill="#7C2E44"/>
<path d="M157.064 204.792H215.072C212.036 186.363 208.685 165.735 215.282 105.528C197.167 112.229 178.634 112.962 159.577 105.109C154.341 144.27 158.32 173.065 157.064 204.792Z" fill="#2E3F4C"/>
<path d="M177.377 106.889C170.78 106.156 164.079 104.69 157.377 102.386C151.409 138.93 156.959 150.657 154.864 180.604C154.236 190.237 149.943 209.399 149.629 225.943C157.377 223.64 165.231 222.383 173.188 221.859C182.298 184.583 181.879 144.27 177.377 106.889Z" fill="#889FAB"/>
<path d="M126.278 41.9693C127.221 41.1316 127.325 36.2103 127.011 35.0585C126.697 33.9067 126.697 34.1161 126.697 32.8596C126.697 31.6031 128.791 28.6713 129.315 27.4147C131.095 23.6452 131.723 21.551 130.886 17.4674C131.409 17.1533 132.247 17.1533 132.77 17.5721C132.351 16.8391 132.77 15.8968 133.503 15.5826C134.236 15.3732 135.179 15.8968 135.283 16.7344C135.074 16.3156 135.493 15.6873 136.121 15.6873C136.645 15.6873 137.168 16.3156 137.063 16.8391C137.063 16.4203 137.168 15.8968 137.168 15.4779C137.482 15.2685 137.901 15.3732 138.11 15.5826C138.32 15.792 138.425 16.2109 138.529 16.525C139.262 19.771 139.89 23.1217 140.414 26.4724C140.623 27.6242 140.728 28.8807 140.309 30.0325C139.681 31.3937 138.32 32.2314 137.168 33.2785C135.388 34.9538 134.341 37.3621 134.341 39.7704C132.351 39.7704 128.163 41.6552 126.278 41.9693Z" fill="#F5AB7E"/>
<path d="M205.857 222.278C210.883 222.593 215.804 222.907 220.726 223.221C221.668 184.269 206.485 186.677 217.689 102.701C210.15 105.004 204.705 106.575 197.061 107.203C194.863 146.05 196.119 184.897 205.857 222.278Z" fill="#889FAB"/>
<path d="M142.404 1.13286C146.279 7.4154 150.572 13.1744 153.922 19.0381C154.655 20.2946 154.132 21.8652 152.875 22.4935C141.043 28.6713 129.525 35.6868 118.531 43.3306C117.379 44.1683 115.704 43.8541 114.971 42.5976L102.929 23.3312C102.196 22.0747 102.615 20.504 103.871 19.8758L139.054 0.295183C140.205 -0.333071 141.671 0.0857651 142.404 1.13286Z" fill="#2E3F4C"/>
<path d="M103.87 19.7711C102.614 20.5041 102.195 22.0747 102.928 23.2265L114.97 42.7024C115.703 43.9589 117.378 44.273 118.53 43.4354C118.634 43.3307 118.844 43.226 118.949 43.1212L104.603 19.3523L103.87 19.7711Z" fill="#2E3F4C"/>
<path d="M153.921 19.1429C150.57 13.2792 146.277 7.41546 142.403 1.23763C141.67 0.0858259 140.204 -0.33301 139.052 0.295244H138.947L152.874 22.4936C154.13 21.8653 154.549 20.2947 153.921 19.1429Z" fill="#889FAB"/>
<path d="M141.566 1.44713C141.566 1.76126 141.356 1.97067 141.042 1.97067C140.728 1.97067 140.519 1.76126 140.519 1.44713C140.519 1.133 140.728 0.923584 141.042 0.923584C141.252 0.923584 141.566 1.133 141.566 1.44713Z" fill="#2E3F4C"/>
<path d="M141.983 3.22708C142.215 3.22708 142.402 3.03956 142.402 2.80824C142.402 2.57692 142.215 2.3894 141.983 2.3894C141.752 2.3894 141.564 2.57692 141.564 2.80824C141.564 3.03956 141.752 3.22708 141.983 3.22708Z" fill="#2E3F4C"/>
<path d="M138.635 1.23755L105.651 19.4569L119.368 42.2835C129.734 35.0586 140.624 28.4619 151.828 22.5982C151.828 22.5982 151.933 22.5982 151.933 22.4935L138.635 1.23755Z" fill="#AEC9D6"/>
<path d="M143.242 31.6033C143.556 29.195 144.289 27.1008 145.022 24.7972C143.975 24.6925 142.928 25.0066 142.09 25.6349C141.252 26.3678 141.462 27.729 141.462 28.7761C138.739 30.6609 136.122 28.9855 134.656 30.7656C132.98 32.7551 132.98 35.4775 132.98 38.0952C134.237 38.4094 135.389 38.7235 136.645 39.1423C137.274 37.467 137.902 35.7916 138.949 34.4304C139.996 32.9645 141.462 31.6033 143.242 31.6033Z" fill="#F5AB7E"/>
<path d="M137.795 36.9434C134.026 37.2575 130.256 37.6763 126.487 37.9904C120.832 55.058 115.178 73.4868 120.832 90.5544C127.534 110.763 143.24 115.894 154.339 134.113C160.412 123.224 161.041 115.894 162.507 104.795C139.156 90.2403 131.722 84.9001 137.795 36.9434Z" fill="#889FAB"/>
<path d="M260.305 34.954C260.2 35.0587 260.2 35.1634 260.095 35.2681C259.676 34.954 259.258 34.6398 258.839 34.3257C259.991 32.1268 261.038 29.9279 262.189 27.6243C262.294 27.3102 262.504 27.1008 262.504 26.7867C262.504 26.4725 262.399 26.1584 262.085 25.949C261.561 25.6349 261.038 26.2631 260.619 26.682C259.153 28.8808 257.792 31.0797 256.43 33.2786C256.326 33.2786 256.221 33.2786 256.116 33.1739C256.535 29.8232 256.849 26.4725 257.268 23.1219C257.268 22.703 257.373 22.3889 257.268 21.9701C257.163 21.6559 256.849 21.3418 256.43 21.3418C256.012 21.3418 255.697 21.8653 255.488 22.2842C254.127 25.7396 253.289 29.2997 252.766 32.9645C252.451 32.9645 252.033 33.0692 251.719 33.0692C251.823 29.9279 252.033 26.682 252.137 23.5407C252.137 23.0171 252.137 22.4936 251.928 22.0748C251.719 21.6559 251.195 21.3418 250.776 21.4465C250.253 21.6559 250.148 22.2842 250.043 22.8077C249.52 26.4725 248.891 30.1374 248.368 33.8022C247.425 34.1163 247.53 34.4304 246.588 34.1163C245.331 33.6975 244.075 32.1268 243.446 30.975C242.714 29.8232 240.724 28.8808 239.572 29.5091C241.352 31.2892 241.562 34.1163 243.028 36.2105C243.761 37.2576 244.703 38.0952 245.436 39.0376C246.797 40.713 247.635 42.8071 247.74 45.006C247.844 46.5767 247.635 48.252 248.577 49.5085C249.31 50.5556 250.671 51.0792 251.928 51.2886C253.184 51.498 254.546 51.6027 255.697 52.1263C256.221 47.6238 258.525 41.6553 260.619 37.8858C261.456 36.8387 262.294 35.7916 263.132 34.7446C264.388 33.2786 266.378 30.6609 265.959 29.6138C264.702 29.4044 261.98 33.0692 260.305 34.954Z" fill="#F5AB7E"/>
<path d="M212.769 104.271C233.187 89.4026 243.03 65.843 245.333 40.6082C248.789 40.6082 256.328 42.4929 259.259 44.3777C258.317 80.7117 241.04 104.69 213.502 132.857C210.36 122.595 209.523 114.009 212.769 104.271Z" fill="#889FAB"/>
<path d="M181.356 147.726C179.786 112.648 177.378 106.889 177.378 106.889L172.037 105.423C172.037 105.423 165.964 129.611 169.42 133.59L176.33 137.15L169.943 136.208C169.943 136.208 171.2 137.988 171.828 146.783C174.864 163.222 176.54 180.081 178.006 196.834C180.205 182.803 182.089 164.793 181.356 147.726Z" fill="#AEC9D6"/>
<path d="M196.538 106.365C197.166 106.365 199.365 106.365 199.365 106.365L204.391 135.998L198.737 139.454L204.391 139.558L200.203 192.96C200.203 192.96 194.235 159.034 194.025 136.103C193.816 113.172 196.538 106.365 196.538 106.365Z" fill="#AEC9D6"/>
<path d="M179.051 65.3196C182.611 63.1207 187.114 63.2254 191.197 63.5395C194.024 63.7489 197.061 63.9583 199.574 65.3196C202.087 66.6808 204.181 69.5079 203.658 72.4398C202.192 72.8586 201.249 74.2198 199.888 74.9528C197.585 76.2093 194.862 75.2669 192.244 74.7434C190.883 74.4292 189.313 74.3245 188.265 75.1622C187.323 75.8952 187.009 77.2564 187.009 78.5129C187.009 79.7694 187.218 81.0259 187.009 82.2824C186.695 84.9001 184.705 86.8896 183.03 88.7744C181.355 90.6591 180.203 92.858 180.308 95.4757C176.014 92.858 173.397 87.7273 171.721 82.9107C170.988 80.8165 170.779 78.6176 171.198 76.5234C171.512 74.4292 172.35 72.6492 173.606 70.9738C175.177 68.8797 176.852 66.6808 179.051 65.3196Z" fill="#7C2E44"/>
<path d="M186.172 86.7847C186.172 85.4235 185.648 84.0623 184.706 83.1199C184.287 82.7011 183.868 82.3869 183.345 82.2822C182.507 82.2822 181.879 83.1199 181.46 83.9576C180.832 85.4235 180.518 86.8894 180.622 88.4601C180.622 89.4024 180.832 90.4495 181.355 91.2872C181.879 92.1249 182.717 92.8578 183.659 92.9626C184.601 93.172 185.753 92.6484 186.172 91.8107V86.7847Z" fill="#F5AB7E"/>
<path d="M194.653 78.4082C192.873 78.9317 191.198 79.6647 189.627 80.6071C189.732 80.9212 189.941 81.2353 190.046 81.4448C191.826 80.7118 193.711 80.0835 195.595 79.6647C195.491 79.2459 194.758 78.827 194.653 78.4082Z" fill="#7C2E44"/>
<path d="M202.402 79.8742C203.03 80.0836 203.658 80.293 204.391 80.5024C204.286 80.0836 204.182 79.6647 204.286 79.2459C203.658 79.0365 202.925 78.7224 202.297 78.5129C202.297 78.9318 202.297 79.4553 202.402 79.8742Z" fill="#7C2E44"/>
<path d="M195.283 82.8059C194.55 83.3295 193.712 83.5389 193.188 83.3295C193.188 82.7012 193.398 81.8636 193.817 81.4447C194.026 81.2353 194.34 81.2353 194.654 81.34C194.969 81.4447 195.073 81.6541 195.178 81.9683C195.073 82.2824 195.178 82.4918 195.283 82.8059Z" fill="#2E3F4C"/>
<path d="M203.344 81.1306C203.449 81.1306 203.867 81.6542 203.867 81.7589C203.972 82.1777 203.867 82.4918 203.867 82.9107C203.344 82.9107 203.03 82.9107 202.716 82.9107C202.716 82.4918 202.611 81.8636 202.82 81.5495C202.925 81.4447 203.134 81.1306 203.344 81.1306Z" fill="#2E3F4C"/>
<path d="M198.947 94.5333C197.691 94.5333 196.329 94.1144 195.282 93.3815L195.596 92.9626C197.062 94.0097 199.156 94.3239 200.832 93.6956L201.041 94.2192C200.308 94.4286 199.575 94.5333 198.947 94.5333Z" fill="#2E3F4C"/>
<path d="M199.365 92.0202L199.051 91.6014C199.679 91.0779 200.412 90.8684 201.145 90.659C201.354 90.5543 201.669 90.5543 201.878 90.4496C202.716 90.1355 203.658 89.6119 203.658 88.7743C203.658 88.3554 203.553 87.9366 203.344 87.6225C203.03 86.9942 202.611 86.366 202.297 85.7377C201.878 85.0047 201.354 84.3765 201.04 83.5388C200.412 82.1776 200.203 80.1881 201.25 78.8269L201.669 79.141C200.726 80.2928 201.04 82.0729 201.564 83.2247C201.878 83.9576 202.297 84.6906 202.82 85.3189C203.239 85.9471 203.658 86.5754 203.972 87.2036C204.182 87.6225 204.391 88.146 204.391 88.6695C204.286 89.6119 203.449 90.4496 202.192 90.8684C201.983 90.9732 201.669 90.9731 201.459 91.0779C200.621 91.392 199.888 91.6014 199.365 92.0202Z" fill="#2E3F4C"/>
<path d="M164.287 140.71L147.115 124.899C139.68 118.093 132.141 111.077 127.22 101.968C122.613 93.2769 120.519 82.4919 121.252 70.6597C121.88 59.8747 124.707 49.0897 127.744 39.1423L128.267 39.247C125.335 49.1944 122.508 59.8747 121.88 70.6597C121.147 82.3872 123.241 93.1722 127.744 101.758C132.56 110.763 140.099 117.779 147.534 124.48L164.706 140.291L164.287 140.71Z" fill="#2E3F4C"/>
<path d="M211.721 126.051L211.407 125.632C238.108 107.831 255.699 76.8373 257.375 44.7964H257.898C256.223 76.9421 238.527 108.041 211.721 126.051Z" fill="#2E3F4C"/>
<path d="M153.188 191.913L153.083 191.389C158.423 190.342 163.763 189.609 169.208 189.4V189.923C163.868 190.133 158.423 190.866 153.188 191.913Z" fill="#2E3F4C"/>
<path d="M222.402 298.402H217.795V379.865H222.402V298.402Z" fill="#462B29"/>
<path d="M268.474 379.447C268.578 377.457 268.264 375.468 267.636 373.688C256.432 373.269 245.124 372.85 233.92 372.326C231.407 372.222 228.894 372.117 226.59 371.175C225.753 370.86 224.915 370.337 224.182 369.709V363.74H216.015V369.709C215.282 370.337 214.444 370.86 213.606 371.175C211.303 372.117 208.79 372.222 206.277 372.326C195.073 372.745 183.764 373.164 172.56 373.688C171.932 375.572 171.723 377.562 171.723 379.447H268.474Z" fill="#462B29"/>
<path d="M183.659 379.551C183.659 382.483 181.251 384.892 178.319 384.892C175.387 384.892 172.979 382.483 172.979 379.551C172.979 376.619 175.387 374.211 178.319 374.211C181.251 374.316 183.659 376.724 183.659 379.551Z" fill="#2E3F4C"/>
<path d="M268.056 379.551C268.056 382.483 265.648 384.892 262.716 384.892C259.784 384.892 257.376 382.483 257.376 379.551C257.376 376.619 259.784 374.211 262.716 374.211C265.648 374.316 268.056 376.724 268.056 379.551Z" fill="#2E3F4C"/>
<path d="M226.485 379.551C226.485 382.483 224.077 384.892 221.145 384.892C218.213 384.892 215.805 382.483 215.805 379.551C215.805 376.619 218.213 374.211 221.145 374.211C224.077 374.316 226.485 376.724 226.485 379.551Z" fill="#2E3F4C"/>
<path d="M210.78 203.012C204.812 204.478 198.529 204.164 192.456 205.211C186.383 206.258 180.1 208.98 177.168 214.425C175.493 217.566 175.179 221.231 174.97 224.791C174.341 235.158 174.341 245.524 174.865 255.89C175.074 260.183 175.598 264.895 178.844 267.722C181.252 269.921 184.812 270.445 188.058 270.863C205.23 272.748 222.612 272.015 239.575 268.56C243.763 267.722 248.371 266.466 250.674 262.801C252.664 259.764 252.559 255.89 252.245 252.33C251.407 241.65 249.104 230.969 245.543 220.812C243.659 215.263 241.146 209.609 236.853 205.63C232.455 201.651 225.753 199.766 220.518 202.593L210.78 203.012Z" fill="#2E3F4C"/>
<path d="M221.983 283.01C220.413 277.355 219.994 271.282 220.727 265.523C218.318 266.151 215.805 266.361 213.292 266.361C213.188 272.12 213.188 277.879 213.083 283.638C216.015 282.8 218.947 282.591 221.983 283.01Z" fill="#2E3F4C"/>
<path d="M217.585 298.402C242.567 298.402 262.819 294.23 262.819 289.083C262.819 283.936 242.567 279.764 217.585 279.764C192.603 279.764 172.351 283.936 172.351 289.083C172.351 294.23 192.603 298.402 217.585 298.402Z" fill="#2E3F4C"/>
<path d="M357.059 298.402H352.661V375.258H357.059V298.402Z" fill="#462B29"/>
<path d="M400.408 374.839C400.408 372.955 400.199 371.175 399.675 369.395C389.1 368.976 378.419 368.557 367.844 368.138C365.54 368.033 363.132 367.929 360.933 367.091C360.095 366.777 359.362 366.253 358.629 365.73V360.075H350.986V365.73C350.357 366.358 349.52 366.777 348.682 367.091C346.483 367.929 344.179 368.033 341.771 368.138C331.195 368.557 320.515 368.976 309.94 369.395C309.416 371.175 309.102 373.059 309.207 374.839H400.408Z" fill="#462B29"/>
<path d="M320.411 375.049C320.411 377.771 318.213 380.075 315.385 380.075C312.663 380.075 310.359 377.876 310.359 375.049C310.359 372.222 312.558 370.023 315.385 370.023C318.213 370.023 320.411 372.222 320.411 375.049Z" fill="#2E3F4C"/>
<path d="M400.094 375.049C400.094 377.771 397.895 380.075 395.068 380.075C392.346 380.075 390.042 377.876 390.042 375.049C390.042 372.222 392.241 370.023 395.068 370.023C397.79 370.023 400.094 372.222 400.094 375.049Z" fill="#2E3F4C"/>
<path d="M355.802 380.075C358.578 380.075 360.828 377.825 360.828 375.049C360.828 372.273 358.578 370.023 355.802 370.023C353.027 370.023 350.776 372.273 350.776 375.049C350.776 377.825 353.027 380.075 355.802 380.075Z" fill="#2E3F4C"/>
<path d="M330.358 242.801C332.557 233.901 335.698 225.21 339.991 217.043C342.295 212.645 345.122 208.143 349.52 205.839C355.069 203.117 361.561 204.478 367.739 205.106C371.927 205.525 376.22 205.525 380.409 206.258C384.597 206.991 388.786 208.771 391.508 211.912C395.277 216.31 395.696 222.593 395.696 228.352C395.592 237.042 394.649 245.733 392.974 254.215C391.927 259.241 390.461 264.581 386.691 267.932C381.875 272.225 374.859 272.434 368.367 272.12C360.723 271.806 353.184 271.073 345.645 270.026C341.981 269.502 338.316 268.874 335.279 266.78C331.719 264.267 329.73 259.974 329.206 255.576C328.578 251.388 329.311 246.99 330.358 242.801Z" fill="#462B29"/>
<path d="M375.28 283.114C370.149 282.277 365.018 281.753 359.887 281.544C347.427 281.125 334.653 283.114 323.449 288.664C320.412 290.13 317.166 292.748 317.69 295.994C318.213 299.239 321.983 300.601 325.229 301.229C342.715 304.58 361.144 303.114 377.793 297.041C380.934 295.889 384.599 293.899 384.808 290.549C385.018 288.35 383.447 286.151 381.562 284.999C379.782 283.952 377.583 283.428 375.28 283.114Z" fill="#462B29"/>
<path d="M365.96 264.79C363.865 265.942 361.562 266.466 359.258 266.466C359.258 270.13 359.154 273.9 358.525 277.46C357.897 281.125 356.641 284.685 354.337 287.617C356.85 287.198 359.363 287.303 361.876 287.931C365.227 280.811 366.693 272.748 365.96 264.79Z" fill="#2E3F4C"/>
<path d="M326.273 222.174C326.797 216.101 328.472 210.132 331.09 204.687C332.451 201.86 334.022 199.138 334.65 196.101C335.278 193.065 334.755 189.504 332.451 187.41C331.195 186.363 329.519 185.735 327.949 186.258C326.064 186.887 325.017 188.772 324.179 190.552C321.98 195.054 319.886 199.452 317.687 203.954C315.802 207.933 313.813 211.912 312.138 215.996C311.3 218.09 308.368 220.08 308.787 222.383C309.101 224.373 309.31 227.619 311.09 228.666C312.87 229.713 315.698 232.226 317.687 232.121C319.572 232.016 324.074 228.142 325.121 226.676C325.959 225.42 326.064 223.744 326.273 222.174Z" fill="#AEC9D6"/>
<path d="M322.505 221.545C321.353 210.132 315.071 205.001 315.28 188.038C316.327 186.468 317.165 185.211 317.165 183.536C317.06 182.175 315.908 181.337 316.746 180.29C317.06 179.976 316.955 179.871 317.165 179.452C317.374 179.033 317.27 178.615 317.165 178.196C316.851 176.835 317.374 175.892 317.06 174.531C316.118 173.17 315.175 174.007 314.861 173.484C314.547 173.065 314.233 172.437 313.709 172.437C313.081 172.437 312.662 173.17 312.139 173.065C311.511 172.96 311.301 171.704 310.673 171.599C310.149 171.494 309.731 172.227 309.312 172.332C308.893 172.437 308.474 172.227 308.055 172.123C307.008 171.808 306.38 171.913 305.542 172.751C304.809 175.054 305.647 177.358 304.6 179.243C304.39 179.662 304.076 180.081 304.181 180.499C304.181 180.813 304.286 181.128 304.495 181.337C305.228 183.012 306.066 184.688 307.008 186.258C307.636 190.656 307.008 195.263 306.589 199.766C306.17 204.687 305.961 209.713 306.903 214.53C307.741 219.346 309.731 224.058 312.977 227.409C314.024 228.456 315.28 229.398 316.641 229.922C318.003 230.341 319.678 230.131 320.83 229.189C322.714 227.514 322.819 224.268 322.505 221.545Z" fill="#F5AB7E"/>
<path d="M294.129 303.218C295.385 313.48 296.642 323.741 297.898 334.003C298.736 340.914 299.573 347.929 298.945 354.945C298.317 361.855 296.118 368.871 291.511 374.211C289.207 376.829 286.38 379.028 284.076 381.645C282.715 383.216 283.867 385.729 286.066 385.624C287.951 385.415 289.94 385.206 291.72 384.682C295.071 383.844 298.422 382.169 300.621 379.447C302.086 377.771 303.134 375.677 305.123 374.63C306.379 374.002 307.845 373.897 309.207 373.583C310.568 373.269 312.034 372.326 312.243 370.965C312.557 369.813 311.72 366.672 311.51 365.416C309.94 355.887 309.94 352.013 311.824 341.542C313.604 332.013 314.023 325.312 314.756 315.574C314.966 312.119 313.5 299.763 311.406 297.564C308.788 294.737 311.196 297.459 307.427 297.145C303.657 296.831 299.573 296.936 296.118 295.365L294.129 303.218Z" fill="#F5AB7E"/>
<path d="M288.892 379.656C288.054 379.656 287.321 379.447 286.484 379.028C285.646 379.865 284.808 380.703 284.075 381.541C282.714 383.111 283.866 385.624 286.065 385.52C287.95 385.31 289.939 385.101 291.719 384.577C295.07 383.74 298.421 382.064 300.62 379.342C302.085 377.666 303.133 375.572 305.122 374.525C306.379 373.897 307.844 373.792 309.206 373.478C310.567 373.059 312.033 372.222 312.242 370.86C312.556 369.709 311.719 366.567 311.509 365.311C311.509 365.206 311.509 365.206 311.509 365.101C304.913 371.698 298.735 381.645 288.892 379.656Z" fill="#889FAB"/>
<path d="M305.854 372.64C308.263 371.698 310.357 370.127 311.928 368.138C312.242 370.546 311.404 372.85 310.776 375.153C310.148 377.457 309.624 379.97 310.462 382.169C309.519 382.378 308.472 382.588 307.53 382.797C307.844 379.342 307.216 375.886 305.854 372.64Z" fill="#889FAB"/>
<path d="M323.447 310.025C328.263 320.914 334.86 339.134 335.488 350.966C336.117 362.798 333.708 370.442 325.017 378.609C324.18 379.447 323.237 380.18 322.714 381.227C322.19 382.274 322.19 383.635 323.028 384.473C323.761 385.206 324.913 385.206 325.96 385.206C329.101 385.101 332.556 384.996 335.174 383.216C338.525 380.913 339.991 376.41 343.76 374.63C345.54 373.792 347.844 373.583 348.891 372.012C350.148 370.232 349.31 367.929 348.577 365.834C346.483 359.971 345.436 353.688 345.645 347.406C345.75 339.762 347.635 332.118 347.216 324.474C346.797 316.831 344.179 309.396 339.781 303.114C335.907 304.37 332.033 305.732 328.054 306.988L323.447 310.025Z" fill="#F5AB7E"/>
<path d="M348.787 365.73V365.625C345.751 372.012 338.63 375.049 334.023 379.656C330.882 382.169 326.903 381.646 324.495 379.237C323.866 379.866 323.238 380.494 322.819 381.227C322.296 382.274 322.296 383.635 323.133 384.473C323.866 385.206 325.018 385.206 326.065 385.206C329.206 385.101 332.662 384.996 335.28 383.216C338.63 380.913 340.096 376.41 343.866 374.63C345.646 373.792 347.949 373.583 348.996 372.012C350.253 370.128 349.415 367.719 348.787 365.73Z" fill="#889FAB"/>
<path d="M343.237 372.745C345.646 371.803 347.74 370.232 349.31 368.243C349.625 370.651 348.787 372.955 348.159 375.258C347.53 377.562 347.007 380.075 347.845 382.274C346.902 382.483 345.855 382.693 344.913 382.902C345.227 379.447 344.599 375.887 343.237 372.745Z" fill="#889FAB"/>
<path d="M336.849 256.623C326.797 261.963 320.305 266.885 310.567 272.748C305.122 276.099 299.573 279.659 296.327 285.104C291.405 293.376 292.976 303.847 294.756 313.375C312.661 313.271 334.65 326.778 352.137 308.14C347.739 303.637 345.121 301.543 345.854 295.365C354.231 289.188 365.853 289.711 374.649 284.162C376.534 283.01 377.162 281.125 378.523 279.24C381.665 274.738 380.722 269.816 379.256 264.581C377.686 259.346 377.686 256.623 374.754 252.016L336.849 256.623Z" fill="#EF758A"/>
<path d="M302.621 286.447L302.584 286.97L332.56 289.091L332.597 288.568L302.621 286.447Z" fill="#2E3F4C"/>
<path d="M309.228 291.055L309.134 291.571L315.418 292.717L315.512 292.202L309.228 291.055Z" fill="#2E3F4C"/>
<path d="M330.149 225.315C334.546 231.283 334.337 239.555 333.499 246.99C333.081 251.178 332.557 255.576 332.766 259.764H378.629C371.195 245.314 368.472 228.352 371.823 212.436C372.765 208.143 374.126 203.85 374.545 199.452C374.964 195.054 374.336 190.342 371.613 186.782C357.687 181.651 342.085 181.547 328.159 186.573L327.74 187.829C329.52 194.216 327.217 198.091 324.913 204.269C323.761 207.41 321.772 210.551 322.191 213.797C322.61 218.509 327.322 221.441 330.149 225.315Z" fill="#889FAB"/>
<path d="M330.672 207.41C329.729 199.138 332.033 190.551 336.745 183.745L337.164 184.059C332.452 190.761 330.253 199.242 331.195 207.305L330.672 207.41Z" fill="#2E3F4C"/>
<path d="M330.986 207.619L330.881 207.096C341.771 203.954 351.509 197.986 359.257 189.714C359.99 188.876 360.409 187.934 360.304 186.782C360.199 185.63 359.466 184.478 358.315 183.641L358.629 183.222C359.885 184.164 360.723 185.421 360.828 186.677C360.932 187.934 360.514 189.086 359.676 189.923C351.823 198.405 341.98 204.478 330.986 207.619Z" fill="#2E3F4C"/>
<path d="M353.604 220.289C352.347 223.64 351.091 227.304 352.033 230.76C353.185 234.739 357.269 237.356 361.248 237.147C365.226 236.938 368.787 234.32 371.195 230.969C373.498 227.619 374.755 223.43 375.488 219.347C376.221 215.263 376.535 210.97 377.268 206.886C377.792 203.85 378.525 200.708 378.629 197.567C378.734 194.426 378.106 191.075 376.116 188.771C374.546 186.991 372.242 185.84 369.938 185.944C367.635 185.944 365.331 186.991 363.761 188.876C361.457 191.599 361.038 195.578 360.305 199.242C358.944 206.572 356.221 213.483 353.604 220.289Z" fill="#AEC9D6"/>
<path d="M377.06 187.934C377.374 187.305 377.688 186.573 377.688 185.84C377.583 185.107 377.269 184.478 376.85 183.85C375.699 181.651 376.013 178.405 376.013 175.787C375.699 175.159 375.07 175.159 374.128 175.264C373.604 175.369 373.395 175.369 373.186 174.845C372.872 174.322 372.557 173.693 372.034 173.484C371.615 173.379 371.196 173.065 370.882 173.17C368.788 173.903 369.311 173.274 368.788 173.065C367.95 172.751 366.275 173.484 366.17 174.531C365.542 173.903 364.39 174.426 363.971 175.264C363.448 175.997 363.448 177.149 363.552 178.091C363.657 179.033 363.971 179.976 364.076 180.918C364.495 183.327 363.971 185.944 364.285 188.353C364.39 189.19 364.6 189.923 364.914 190.761C363.029 195.787 360.621 200.604 358.526 205.42C355.804 211.807 353.396 218.613 353.5 225.734C353.5 227.933 353.814 230.131 354.547 232.016C355.28 234.006 356.642 235.786 358.317 236.623C360.306 237.566 362.505 237.356 364.495 236.519C366.589 235.681 368.578 234.215 369.73 232.016C371.406 228.77 371.196 224.791 371.091 221.022C370.777 212.645 371.301 204.164 372.767 195.892C374.233 193.169 375.699 190.656 377.06 187.934Z" fill="#F5AB7E"/>
<path d="M353.812 184.06C353.707 183.955 353.498 183.955 353.393 183.85C350.985 178.72 349.833 173.17 350.042 167.62H335.593C336.221 174.322 336.326 181.023 335.802 187.62C335.279 188.457 334.755 189.295 334.231 190.238C331.928 194.949 331.509 200.29 331.404 205.525C334.546 206.153 336.849 204.583 339.467 202.907C344.912 199.557 349.833 195.368 354.126 190.656C355.069 189.609 356.011 188.353 355.906 186.992C356.011 185.735 355.069 184.688 353.812 184.06Z" fill="#F5AB7E"/>
<path d="M348.158 167.725H335.593C336.116 173.17 336.326 178.615 336.012 184.06C342.818 181.442 347.948 175.997 348.158 167.725Z" fill="#2E3F4C"/>
<path d="M353.707 158.406C353.079 155.16 350.566 152.542 347.948 150.448C345.016 148.04 341.351 145.736 337.686 146.574C334.964 147.202 332.87 149.506 331.299 151.914C330.776 152.752 330.671 155.893 329.833 156.416C324.702 160.186 325.435 167.934 326.064 174.95C330.566 176.73 335.697 176.939 340.409 175.473C345.016 174.007 349.1 170.866 351.717 166.678C353.183 164.165 354.23 161.233 353.707 158.406Z" fill="#F5AB7E"/>
<path d="M359.36 146.05C360.826 145.841 362.292 145.841 363.653 146.155C365.119 146.469 366.376 147.307 367.318 148.459C368.365 149.924 368.47 151.914 368.051 153.694C367.632 155.369 366.794 156.835 365.643 157.987C364.596 159.034 363.339 159.767 362.292 160.605C360.721 161.966 359.36 163.746 357.371 164.165C357.161 164.165 356.952 164.27 356.742 164.06C356.638 163.851 356.638 163.641 356.742 163.432C358.418 158.511 357.999 152.961 355.695 148.354C355.905 147.621 356.533 146.993 357.266 146.679C357.789 146.26 358.627 146.155 359.36 146.05Z" fill="#7C2E44"/>
<path d="M346.273 163.327C345.854 161.547 345.749 159.244 346.064 156.94C343.655 152.333 339.676 149.192 334.65 147.935C332.033 143.956 343.132 143.328 347.739 143.956C352.346 144.584 356.534 147.307 358.838 151.286C361.665 155.265 359.885 161.966 357.267 165.84C354.65 169.714 353.498 169.296 349.205 171.18C349.624 168.563 347.215 167.097 346.273 163.327Z" fill="#7C2E44"/>
<path d="M359.675 159.767C360.303 158.092 360.826 156.312 360.722 154.532C360.617 152.751 359.779 150.971 358.313 150.029C359.779 153.066 359.779 156.521 359.675 159.767Z" fill="#EF7856"/>
<path d="M345.958 165.317C346.691 164.479 347.424 163.746 348.367 163.222C349.309 162.804 350.565 162.804 351.403 163.537C352.031 164.165 352.241 165.003 352.241 165.84C352.345 167.725 351.613 169.61 350.356 171.076C349.728 171.809 348.995 172.332 348.052 172.542C347.11 172.646 346.168 172.123 345.854 171.285L345.958 165.317Z" fill="#F5AB7E"/>
<path d="M329.625 165.735C329.311 165.212 328.787 164.898 328.159 164.479C327.95 164.374 327.845 164.27 327.635 164.165C326.798 163.641 325.96 162.594 326.379 161.652C326.484 161.233 326.798 160.919 327.112 160.709C327.635 160.291 328.159 159.976 328.683 159.558C328.997 159.348 329.311 159.139 329.625 158.929C330.672 158.196 331.3 157.568 331.614 156.835C331.929 156.102 332.033 154.95 331.405 154.217L331.719 153.903C332.452 154.636 332.557 155.893 332.033 157.045C331.614 157.882 330.986 158.615 329.939 159.348C329.625 159.558 329.311 159.767 328.997 159.976C328.473 160.291 327.95 160.605 327.426 161.024C327.217 161.233 326.903 161.442 326.798 161.756C326.588 162.489 327.217 163.222 327.845 163.641C328.054 163.746 328.159 163.851 328.368 163.955C328.997 164.27 329.73 164.688 330.044 165.421L329.625 165.735Z" fill="#2E3F4C"/>
<path d="M329.729 169.924C329.624 169.924 329.624 169.924 329.519 169.924C328.996 169.819 328.577 169.505 328.158 168.981C327.635 168.248 327.321 167.411 327.216 166.468V166.05L327.635 166.259C328.891 167.097 330.252 167.62 331.718 167.725H332.032L331.823 168.039C331.614 168.458 331.299 168.877 330.985 169.296C330.671 169.714 330.148 169.924 329.729 169.924ZM327.739 166.887C327.844 167.515 328.158 168.144 328.472 168.667C328.682 168.981 329.101 169.4 329.519 169.4C329.938 169.4 330.252 169.296 330.671 168.981C330.881 168.772 331.09 168.458 331.299 168.144C330.043 168.039 328.891 167.515 327.739 166.887Z" fill="#2E3F4C"/>
<path d="M331.613 153.275C331.404 152.961 331.09 152.752 330.775 152.647L330.985 152.228C331.404 152.437 331.718 152.647 331.927 153.066L331.613 153.275Z" fill="#2E3F4C"/>
<path d="M340.302 159.244L339.883 159.034C340.197 158.511 340.197 157.882 339.883 157.254C339.569 156.731 339.046 156.312 338.313 156.102C337.58 155.893 336.847 155.788 336.323 155.788V155.265C336.951 155.265 337.684 155.265 338.522 155.579C339.36 155.893 339.988 156.312 340.302 156.94C340.721 157.673 340.721 158.511 340.302 159.244Z" fill="#2E3F4C"/>
<path d="M335.905 157.987C336.428 157.883 337.056 157.987 337.371 158.406C337.685 158.825 337.475 159.348 337.475 159.872C336.952 159.139 336.009 158.825 335.172 159.139C334.962 158.93 334.962 158.615 335.172 158.406C335.381 158.197 335.591 157.987 335.905 157.987Z" fill="#2E3F4C"/>
<path d="M331.298 156.626C330.879 156.416 330.355 156.312 329.937 156.312C329.937 155.997 330.041 155.579 330.251 155.369C330.46 155.16 330.984 155.16 331.193 155.369C331.402 155.683 331.193 156.207 331.298 156.626Z" fill="#2E3F4C"/>
<path d="M260.935 231.702C261.354 233.692 261.668 235.786 261.458 237.775C261.144 239.765 260.097 241.754 258.212 242.592C256.432 243.43 254.338 243.011 252.663 241.964C250.987 240.917 249.731 239.451 248.579 237.88C240.516 227.2 235.805 214.006 235.281 200.604C235.176 197.253 235.281 193.902 236.328 190.761C237.375 187.62 239.574 184.688 242.506 183.327C252.139 197.881 257.479 214.739 260.935 231.702Z" fill="#2B478B"/>
<path d="M264.809 184.478C264.6 183.85 264.704 183.117 264.6 182.384C264.495 181.651 264.285 181.023 263.762 180.604C263.343 180.29 262.715 180.29 262.191 180.081C260.516 179.557 259.364 177.986 258.422 176.416C258.108 177.149 257.061 177.253 256.328 177.044C255.595 176.835 254.966 176.311 254.233 175.892C253.5 175.578 252.663 175.473 252.035 175.892C251.511 176.416 251.302 177.358 250.569 177.463C250.15 177.568 249.731 177.253 249.312 177.149C248.37 176.939 247.637 177.777 247.323 178.615C247.008 179.452 246.799 180.395 246.171 181.023C245.752 181.442 245.228 181.756 244.914 182.279C244.6 182.908 244.914 183.641 245.228 184.269C246.066 186.258 247.008 188.248 247.846 190.133C247.951 190.447 248.265 190.866 248.579 190.761C248.893 190.656 248.998 190.237 248.998 189.923C248.998 188.876 248.684 187.934 248.16 187.096C248.998 188.143 249.626 189.4 250.045 190.656C250.464 192.017 250.778 193.379 251.511 194.635C251.72 195.054 252.035 195.473 252.453 195.787C248.579 208.038 245.647 220.498 248.16 232.645C248.893 236.1 250.778 240.079 254.966 240.707C257.689 241.126 260.621 239.869 262.296 237.985C264.6 235.472 264.809 232.226 264.914 229.189C265.333 216.938 265.018 204.687 263.971 192.541C264.285 191.389 264.809 190.237 265.333 189.086C265.647 188.457 266.066 187.829 266.066 187.096C265.961 186.258 265.123 185.421 264.809 184.478Z" fill="#F5AB7E"/>
<path d="M188.791 190.656C189.209 189.4 189.733 188.457 190.675 187.41C192.351 185.63 194.968 184.688 197.586 184.269C212.245 181.547 227.428 181.233 242.192 183.222C247.113 192.332 242.716 200.394 241.459 210.237C238.004 237.252 245.438 254.843 246.066 264.686C232.035 269.816 195.701 273.691 187.639 262.591C193.188 235.681 186.906 224.687 186.068 215.786C185.44 207.41 186.278 198.928 188.791 190.656Z" fill="#2B478B"/>
<path d="M230.882 185.107C230.568 184.583 230.149 184.269 229.521 183.85C228.579 183.222 227.95 182.594 227.741 182.384C227.636 182.175 227.008 180.918 227.008 180.709C226.589 176.73 226.485 172.332 226.17 167.83C221.563 168.353 214.443 167.725 210.359 165.631C211.197 170.866 210.988 176.206 209.626 181.337C209.417 182.175 209.103 183.117 208.579 183.85C208.16 184.374 206.38 186.049 206.276 186.677C206.066 187.724 207.009 188.457 207.846 188.876C208.998 189.505 210.15 190.028 211.302 190.552C214.967 192.122 218.841 193.169 222.715 193.902C224.6 194.321 226.485 194.635 228.369 194.949C228.998 195.054 229.73 191.703 229.835 191.285C230.254 189.714 230.987 187.934 230.987 186.259C231.196 185.84 231.092 185.421 230.882 185.107Z" fill="#F5AB7E"/>
<path d="M212.768 166.573C213.919 173.903 219.992 178.615 227.113 180.395C226.799 176.521 226.694 172.228 226.38 167.934C222.506 168.353 216.851 167.934 212.768 166.573Z" fill="#2E3F4C"/>
<path d="M205.649 187.62C205.963 188.771 206.8 189.609 207.743 190.237C209.523 191.598 211.617 192.541 213.502 193.588C215.386 194.74 217.271 196.101 218.318 198.09C219.47 196.834 220.622 195.577 222.297 195.159C224.601 194.53 226.904 195.892 229.313 195.892C227.637 193.169 224.601 191.808 221.564 190.761C218.528 189.714 215.387 188.981 212.873 187.096C211.931 186.363 211.093 185.525 210.675 184.374C209.942 182.384 210.779 180.08 210.675 177.882C210.779 178.51 210.36 179.138 209.942 179.662C209.523 180.185 208.895 180.499 208.371 180.918C207.324 181.861 206.486 183.012 206.067 184.374C205.544 185.63 205.334 186.677 205.649 187.62Z" fill="#889FAB"/>
<path d="M228.056 179.976C227.951 179.766 227.951 179.452 227.846 179.243C227.742 179.033 227.428 178.824 227.218 178.929C226.695 180.185 227.218 181.546 227.846 182.594C228.475 183.641 229.312 184.688 229.417 185.944C229.522 187.096 229.103 188.353 228.789 189.504C228.265 191.808 228.37 194.216 229.208 196.31C229.836 194.845 230.464 193.274 231.092 191.808C233.291 192.646 235.49 193.797 237.375 195.159C236.537 191.494 235.7 187.724 233.396 185.002C232.349 183.745 231.092 182.698 229.731 181.861C229.103 181.337 228.265 180.813 228.056 179.976Z" fill="#889FAB"/>
<path d="M190.78 186.363C188.895 186.782 187.429 188.457 186.487 190.028C183.555 194.74 182.822 200.499 182.613 206.153C182.299 220.603 186.068 235.053 193.293 247.513C194.445 249.503 195.806 251.492 198.005 252.12C200.728 252.958 203.659 251.178 205.021 248.665C206.382 246.152 206.487 243.22 206.277 240.393C205.649 229.503 201.565 218.928 201.146 208.038C201.042 204.373 201.356 200.708 200.832 197.043C200.309 193.379 198.843 189.714 195.806 187.62C194.34 186.573 192.56 185.944 190.78 186.363Z" fill="#2B478B"/>
<path d="M202.823 220.812L202.299 220.708C203.87 208.352 199.681 195.578 191.305 187.41L191.619 186.991C200.1 195.368 204.393 208.352 202.823 220.812Z" fill="#2E3F4C"/>
<path d="M219.261 189.818C218.423 189.295 217.586 188.667 216.748 188.143C216.748 187.829 216.748 187.515 216.748 187.201C216.748 186.991 216.748 186.782 216.643 186.677C216.434 186.363 216.015 186.363 215.701 186.258C214.968 185.944 214.759 184.897 214.026 184.583C213.188 184.269 212.35 185.211 211.513 185.002C210.78 184.792 210.57 183.85 209.837 183.641C208.895 183.327 208.162 184.374 207.22 184.688C206.591 184.897 205.858 184.583 205.439 184.059C204.706 185.525 203.869 186.782 202.822 188.038C202.612 188.248 202.403 188.457 202.403 188.771C202.298 189.19 202.403 189.609 202.403 190.028C202.508 191.284 202.193 192.541 201.461 193.588C202.193 193.797 202.926 193.797 203.659 193.483C203.869 193.379 204.183 193.274 204.392 193.379C204.497 193.483 204.602 193.693 204.497 193.902C204.392 195.473 204.078 197.253 204.602 198.719C205.021 199.766 205.754 200.603 206.277 201.546C200.413 213.587 197.063 226.676 196.016 240.079C195.702 243.639 195.702 247.408 197.377 250.55C199.157 253.691 203.241 255.68 206.382 254.005C209.209 252.434 210.047 248.77 210.465 245.524C212.35 232.33 214.235 219.032 216.015 205.839C216.434 204.478 216.957 203.117 217.376 201.755C217.69 200.813 218.005 199.871 218.005 198.928C218.005 198.509 217.9 197.986 217.795 197.567C218.109 197.462 218.423 197.253 218.633 197.148C218.423 194.74 218.528 192.227 219.261 189.818Z" fill="#F5AB7E"/>
<path d="M234.655 155.369C234.236 153.903 232.874 152.856 232.351 151.6C231.932 150.762 232.456 149.61 231.932 148.877C230.571 146.678 229.838 145.003 227.115 143.014L226.801 142.7C222.508 139.977 216.645 139.768 212.142 142.176C207.64 144.584 204.603 149.506 204.394 154.636C204.184 161.338 208.791 167.62 214.76 170.762C220.728 173.903 226.278 176.311 233.084 173.379C234.655 172.437 237.272 170.552 237.272 168.981C237.377 164.793 235.911 159.558 234.655 155.369Z" fill="#F5AB7E"/>
<path d="M217.796 137.359C217.481 137.778 216.958 138.197 216.434 138.302C219.89 137.778 222.822 135.056 223.555 131.6C224.287 133.38 224.706 135.37 224.706 137.255C225.23 135.998 225.858 134.846 226.382 133.59C226.905 135.37 227.533 137.255 227.638 139.139C227.743 141.024 227.429 143.014 226.277 144.48C221.984 145.527 217.691 146.993 213.817 149.191C209.942 151.39 206.487 154.427 204.183 158.301C202.299 153.066 203.66 146.783 207.429 142.804C210.152 139.977 213.921 138.302 217.796 137.359Z" fill="#2E3F4C"/>
<path d="M209.315 169.4C209.524 167.411 207.744 165.526 206.278 164.165C204.812 162.804 203.137 161.547 202.508 159.662C201.775 157.568 202.508 155.369 203.137 153.275C203.451 152.228 203.87 151.076 204.707 150.448C205.336 149.924 206.069 149.715 206.697 149.506C209.524 148.563 212.456 147.83 215.388 146.993C215.911 146.888 216.644 146.678 217.063 147.097C215.911 148.144 214.969 149.296 214.236 150.657C213.817 151.286 213.503 152.019 213.712 152.752C213.817 153.275 214.236 153.694 214.655 154.008C215.597 154.95 216.644 155.893 217.587 156.835C217.901 157.149 218.32 157.568 218.32 158.092C218.32 158.511 218.005 158.825 217.691 159.139C217.377 159.348 216.958 159.558 216.644 159.662C214.759 160.605 213.608 162.385 212.561 164.27C211.513 165.945 210.99 168.039 209.315 169.4Z" fill="#2E3F4C"/>
<path d="M217.166 160.605C216.328 160.291 215.805 159.453 215.176 158.825C214.548 158.196 213.71 157.568 212.873 157.778C212.244 157.987 211.721 158.511 211.512 159.139C210.569 161.233 211.302 163.746 212.663 165.526C213.187 166.259 213.92 166.783 214.758 167.097C215.595 167.411 216.538 167.306 217.166 166.678V160.605Z" fill="#F5AB7E"/>
<path d="M221.879 153.799C221.46 154.217 221.042 154.532 220.832 155.055C220.623 155.579 220.937 156.312 221.46 156.416C222.612 154.95 223.973 153.589 225.439 152.542C225.23 152.019 225.021 151.6 224.811 151.076C223.869 151.914 222.926 152.856 221.879 153.799Z" fill="#2E3F4C"/>
<path d="M230.154 150.239C230.154 150.239 230.258 150.239 230.363 150.239C230.887 150.134 231.306 150.134 231.829 150.029C231.934 150.029 232.038 150.029 232.143 149.924C232.353 149.715 231.934 149.192 232.248 148.982C231.515 148.877 230.782 148.877 230.154 149.087C230.154 149.401 230.154 149.82 230.154 150.134C230.049 150.134 230.049 150.239 230.154 150.239Z" fill="#2E3F4C"/>
<path d="M231.618 161.547L231.408 161.128L234.55 159.348C234.864 159.139 235.073 159.034 235.178 158.825C235.282 158.511 235.073 157.987 234.445 157.464C233.607 156.731 232.874 155.998 232.141 155.265C231.408 154.427 230.675 153.589 230.256 152.542C229.838 151.286 230.047 150.029 230.78 149.192L231.199 149.506C230.571 150.134 230.466 151.286 230.78 152.333C231.094 153.275 231.827 154.113 232.56 154.846C233.293 155.579 234.026 156.312 234.759 157.045C235.073 157.359 236.015 158.092 235.597 159.034C235.387 159.453 234.968 159.663 234.759 159.872L231.618 161.547Z" fill="#2E3F4C"/>
<path d="M225.23 154.951C225.545 154.846 225.859 154.846 226.068 154.951C226.382 155.055 226.592 155.369 226.487 155.684C226.382 155.893 226.173 155.998 225.963 156.102C225.545 156.312 225.021 156.626 224.602 156.835C224.497 156.521 224.393 156.102 224.497 155.788C224.602 155.474 224.916 155.16 225.23 154.951Z" fill="#2E3F4C"/>
<path d="M231.724 151.6C231.305 151.495 230.991 151.914 230.991 152.228C230.991 152.647 231.096 152.961 231.305 153.275C231.724 153.066 232.038 152.752 232.352 152.438C232.248 152.123 232.143 151.705 231.724 151.6Z" fill="#2E3F4C"/>
<path d="M231.095 167.201C231.409 167.515 231.723 167.83 232.142 167.934C232.875 168.144 233.608 167.83 234.236 167.515C234.864 167.201 235.388 166.678 236.016 166.468C236.016 164.793 235.702 163.013 235.073 161.338C233.189 162.28 231.199 163.327 229.314 164.269C229.733 165.421 230.257 166.364 231.095 167.201Z" fill="#2E3F4C"/>
<path d="M235.283 162.28C235.178 161.966 235.073 161.757 235.073 161.442C233.189 162.385 231.199 163.432 229.314 164.374C229.419 164.688 229.629 165.002 229.733 165.317C231.513 164.165 233.398 163.118 235.283 162.28Z" fill="#FFF1DE"/>
<path d="M191.723 302.067C193.084 304.58 194.864 306.883 197.587 307.826C199.995 308.663 202.717 308.035 205.021 306.883C207.325 305.732 209.314 304.161 211.513 302.8C219.68 297.878 230.046 296.936 238.947 300.391C241.041 301.229 243.135 302.276 245.439 302.8C247.638 303.219 250.255 302.904 251.826 301.229C253.292 299.763 253.606 297.564 253.815 295.575C254.758 284.58 252.035 273.376 246.276 263.953C229.837 264.057 213.398 264.057 196.958 264.162C195.597 264.162 194.236 264.162 192.979 264.686C190.048 266.047 189.21 269.712 188.791 272.958C187.639 282.8 187.116 293.376 191.723 302.067Z" fill="#233862"/>
<path d="M167.743 393.897C174.654 394.42 181.565 394.42 188.476 393.687C189.209 391.174 188.685 388.556 187.743 386.148C186.8 383.74 185.544 381.436 184.811 378.923C183.345 373.374 184.915 367.615 186.486 362.065C184.915 362.589 183.24 361.856 181.669 361.332C180.099 360.808 178.214 360.39 176.958 361.437C176.329 361.96 176.015 362.693 175.701 363.426C171.408 373.164 168.686 383.426 167.743 393.897Z" fill="#2E3F4C"/>
<path d="M184.812 379.133C184.812 379.028 184.707 379.028 184.707 378.923C183.241 373.374 184.812 367.615 186.383 362.065C184.812 362.589 183.137 361.856 181.566 361.332C179.995 360.808 178.111 360.39 176.854 361.437C176.226 361.96 175.912 362.693 175.598 363.426C174.027 367.091 172.561 370.965 171.409 374.839C174.236 379.237 179.786 380.18 184.812 379.133Z" fill="#889FAB"/>
<path d="M220.098 278.507C216.119 275.261 210.988 273.481 205.857 272.958C203.763 272.748 201.669 272.748 199.784 273.586C196.433 275.052 194.758 278.821 193.397 282.277C187.428 297.878 182.507 313.794 178.738 330.024C175.91 342.066 176.643 343.217 171.513 364.997C175.596 366.044 181.879 368.138 185.963 369.395C186.8 369.499 191.931 370.965 192.769 371.07C202.716 348.976 208.789 328.035 218.527 304.894C220.098 301.229 226.904 295.889 226.904 291.91C226.904 286.675 224.181 281.753 220.098 278.507Z" fill="#233862"/>
<path d="M243.027 363.531C241.457 365.101 241.143 367.614 241.143 369.813C241.038 375.468 241.457 381.017 242.399 386.567C242.609 387.719 242.923 389.08 243.97 389.708C244.912 390.336 246.064 390.232 247.111 390.127C251.509 389.708 255.907 389.184 260.304 388.766C260.095 383.949 257.477 379.761 255.069 375.572C252.661 371.384 250.462 366.777 251.09 362.065C248.263 361.751 245.122 361.541 243.027 363.531Z" fill="#2E3F4C"/>
<path d="M256.537 378.19C256.013 377.352 255.594 376.515 255.071 375.677C252.662 371.489 250.463 366.881 251.092 362.169C248.265 361.855 245.019 361.541 243.029 363.531C241.458 365.101 241.144 367.614 241.144 369.813C241.04 373.897 241.249 378.085 241.773 382.064C247.113 381.017 251.301 375.991 256.537 378.19Z" fill="#889FAB"/>
<path d="M251.617 365.625C254.967 364.787 256.224 363.531 257.376 362.065C263.658 337.039 263.554 309.71 259.156 284.266C258.842 282.695 258.528 281.125 257.69 279.764C256.329 277.774 253.92 276.727 251.617 276.518C249.208 276.308 246.905 276.832 244.497 277.251L249.627 274.005C247.533 270.968 242.612 271.073 239.68 273.376C236.748 275.68 235.387 279.449 234.444 283.114C230.466 299.03 232.455 315.679 235.387 331.804C237.376 342.798 239.575 350.966 238.005 364.368C243.345 365.939 248.057 366.463 251.617 365.625Z" fill="#233862"/>
<path d="M513.388 253.167H503.859V393.268H513.388V253.167Z" fill="#2E3F4C"/>
<path d="M515.797 253.167H506.269V393.268H515.797V253.167Z" fill="white"/>
<path d="M482.186 253.167H473.076V388.137H482.186V253.167Z" fill="#462B29"/>
<path d="M139.578 253.167H131.306V388.137H139.578V253.167Z" fill="#462B29"/>
<path d="M533.492 248.979H76.4375V254.843H533.492V248.979Z" fill="white"/>
<path d="M506.583 253.691H103.453V259.555H506.583V253.691Z" fill="#462B29"/>
<path d="M109.422 253.167H100.836V393.268H109.422V253.167Z" fill="#2E3F4C"/>
<path d="M107.851 253.167H99.2646V393.268H107.851V253.167Z" fill="white"/>
<path d="M251.093 248.979H191.723L199.785 214.844H259.051L251.093 248.979Z" fill="#2E3F4C"/>
<path d="M251.093 247.618H180.52V249.189H251.093V247.618Z" fill="#2E3F4C"/>
<path d="M352.554 249.084H298.629L291.823 219.975H345.748L352.554 249.084Z" fill="#2E3F4C"/>
<path d="M362.817 247.199H302.295V249.398H362.817V247.199Z" fill="#2E3F4C"/>
</svg>
