<svg width="600" height="351" viewBox="0 0 600 351" fill="none" xmlns="http://www.w3.org/2000/svg">
<path d="M33.485 349.531C33.485 349.531 -19.7746 282.041 34.2431 198.177C84.3188 120.378 161.858 157.697 210.721 86.3085C334.567 -94.5879 598.916 44.4849 559.258 198.221C540.068 272.62 617.673 275.327 578.123 349.682L33.485 349.531Z" fill="#F4F4F4"/>
<path d="M489.323 200.148L350.337 329.431L278.775 261.66C265.39 274.785 244.684 295.015 223.869 315.331C209.639 329.215 198.139 340.434 188.803 349.509L123.805 349.444C141.825 332.377 214.404 261.465 263.311 213.534L278.255 198.87L350.597 267.378L456.791 168.613L489.323 200.148Z" fill="#DBDBDB"/>
<path d="M439.593 153.062L505.09 221.981L518.194 143.315L439.593 153.062Z" fill="#DBDBDB"/>
<path d="M599.349 350.267H0.67143C0.303227 350.267 0 349.964 0 349.596V349.358C0 348.99 0.303227 348.686 0.67143 348.686H599.328C599.696 348.686 599.999 348.99 599.999 349.358V349.596C600.021 349.964 599.717 350.267 599.349 350.267Z" fill="#2E3552"/>
<path d="M349.99 148.297L340.46 166.36L335.587 164.584L337.168 169.414L327.617 198.178C327.638 198.156 322.353 161.639 349.99 148.297Z" fill="#233862"/>
<path d="M334.112 164.281C334.112 164.281 323.585 203.094 322.567 240.131C322.567 240.131 331.296 243.185 345.028 240.759C358.803 238.333 334.112 164.281 334.112 164.281Z" fill="#233862"/>
<path d="M283.691 218.082C286.506 218.039 290.492 218.385 291.813 216.934C293.307 215.31 295.062 215.548 295.062 215.548L294.715 213.685L294.282 211.454C294.282 211.454 294.13 211.26 293.545 211.26C293.545 211.26 291.488 211.346 290.513 211C288.131 210.155 278.666 215.83 278.991 217.389C279.121 217.996 282.499 218.125 283.691 218.082Z" fill="#E2915A"/>
<path d="M335.304 163.501C335.304 163.501 319.32 196.531 314.36 200.083C309.4 203.636 291.77 211.303 291.77 211.303C291.77 211.303 291.315 212.407 291.727 214.01C292.181 215.678 293.048 216.154 293.048 216.154C293.048 216.154 317.717 213.945 323.457 210.393C329.197 206.819 341.846 192.589 341.846 192.589L335.304 163.501Z" fill="#233862"/>
<path d="M382.109 348.73H391.574C392.765 348.08 393.826 346.607 394.173 344.398C394.628 341.344 398.05 339.676 398.786 337.185C399.523 334.695 395.732 331.186 395.732 331.186L395.104 330.363L394.455 329.518L388.173 330.991C388.173 330.991 388.022 332.485 387.914 334.391C387.849 335.756 387.805 337.359 387.892 338.745C388.087 342.08 386.961 345.654 384.015 346.304C381.806 346.78 381.914 348.08 382.109 348.73Z" fill="#233862"/>
<path d="M327.181 348.73H348.819C349.858 347.452 349.468 342.773 349.317 341.236C349.273 340.932 349.252 340.737 349.252 340.737C349.252 340.737 341.866 334.824 340.848 339.351C340.826 339.503 340.783 339.633 340.74 339.763C339.462 344.008 333.722 345.914 330.408 346.455C328.264 346.824 327.463 347.95 327.181 348.73Z" fill="#233862"/>
<path d="M331.295 227.894C331.295 227.894 332.422 241.907 333.743 258.736C335.541 281.608 337.685 309.7 337.901 315.006C338.27 324.255 339.742 339.026 339.742 339.026C339.742 339.026 343.251 342.535 350.269 341.062C350.269 341.062 356.528 319.966 358.304 297.636C358.326 297.268 358.369 296.899 358.391 296.531C360.059 273.811 362.636 225.944 362.636 225.944L331.295 227.894Z" fill="#F99746"/>
<path d="M331.295 227.894C331.295 227.894 332.422 241.907 333.743 258.736L358.326 297.636C358.348 297.268 358.391 296.899 358.413 296.531C360.08 273.811 362.658 225.944 362.658 225.944L331.295 227.894Z" fill="#ED7D2B"/>
<path d="M336.43 229.561C336.43 229.561 356.659 280.287 369.958 304.112C383.257 327.937 387.415 334.586 387.415 334.586C387.415 334.586 395.039 331.532 395.732 329.453C395.732 329.453 390.642 283.449 381.74 272.23C376.715 265.884 370.803 246.867 370.521 240.218C370.239 233.568 368.723 220.4 368.723 220.4L336.43 229.561Z" fill="#F99746"/>
<path d="M341.455 155.617C349.36 158.108 363.049 151.372 363.049 151.372C363.049 151.372 355.75 145.892 356.139 134.521L350.032 139.438L345.873 142.774C345.873 142.774 345.895 144.745 346.35 148.21C346.436 148.838 346.523 149.531 346.653 150.246C346.739 150.831 346.479 151.416 345.981 151.719C343.101 153.538 341.455 155.617 341.455 155.617Z" fill="#FFB27D"/>
<path d="M330.43 229.063C330.668 229.258 330.95 229.388 331.253 229.388C334.22 229.345 342.884 230.991 350.205 230.255C356.377 229.67 361.835 227.829 367.705 225.208C368.485 224.861 370.282 223.908 370.239 223.02C370.218 222.067 370.109 220.681 370.001 218.949C369.589 212.884 368.853 202.466 369.568 190.445C369.698 188.214 369.763 185.983 369.763 183.796C369.828 167.508 366.6 153.17 360.103 148.318C360.103 148.318 355.576 150.852 352.435 151.849C349.36 152.823 347.779 152.629 346.198 151.567C346.198 151.567 343.1 153.105 341.779 154.556C338.704 157.892 336.321 162.332 334.74 168.721C333.397 174.136 332.141 182.041 331.686 192.178C331.513 196.77 330.235 228.912 330.43 229.063Z" fill="white"/>
<path d="M368.831 175.219L360.125 148.297C360.125 148.297 339.224 156.181 338.271 185.68C337.881 192.395 336.278 219.945 339.202 242.774C339.202 242.774 355.49 249.12 375.437 236.601L368.831 175.219Z" fill="#2B478B"/>
<path d="M345.874 142.817C345.874 142.817 345.895 144.788 346.35 148.253C350.942 147.474 356.162 140.023 356.162 140.023C353.822 139.352 351.765 139.222 350.032 139.482L345.874 142.817Z" fill="#ED975D"/>
<path d="M342.452 142.6C342.452 142.6 356.682 144.961 358.025 136.081C359.368 127.201 362.097 121.504 353.065 119.62C344.033 117.736 341.759 120.855 340.589 123.714C339.42 126.573 338.792 141.756 342.452 142.6Z" fill="#FFB27D"/>
<path d="M404.939 257.61L375.872 261.747C372.082 262.288 368.552 259.624 368.01 255.855L366.212 243.25C365.671 239.459 368.335 235.929 372.104 235.388L401.17 231.251C404.961 230.709 408.491 233.373 409.032 237.142L410.83 249.748C411.372 253.538 408.708 257.068 404.939 257.61Z" fill="#233862"/>
<path d="M370.047 242.708L371.867 255.444C372.213 257.913 373.838 259.906 375.982 260.837C376.697 261.14 377.455 261.357 378.256 261.4C378.754 261.444 379.252 261.422 379.772 261.357L408.795 257.22C412.586 256.679 415.25 253.126 414.708 249.336L412.889 236.601C412.348 232.81 408.795 230.146 405.005 230.688L395.02 232.117L394.63 229.388C394.457 228.132 393.288 227.266 392.031 227.439L390.927 227.59L384.841 228.457L383.324 228.673C382.718 228.76 382.176 229.085 381.808 229.561C381.44 230.06 381.288 230.666 381.375 231.272L381.765 234.002L375.982 234.825C375.744 234.868 375.527 234.911 375.311 234.955C373.08 235.496 371.304 237.12 370.502 239.156C370.026 240.239 369.852 241.452 370.047 242.708ZM393.569 232.312L383.194 233.785L382.805 231.056C382.74 230.579 383.064 230.146 383.541 230.081L386.14 229.713L390.927 229.02L392.226 228.847C392.313 228.825 392.4 228.847 392.486 228.847C392.854 228.912 393.136 229.193 393.201 229.583L393.569 232.312Z" fill="#2B478B"/>
<path d="M382.824 220.096C382.824 220.096 384.34 222.132 384.405 222.934C384.817 228.435 382.304 229.193 388.824 232.269C388.824 232.269 391.596 233.33 391.661 231.164C391.704 228.998 389.733 228.977 390.102 225.944C390.513 222.457 390.47 222.414 388.196 220.595L386.68 218.082L382.824 220.096Z" fill="#FFB27D"/>
<path d="M386.703 221.656C384.255 222.132 381.591 221.938 381.591 221.938C381.591 221.938 374.314 199.434 373.361 197.376C372.429 195.319 351.723 170.974 351.723 170.974L360.127 148.297C360.127 148.297 365.043 151.177 370.263 160.166C376.696 171.277 383.779 189.146 385.035 192.048C388.803 200.733 390.103 220.205 390.103 220.205C390.103 220.205 388.63 221.288 386.703 221.656Z" fill="#2B478B"/>
<path d="M358.046 135.215C358.046 135.215 356.595 134.976 356.811 132.962C357.049 130.948 357.049 128.327 355.403 128.804C353.757 129.302 353.692 130.601 353.021 129.843C352.349 129.085 352.328 125.858 347.476 125.62C342.603 125.403 340.632 127.093 338.358 126.096C336.083 125.1 335.975 121.678 335.975 121.678C335.975 121.678 336.625 122.912 337.6 123.281C337.6 123.281 333.831 118.104 338.206 114.574C342.581 111.021 347.043 113.361 349.577 113.512C355.143 113.859 358.76 114.184 360.58 117.844C362.377 121.526 361.619 131.706 358.046 135.215Z" fill="#2B478B"/>
<path d="M385.229 222.522C385.229 222.522 383.756 224.06 383.67 224.688C383.367 226.746 382.695 227.612 383.042 227.85C383.756 228.305 384.688 226.789 385.143 225.446C385.597 224.082 385.229 222.522 385.229 222.522Z" fill="#FFB27D"/>
<path d="M360.124 148.297L350.594 166.36L345.721 164.584L347.302 169.414L337.751 198.178C337.751 198.156 332.466 161.639 360.124 148.297Z" fill="#233862"/>
<path d="M341.455 137.554C341.455 137.554 342.018 139.027 343.404 139.048C344.79 139.092 345.851 137.749 345.851 137.749C345.851 137.749 342.841 137.056 341.455 137.554Z" fill="white"/>
<path d="M267.165 273.854L296.079 267.162C299.848 266.295 302.209 262.505 301.342 258.736L298.44 246.217C297.574 242.449 293.783 240.088 290.015 240.954L261.1 247.647C257.331 248.513 254.97 252.303 255.837 256.072L258.739 268.591C259.605 272.36 263.396 274.721 267.165 273.854Z" fill="#F99746"/>
<path d="M292.915 243.878C291.399 242.254 289.146 241.366 286.85 241.669C286.634 241.69 286.395 241.734 286.179 241.799L280.418 243.142L279.789 240.434C279.659 239.828 279.291 239.308 278.75 238.983C278.23 238.658 277.602 238.55 276.995 238.68L275.501 239.026L269.458 240.434L268.375 240.694C267.119 240.976 266.339 242.232 266.642 243.488L267.27 246.196L257.329 248.491C253.56 249.358 251.178 253.17 252.044 256.96L254.99 269.631C255.856 273.399 259.668 275.782 263.437 274.915L292.287 268.223C292.807 268.114 293.283 267.941 293.738 267.725C294.474 267.378 295.102 266.923 295.665 266.36C297.333 264.692 298.135 262.223 297.572 259.776L294.626 247.105C294.323 245.827 293.738 244.744 292.915 243.878ZM268.029 243.142C267.942 242.773 268.115 242.384 268.44 242.189C268.505 242.145 268.592 242.102 268.678 242.08L269.956 241.777L274.721 240.672L277.32 240.066C277.797 239.958 278.252 240.239 278.36 240.716L278.988 243.423L268.657 245.806L268.029 243.142Z" fill="#ED7D2B"/>
<path d="M273.964 227.569C273.964 227.569 273.097 230.666 273.401 231.662C275.436 238.355 278.945 242.73 269.502 241.604C269.502 241.604 269.892 241.214 268.094 237.813C266.015 233.893 266.036 233.828 267.921 230.644L268.571 227.006L273.964 227.569Z" fill="#FFB27D"/>
<path d="M285.832 219.62C282.973 219.447 279.508 218.71 278.252 217.194C276.822 215.483 275.393 215.028 275.393 215.028L275.826 213.165L276.346 210.935C276.346 210.935 276.519 210.74 277.104 210.761C277.104 210.761 279.335 211.259 280.179 210.631C281.002 209.982 282.518 210.371 283.45 211C284.641 211.779 286.244 211.671 286.2 212.039C286.2 212.039 283.84 213.187 284.056 213.382C286.222 215.288 291.897 216.068 291.529 217.562C291.377 218.147 287.045 219.685 285.832 219.62Z" fill="#FFB27D"/>
<path d="M246.11 146.802V148.362C246.11 148.362 246.522 153.213 240.565 153.906C234.609 154.621 229.714 154.513 229.866 150.788C230.407 147.885 231.36 143.402 231.404 140.998C231.425 140.11 231.36 139.157 231.187 138.095L242.753 137.857L246.153 138.42L246.11 146.802Z" fill="#FFB27D"/>
<path d="M246.153 138.42L246.11 146.802C244.875 147.365 243.489 147.712 241.951 147.712C236.645 147.712 233.201 143.813 231.403 140.998C231.425 140.11 231.36 139.157 231.187 138.095L242.752 137.857L246.153 138.42Z" fill="#E2915A"/>
<path d="M230.3 136.233C231.643 143.445 240.956 143.207 244.985 142.752C246.111 142.622 246.826 142.492 246.826 142.492C248.104 142.145 248.818 140.131 249.143 137.51C249.793 132.291 248.97 124.645 248.082 122.674C246.761 119.728 244.248 116.544 234.87 118.84C225.513 121.136 228.589 126.984 230.3 136.233Z" fill="#FFB27D"/>
<path d="M222.676 349.964H235.866C235.758 349.271 235.433 347.17 234.805 345.221C234.588 344.549 234.35 343.9 234.047 343.315C232.769 340.759 224.603 342.383 224.603 342.383C224.603 342.383 223.845 343.033 223.261 345.502C223.044 346.607 222.806 348.058 222.676 349.964Z" fill="#233862"/>
<path d="M262.569 345.806C262.613 347.603 262.829 349.293 263.479 349.964H289.578C289.253 349.011 288.3 347.603 285.636 347.17C282.582 346.672 277.839 345.221 275.066 342.275C274.07 341.236 273.334 340.001 273.031 338.571C271.796 333.092 262.872 340.239 262.872 340.239C262.872 340.239 262.504 343.142 262.569 345.806Z" fill="#233862"/>
<path d="M245.2 286.676C245.568 288.669 245.785 290.315 245.85 291.506C246.673 307.707 259.474 344.723 261.769 345.589C265.321 346.932 270.888 344.094 273.812 343.163C275.025 342.773 275.848 341.56 275.566 340.326C269.22 311.194 266.903 269.241 266.058 244.398C265.625 231.879 263.48 223.237 263.48 223.237C263.48 223.237 232.27 214.898 232.075 225.446C231.923 234.738 242.428 271.298 245.2 286.676Z" fill="#2B478B"/>
<path d="M245.2 286.676L266.058 244.354C265.625 231.836 263.48 223.194 263.48 223.194C263.48 223.194 232.27 214.855 232.075 225.403C231.923 234.738 242.428 271.298 245.2 286.676Z" fill="#233862"/>
<path d="M252.154 225.446L235.649 345.047C235.649 345.047 228.394 346.802 222.762 345.394C222.762 345.394 217.932 281.781 218.344 266.403C218.755 251.025 214.878 225.251 219.232 222.414C223.585 219.577 252.154 225.446 252.154 225.446Z" fill="#2B478B"/>
<path d="M248.47 123.8C245.893 124.602 240.435 123.779 238.161 125.62C235.886 127.461 238.052 130.493 235.453 131.598C234.933 131.814 234.305 131.663 233.959 131.229C233.244 130.32 232.248 129.432 231.338 129.8C230.58 130.103 230.558 131.078 230.883 132.009C231.165 132.789 231.078 133.677 230.601 134.37C230.385 134.673 230.255 134.998 230.32 135.323C230.537 136.514 231.121 138.074 231.338 138.853L231.403 139.676C231.403 139.676 227.049 134.955 225.208 130.991C223.952 128.262 223.974 118.082 230.147 115.093C230.125 115.072 230.103 115.05 230.082 115.028C229.952 114.79 229.584 114.833 229.584 114.833C230.103 114.595 230.926 114.747 230.926 114.747C230.905 114.725 230.948 114.704 231.013 114.639C231.121 113.924 231.836 113.404 231.836 113.404C231.598 113.75 231.49 114.119 231.446 114.379C233.071 113.534 238.052 111.628 242.016 113.361C244.68 114.53 247.149 115.137 248.817 115.462C250.181 115.721 251.156 116.956 251.113 118.342C250.983 120.313 250.311 123.129 248.47 123.8Z" fill="#233862"/>
<path d="M228.458 152.845L232.248 234.37C232.248 234.37 263.957 234.89 263.047 227.72C262.138 220.551 251.612 155.358 251.612 155.358" fill="#E9F3FE"/>
<path d="M238.918 203.917C238.918 203.917 237.315 225.685 234.218 239.351C234.218 239.351 215.721 240.326 211.324 233.179C211.324 233.179 214.811 203.766 214.811 197.809C214.811 195.708 214.66 192.871 214.4 189.666C214.01 184.836 213.425 179.248 212.862 174.374C212.082 167.595 211.346 162.202 211.346 162.202L226.594 149.813L238.918 203.917Z" fill="#22407A"/>
<path d="M275.632 229.67C275.632 229.67 272.189 231.836 266.752 231.099C264.781 235.951 260.103 237.597 260.103 237.164C260.103 237.12 259.063 228.002 257.807 217.259C257.677 216.176 257.569 215.093 257.439 214.01C257.439 213.924 257.417 213.815 257.395 213.729C257.179 211.931 256.984 210.112 256.767 208.292C255.273 195.362 253.843 182.973 253.843 182.973C250.594 163.111 247.844 149.986 247.844 149.986C254.775 150.701 259.431 153.17 261.294 156.397C266.817 165.97 270.824 189.925 273.163 207.859C273.163 207.902 273.163 207.946 273.185 207.989C273.596 211.086 273.943 213.989 274.246 216.631C274.268 216.804 274.289 216.956 274.311 217.107C275.177 224.623 275.632 229.67 275.632 229.67Z" fill="#22407A"/>
<path d="M243.533 137.402C243.533 137.402 243.836 138.333 246.176 137.987C246.176 137.987 248.147 137.705 247.995 136.666C247.995 136.687 246.024 136.103 243.533 137.402Z" fill="white"/>
<path d="M227.569 149.726C227.525 148.946 231.207 147.864 231.207 147.864C231.207 147.864 235.431 153.711 242.384 153.82C242.384 153.82 240.413 157.675 238.073 158.671C238.052 158.671 227.785 154.34 227.569 149.726Z" fill="#D9E9F9"/>
<path d="M242.364 153.69C242.364 153.69 246.046 151.502 246.068 149.141C246.068 149.141 248.45 148.838 249.49 149.986C249.49 149.986 250.356 154.036 249.209 156.397C249.209 156.397 243.902 155.596 242.364 153.69Z" fill="#D9E9F9"/>
<path d="M239.872 153.322L244.854 152.13C244.854 152.13 245.504 152.195 245.482 152.997C245.46 153.82 244.074 156.181 243.468 156.376C242.861 156.57 238.703 154.968 239.872 153.322Z" fill="#BA4C43"/>
<path d="M228.133 149.315C228.09 148.535 230.581 146.932 230.581 146.932C230.581 146.932 235.411 152.564 242.363 152.672C242.363 152.672 240.392 156.527 238.053 157.524C238.053 157.524 228.372 153.928 228.133 149.315Z" fill="#E9F3FE"/>
<path d="M242.364 152.672C242.364 152.672 246.09 150.701 246.09 148.34C246.09 148.34 248.342 149.336 249.382 150.484C249.382 150.484 250.335 153.04 249.187 155.401C249.209 155.401 243.902 154.6 242.364 152.672Z" fill="#E9F3FE"/>
<path d="M251.502 221.028C251.307 223.367 250.419 225.555 248.99 227.157L246.759 229.692C246.196 230.32 245.329 230.255 244.875 229.518L242.167 225.295C241.452 224.168 241.106 222.717 241.236 221.266C241.517 218.039 242.059 211.801 242.492 205.802C242.86 200.928 243.142 196.207 243.185 193.326C243.337 184.143 242.124 154.903 242.124 154.903L243.922 154.989C243.922 154.989 248.275 166.295 250.463 181.738C251.004 185.529 251.416 189.579 251.589 193.781C251.589 193.759 252.369 210.48 251.502 221.028Z" fill="#C65447"/>
<path d="M251.502 221.028C251.307 223.367 250.419 225.555 248.99 227.157L246.759 229.691C246.196 230.32 245.329 230.255 244.875 229.518L242.167 225.295C241.452 224.168 241.106 222.717 241.236 221.266C241.517 218.039 242.059 211.801 242.492 205.801C247.517 198.914 249.618 189.449 250.463 181.738C251.004 185.529 251.416 189.579 251.589 193.781C251.589 193.759 252.369 210.48 251.502 221.028Z" fill="#BA4C43"/>
<path d="M230.602 146.932C230.602 146.932 240.478 188.323 238.919 203.917C238.919 203.917 235.28 187.261 226.551 173.616C226.551 173.616 229.735 170.8 229.562 169.782C229.562 169.782 227.201 169.089 224.905 169.544C224.905 169.544 225.165 151.697 226.595 149.813C228.003 147.928 230.602 146.932 230.602 146.932Z" fill="#233862"/>
<path d="M246.11 148.34C244.637 148.47 255.9 188.777 256.745 201.708C256.745 201.708 255.748 178.641 255.857 171.992C255.857 171.992 251.742 169.826 251.742 169.046C251.742 168.288 256.117 166.23 256.117 166.23C256.117 166.23 253.344 152.022 251.828 150.463C250.312 148.903 246.11 148.34 246.11 148.34Z" fill="#233862"/>
<path d="M266.751 232.745C266.751 232.745 266.058 233.677 266.491 235.994C266.924 238.312 266.686 239.611 267.292 239.2C267.899 238.788 269.133 235.994 269.133 235.994L266.751 232.745Z" fill="#FFB27D"/>
<path d="M237.705 210.285C226.204 208.574 218.515 197.809 214.379 189.665C213.989 184.835 213.404 179.247 212.841 174.374L215.527 166.685L237.705 210.285Z" fill="#233862"/>
<path d="M274.332 217.108C272.036 217.627 265.083 218.927 257.806 217.259C257.676 216.176 257.568 215.093 257.438 214.01C257.438 213.924 257.416 213.815 257.395 213.729C257.633 212.797 257.871 211.866 258.109 210.935C262.224 212.408 271.43 215.635 274.267 216.631C274.289 216.783 274.31 216.956 274.332 217.108Z" fill="#233862"/>
<path d="M226.574 149.813C226.574 149.813 216.459 151.091 211.845 157.523C207.232 163.956 217.13 199.044 237.706 210.285C247.604 215.7 276.151 216.913 276.151 216.913C276.151 216.913 277.711 217.064 278.339 213.902C278.555 212.797 278.339 210.913 278.339 210.913C278.339 210.913 245.85 198.719 242.991 196.38C240.132 194.062 226.574 149.813 226.574 149.813Z" fill="#22407A"/>
<path d="M290.513 211.021C290.513 211.021 287.112 210.177 286.138 209.96C284.99 209.722 283.95 208.855 283.625 209.267C283.019 210.025 285.618 211.324 286.636 213.642C287.134 214.768 288.152 215.396 290.188 214.552C291.228 214.14 292.029 212.018 290.513 211.021Z" fill="#E2915A"/>
</svg>
