<svg width="622" height="360" viewBox="0 0 622 360" fill="none" xmlns="http://www.w3.org/2000/svg">
<path d="M31.857 360C31.857 360 -34.5966 199.42 96.3829 199.42C165.587 199.42 137.073 155.354 184.11 104.38C231.147 53.4051 395.694 12.6467 430.696 111.102C465.721 209.557 379.169 284.325 462.806 271.495C563.297 256.077 603 360 603 360H31.857Z" fill="#E9E9E9"/>
<path d="M559.9 88.8998C574.425 74.3747 574.425 50.825 559.9 36.2999C545.375 21.7749 521.825 21.7749 507.3 36.2999C492.775 50.825 492.775 74.3747 507.3 88.8998C521.825 103.425 545.375 103.425 559.9 88.8998Z" fill="#FDE9E7"/>
<path d="M533.596 96.1848C552.14 96.1848 567.172 81.1521 567.172 62.6084C567.172 44.0647 552.14 29.032 533.596 29.032C515.052 29.032 500.02 44.0647 500.02 62.6084C500.02 81.1521 515.052 96.1848 533.596 96.1848Z" fill="white"/>
<path d="M534.434 31.5645H532.715V37.3075H534.434V31.5645Z" fill="#F1DBD8"/>
<path d="M534.435 87.9094H532.716V93.6525H534.435V87.9094Z" fill="#F1DBD8"/>
<path d="M564.617 63.4525V61.7341H558.874V63.4525H564.617Z" fill="#F1DBD8"/>
<path d="M508.287 63.4601V61.7417H502.544V63.4601H508.287Z" fill="#F1DBD8"/>
<path d="M547.774 62.6084L535.293 61.591L534.728 61.9301C534.615 61.7266 534.456 61.5684 534.253 61.4553L535.203 59.85L533.597 39.885L531.969 59.85L532.919 61.4553C532.534 61.6814 532.263 62.111 532.263 62.6084C532.263 63.3546 532.851 63.9425 533.597 63.9425C534.095 63.9425 534.524 63.6711 534.75 63.2868L535.316 63.6259L547.774 62.6084Z" fill="#E9C9C5"/>
<path d="M387.229 134.353H356.201C354.995 134.353 354 133.358 354 132.152V122.201C354 120.995 354.995 120 356.201 120H387.229C388.435 120 389.43 120.995 389.43 122.201V132.152C389.43 133.388 388.435 134.353 387.229 134.353Z" fill="#DEDEDE"/>
<path d="M428.116 134.353H397.088C395.882 134.353 394.887 133.358 394.887 132.152V122.201C394.887 120.995 395.882 120 397.088 120H428.116C429.322 120 430.317 120.995 430.317 122.201V132.152C430.317 133.388 429.352 134.353 428.116 134.353Z" fill="#DEDEDE"/>
<path d="M276.229 167.349H245.201C243.995 167.349 243 166.354 243 165.148V155.197C243 153.991 243.995 152.996 245.201 152.996H276.229C277.435 152.996 278.43 153.991 278.43 155.197V165.148C278.43 166.384 277.435 167.349 276.229 167.349Z" fill="#DEDEDE"/>
<path d="M317.116 167.349H286.088C284.882 167.349 283.887 166.354 283.887 165.148V155.197C283.887 153.991 284.882 152.996 286.088 152.996H317.116C318.322 152.996 319.317 153.991 319.317 155.197V165.148C319.317 166.384 318.353 167.349 317.116 167.349Z" fill="#DEDEDE"/>
<path d="M335.662 185.954H304.634C303.428 185.954 302.433 184.959 302.433 183.752V173.802C302.433 172.596 303.428 171.601 304.634 171.601H335.662C336.868 171.601 337.863 172.596 337.863 173.802V183.752C337.863 184.959 336.868 185.954 335.662 185.954Z" fill="#DEDEDE"/>
<path d="M294.713 185.712H263.686C262.479 185.712 261.484 184.717 261.484 183.511V173.561C261.484 172.354 262.479 171.359 263.686 171.359H294.713C295.92 171.359 296.915 172.354 296.915 173.561V183.511C296.915 184.717 295.92 185.712 294.713 185.712Z" fill="#DEDEDE"/>
<path d="M276.348 204.046H245.32C244.114 204.046 243.119 203.051 243.119 201.844V191.894C243.119 190.688 244.114 189.693 245.32 189.693H276.348C277.554 189.693 278.549 190.688 278.549 191.894V201.844C278.549 203.051 277.585 204.046 276.348 204.046Z" fill="#DEDEDE"/>
<path d="M73.2291 274.353H42.2012C40.9951 274.353 40 273.358 40 272.152V262.201C40 260.995 40.9951 260 42.2012 260H73.2291C74.4352 260 75.4303 260.995 75.4303 262.201V272.152C75.4303 273.388 74.4352 274.353 73.2291 274.353Z" fill="#DEDEDE"/>
<path d="M114.117 274.353H83.0889C81.8828 274.353 80.8877 273.358 80.8877 272.152V262.201C80.8877 260.995 81.8828 260 83.0889 260H114.117C115.323 260 116.318 260.995 116.318 262.201V272.152C116.318 273.388 115.353 274.353 114.117 274.353Z" fill="#DEDEDE"/>
<path d="M94.1783 292.958H63.1504C61.9443 292.958 60.9492 291.963 60.9492 290.757V280.806C60.9492 279.6 61.9443 278.605 63.1504 278.605H94.1783C95.3844 278.605 96.3795 279.6 96.3795 280.806V290.757C96.3795 291.963 95.3844 292.958 94.1783 292.958Z" fill="#DEDEDE"/>
<path d="M53.2291 292.717H22.2012C20.9951 292.717 20 291.721 20 290.515V280.565C20 279.359 20.9951 278.364 22.2012 278.364H53.2291C54.4352 278.364 55.4303 279.359 55.4303 280.565V290.515C55.4303 291.721 54.4352 292.717 53.2291 292.717Z" fill="#DEDEDE"/>
<path d="M73.3482 311.05H42.3203C41.1142 311.05 40.1191 310.055 40.1191 308.849V298.898C40.1191 297.692 41.1142 296.697 42.3203 296.697H73.3482C74.5544 296.697 75.5494 297.692 75.5494 298.898V308.849C75.5494 310.055 74.5845 311.05 73.3482 311.05Z" fill="#DEDEDE"/>
<path d="M565.336 340.046C558.285 334.889 543.888 338.363 533.258 342.104C531.682 339.859 529.732 337.561 527.408 335.317C550.299 320.568 581.923 289.093 565.149 286.447C550.592 284.123 530.934 312.445 520.41 329.679C509.513 322.331 492.793 316.934 467.258 318.804C401.018 323.667 349.255 280.916 311.113 295.185C280.771 306.514 252.993 312.873 226.177 310.708C227.325 291.123 227.592 252.647 212.207 248.666C196.609 244.605 211.914 288.291 220.407 310.094C218.404 309.827 216.428 309.533 214.424 309.185C208.922 298.311 199.841 284.096 189.851 283.615C180.45 283.161 192.042 295.959 203.447 306.781C170.674 299.887 131.785 326.553 131.144 358.082H540.416C540.416 358.082 539.695 353.486 536.49 347.421C552.329 347.073 572.975 345.657 565.336 340.046Z" fill="#A8D29F"/>
<path d="M220.569 333.546H112.683V357.913H220.569V333.546Z" fill="#4A75CB"/>
<path d="M187.306 333.546H79.4189V357.913H187.306V333.546Z" fill="#699DEE"/>
<path d="M263.035 357.914H343.375V245.619H263.035V357.914Z" fill="#D86713"/>
<path d="M238.256 357.914H318.597V245.619H238.256V357.914Z" fill="#F1A34F"/>
<path d="M318.597 245.617L343.364 262.476V245.617H318.597Z" fill="#C95C12"/>
<path d="M390.282 87.0736C389.053 86.8866 385.286 90.3332 385.286 90.3332C377.297 91.2683 365.621 93.379 361.4 94.1806C358.408 94.7416 350.392 92.0164 342.564 88.8904C333.239 85.1499 324.182 80.8483 324.182 80.8483C319.025 80.5811 313.148 90.0126 323.621 96.0241C325.224 96.9325 331.236 98.5089 338.155 99.9249C347.72 101.902 358.995 103.612 362.843 102.997C367.305 102.303 379.942 97.6806 387.45 94.1538C387.45 94.1538 387.45 94.1538 387.477 94.1538C387.503 94.1538 387.53 94.1271 387.557 94.1271C388.011 93.9134 389.855 93.0851 391.084 93.1653C392.5 93.2454 395.626 90.6805 395.733 89.9858C395.839 89.2645 391.538 87.2606 390.282 87.0736Z" fill="#ED975D"/>
<path d="M380.529 205.888L376.121 206.77C376.121 206.77 355.975 184.14 352.876 174.628C351.22 169.552 340.586 167.334 329.471 164.475C319.799 161.964 309.78 158.971 304.971 153.093C294.685 140.456 311.437 124.959 311.437 124.959C311.437 124.959 329.258 135.566 344.647 146.494C355.388 154.135 364.953 161.964 366.395 166.452C369.895 177.38 377.323 198.14 380.529 205.888Z" fill="#2B478B"/>
<path d="M374.624 213.342H377.108C377.937 213.209 378.551 212.968 379.406 212.862C380.689 212.701 381.303 213.209 381.41 213.342C381.437 213.369 381.437 213.369 381.437 213.369H391.964C392.231 212.995 391.964 212.113 391.723 211.472C391.563 211.045 391.189 210.697 390.734 210.564C389.612 210.243 387.421 209.949 385.418 208.132C384.295 207.117 379.94 204.365 379.94 204.365H379.914C379.807 204.365 379.353 204.499 377.402 206.182C376.387 207.037 374.65 204.98 374.65 204.98C374.65 204.98 374.33 205.247 374.089 205.755C373.902 206.155 373.742 206.69 373.876 207.358C374.036 208.293 373.528 210.056 373.127 211.258C372.887 211.98 372.673 212.487 372.673 212.487C372.673 212.487 372.513 213.075 374.624 213.342Z" fill="#233862"/>
<path d="M344.647 146.494L329.471 164.475C319.799 161.964 309.78 158.971 304.971 153.093C294.685 140.456 311.437 124.959 311.437 124.959C311.437 124.959 329.284 135.54 344.647 146.494Z" fill="#1E3D70"/>
<path d="M330.861 137.089C330.861 137.089 329.632 140.937 327.655 146.761C325.143 154.109 321.376 164.555 317.315 174.254C316.433 176.391 315.498 178.475 314.59 180.506C311.197 187.96 307.75 194.373 304.677 197.605C299.2 203.457 285.868 240.995 285.868 240.995L282.555 240.087C282.555 240.087 277.933 208.025 294.338 189.777C294.525 189.59 294.658 189.35 294.658 189.109C294.872 186.411 295.647 174.307 297.357 162.044C297.784 159.025 298.238 156.032 298.773 153.12C298.799 152.933 298.853 152.746 298.88 152.559C301.364 139.2 303.769 133.269 306.842 130.276L329.525 136.742L330.861 137.089Z" fill="#2B478B"/>
<path d="M282.181 245.591H284.665C285.494 245.457 286.108 245.217 286.963 245.11C288.246 244.95 288.86 245.457 288.967 245.591C288.994 245.617 288.994 245.617 288.994 245.617H299.521C299.788 245.243 299.521 244.362 299.28 243.72C299.12 243.293 298.746 242.946 298.292 242.812C297.169 242.491 294.979 242.198 292.975 240.381C291.853 239.365 287.498 236.614 287.498 236.614H287.471C287.364 236.614 286.91 236.747 284.959 238.43C283.944 239.285 282.207 237.228 282.207 237.228C282.207 237.228 281.887 237.495 281.646 238.003C281.459 238.404 281.299 238.938 281.433 239.606C281.593 240.541 281.085 242.304 280.685 243.507C280.444 244.228 280.23 244.736 280.23 244.736C280.23 244.736 280.07 245.324 282.181 245.591Z" fill="#233862"/>
<path d="M287.043 93.4592C287.043 93.4592 283.25 102.73 278.868 111.761C275.181 119.349 271.093 126.776 268.501 128.353C264.841 130.597 254.768 136.876 248.249 141.578C248.249 141.578 243.146 141.551 242.371 142.513C241.57 143.502 239.753 147.884 240.287 148.311C240.822 148.765 244.883 148.552 245.845 147.536C246.699 146.655 248.623 146.013 249.077 145.88C249.104 145.88 249.131 145.853 249.158 145.853H249.184C257.119 143.422 269.57 138.319 273.337 135.834C276.57 133.696 283.784 124.826 289.502 116.944C293.67 111.227 297.063 106.017 297.624 104.28C301.391 92.818 290.704 89.7989 287.043 93.4592Z" fill="#FFB27D"/>
<path d="M306.894 57.0695C306.44 56.4016 305.986 55.8405 305.532 55.3061C306.093 55.3061 306.707 55.2527 307.215 55.0657C308.551 54.5046 309.165 50.2832 308.952 49.0274C308.765 47.7717 306.894 44.1381 304.623 43.7907C302.352 43.4167 299.974 45.9549 299.974 45.9549C300.402 44.1381 304.249 43.0693 304.249 43.0693C296.287 44.5388 296.715 49.829 296.768 50.3366C289.501 47.745 285.226 61.4512 285.226 61.4512L304.062 72.5659C304.062 72.5659 304.116 69.5468 305.906 69.7338C308.711 70.0277 311.062 63.1345 306.894 57.0695Z" fill="#2C3A64"/>
<path d="M308.098 85.8178C303.769 87.8483 298.025 84.9094 298.052 84.8826C298.426 84.5086 298.292 83.4132 297.945 81.9437C297.597 80.4208 296.796 78.3635 295.326 75.8787C295.006 75.3444 294.712 74.8367 294.338 74.2756L294.846 74.0886L303.235 70.7222C303.235 70.7222 304.598 73.1535 306.014 75.3978C307.216 77.2413 308.472 78.9246 309.033 78.8711C309.086 78.8444 314.643 82.6651 308.098 85.8178Z" fill="#FFB27D"/>
<path d="M303.236 71.5771C303.022 74.5696 302.007 79.9666 297.946 81.9704C297.598 80.4475 296.797 78.3902 295.327 75.9055L303.236 71.5771Z" fill="#ED975D"/>
<path d="M294.846 79.3253C294.846 79.3253 305.774 75.0237 302.995 68.2374C300.216 61.4777 299.735 56.3479 292.628 58.806C285.522 61.264 285.254 64.4167 285.628 66.9015C286.002 69.3862 291.934 80.2604 294.846 79.3253Z" fill="#FFB27D"/>
<path d="M298.933 66.6878C303.983 65.9664 305.452 63.9359 305.452 63.9359C305.452 63.9359 300.803 62.6 298.078 58.0579C298.078 58.0579 292.414 56.1342 288.193 59.3404C287.925 59.661 287.765 60.0618 287.658 60.516C286.696 60.1954 285.254 60.2755 284.399 63.0007C283.143 67.0886 287.605 71.5772 287.605 71.5772C288.7 71.2833 287.471 67.6229 287.284 65.6725C287.151 64.2298 287.925 62.4129 288.353 61.5313C288.887 62.2259 294.204 68.9321 300.723 69.1993C300.723 69.1993 297.277 67.997 294.151 65.6725C295.727 66.4474 297.383 66.9016 298.933 66.6878Z" fill="#2C3A64"/>
<path d="M328.912 99.7913C328.832 99.4707 328.725 99.1234 328.618 98.776C330.248 95.6768 331.05 92.8714 331.37 90.4935C332.118 85.4972 330.836 82.398 330.836 82.398C330.836 82.398 323.248 78.3636 319.908 77.8559C319.881 77.8559 319.881 77.8559 319.855 77.8559C319.828 77.8559 319.775 77.8559 319.721 77.8559C316.328 77.4017 309.007 78.8712 309.007 78.8712C309.007 78.8712 310.423 82.6384 306.442 85.1499C302.461 87.6614 298.213 84.5087 298.213 84.5087C298.08 84.5888 297.946 84.6957 297.813 84.8026C297.813 84.8026 287.339 91.7225 286.377 93.2989C285.442 94.8752 281.408 102.704 281.408 102.704C281.408 102.704 282.69 109.276 296.851 109.837C298.026 112.669 298.908 115.421 299.202 117.719C300.324 126.643 299.015 133.67 300.324 138.88C301.633 144.09 325.278 141.124 329.553 140.109C333.828 139.093 332.866 134.525 333.187 130.089C333.614 124.479 330.301 104.707 328.912 99.7913Z" fill="#699DEE"/>
<path d="M331.395 90.4935C331.047 92.8713 330.246 95.6767 328.616 98.8027C328.242 97.1729 326.719 91.1614 324.288 88.4629C324.288 88.4629 328.375 88.8369 331.395 90.4935Z" fill="#4A82D3"/>
<path d="M235.16 148.952C235.16 148.952 239.568 143.609 240.503 142.994C241.439 142.353 245.607 141.258 245.847 141.471C246.087 141.685 246.087 142.006 245.58 142.46C245.072 142.914 243.095 144.063 243.389 144.197C243.683 144.33 249.614 141.364 250.469 142.353C251.324 143.342 249.988 147.456 247.691 149.407C245.393 151.357 238.58 152.212 238.152 152.479C234.519 154.83 235.16 148.952 235.16 148.952Z" fill="#ED975D"/>
<path d="M157.648 136.635C157.648 136.635 163.981 144.143 172.023 140.99C172.023 140.99 173.759 136.796 173.786 133.696C173.786 133.322 173.786 132.948 173.786 132.601C173.839 129.128 173.946 127.177 173.946 127.177C173.572 127.017 161.629 122.127 161.656 122.528C161.843 131.933 157.648 136.635 157.648 136.635Z" fill="#FFB27D"/>
<path d="M162.832 124.772C163.981 126.91 167.935 131.078 173.787 132.601C173.84 129.127 173.947 127.177 173.947 127.177C173.626 127.097 162.485 124.158 162.832 124.772Z" fill="#ED975D"/>
<path d="M176.458 126.83C176.458 126.83 163.019 129.982 161.175 121.593C159.332 113.204 156.366 107.94 164.862 105.589C173.359 103.211 175.737 106.043 177.019 108.715C178.328 111.333 179.905 125.788 176.458 126.83Z" fill="#FFB27D"/>
<path d="M161.63 123.864C161.443 123.971 158.558 124.879 153.081 113.952C152.226 112.242 151.638 108.528 153.642 105.268C155.646 102.009 162.752 99.4172 168.657 98.2951C174.562 97.1729 175.978 100.486 177.367 103.826C178.837 107.326 183.031 110.211 183.031 110.211C177.955 113.043 171.81 108.982 169.699 109.65C167.588 110.318 166.814 113.658 166.653 114.727C166.493 115.795 166.253 116.704 163.581 115.742C160.909 114.78 162.378 119.536 162.806 120.444C162.806 120.471 163.18 122.902 161.63 123.864Z" fill="#A9453D"/>
<path d="M127.031 333.546H118.882C117.172 333.546 115.275 331.809 114.794 328.657C114.313 325.477 110.813 323.767 110.065 321.176C109.317 318.584 113.191 314.924 113.191 314.924L113.832 314.069L114.5 313.187L120.939 314.71C120.939 314.71 121.099 316.26 121.206 318.237C121.286 319.679 121.313 321.309 121.233 322.779C121.046 326.225 122.195 329.966 125.214 330.634C128.286 331.328 127.031 333.546 127.031 333.546Z" fill="#2C3A64"/>
<path d="M183.673 333.626H162.112C161.898 333.573 161.738 333.546 161.658 333.493C160.215 332.745 160.669 327.081 160.829 325.317C160.856 324.997 160.883 324.809 160.883 324.809C160.883 324.809 168.471 318.557 169.513 323.34C169.54 323.5 169.593 323.634 169.62 323.768C170.929 328.229 176.834 330.26 180.227 330.848C182.818 331.302 183.486 332.852 183.673 333.626Z" fill="#2C3A64"/>
<path d="M179.318 208.934C179.318 208.934 178.169 223.308 176.806 240.568C174.963 264.026 172.745 292.855 172.531 298.305C172.157 307.79 170.634 322.939 170.634 322.939C170.634 322.939 167.028 326.546 159.84 325.023C159.84 325.023 153.428 303.382 151.585 280.458C151.558 280.084 151.531 279.71 151.504 279.336C149.794 256.011 147.149 206.93 147.149 206.93L179.318 208.934Z" fill="#F1A34F"/>
<path d="M179.318 208.934C179.318 208.934 178.169 223.308 176.806 240.568L151.585 280.484C151.558 280.11 151.531 279.736 151.504 279.362C149.794 256.038 147.149 206.957 147.149 206.957L179.318 208.934Z" fill="#E58638"/>
<path d="M174.054 210.644C174.054 210.644 153.295 262.69 139.642 287.137C125.989 311.584 121.741 318.424 121.741 318.424C121.741 318.424 113.912 315.271 113.218 313.134C113.218 313.134 118.428 265.923 127.565 254.408C132.722 247.915 138.787 228.385 139.081 221.572C139.375 214.759 140.924 201.239 140.924 201.239L174.054 210.644Z" fill="#F1A34F"/>
<path d="M126.523 201.96C126.523 201.96 125.989 208.453 125.588 209.468C125.187 210.457 122.569 213.556 122.275 213.503C121.981 213.449 121.794 213.209 121.954 212.594C122.115 211.953 123.023 210.029 122.729 210.056C122.435 210.109 119.443 215.587 118.241 215.266C117.038 214.945 115.863 211.071 116.584 208.319C117.306 205.567 122.115 201.239 122.302 200.812C123.878 197.071 126.523 201.96 126.523 201.96Z" fill="#ED975D"/>
<path d="M124.305 203.617C126.603 204.365 126.977 204.178 126.977 204.178C126.977 204.178 138.172 183.819 139.294 181.949C140.416 180.079 163.046 159.105 163.046 159.105L157.249 137.437C157.249 137.437 131.519 170.727 128.767 175.51C124.172 183.418 121.5 201.747 121.5 201.747C121.5 201.747 122.489 203.029 124.305 203.617Z" fill="#1E3D70"/>
<path d="M183.699 167.628C183.619 172.09 183.352 177.086 183.004 182.163C182.978 182.456 182.951 182.777 182.951 183.071C182.737 186.224 182.497 189.376 182.203 192.449C182.096 193.678 181.962 194.907 181.856 196.109L181.829 196.27C181.829 196.724 181.775 197.205 181.722 197.659C180.6 209.174 179.397 218.285 179.184 218.419C178.917 218.606 178.623 218.686 178.302 218.632C175.283 218.258 166.252 218.926 158.878 217.323C152.653 216.014 147.283 213.529 141.592 210.163C140.844 209.709 139.107 208.533 139.267 207.651C139.401 206.69 139.668 205.274 139.989 203.51C141.111 197.392 143.034 186.838 143.702 174.494C143.836 172.197 144.023 169.926 144.263 167.681C144.905 161.857 145.92 156.353 147.283 151.437C149.821 142.326 153.535 135.353 158.21 132.628C158.825 132.28 162.111 134.364 165.103 136.315C167.882 138.105 170.821 138.586 173.653 138.345L176.165 141.124C179.21 144.651 182.443 149.353 183.325 156.032C183.378 156.513 183.459 157.048 183.485 157.609C183.699 160.334 183.779 163.781 183.699 167.628Z" fill="#2A4E96"/>
<path d="M183.698 167.628C183.618 172.09 183.351 177.086 183.004 182.162C182.977 182.456 182.95 182.777 182.95 183.071C165.69 172.277 163.019 152.506 163.019 152.506C171.515 152.88 178.248 154.83 183.458 157.609C183.698 160.334 183.778 163.781 183.698 167.628Z" fill="#1E3D70"/>
<path d="M237.777 149.487C236.895 147.082 235.506 147.242 235.506 147.242C235.506 147.242 209.83 153.628 207.532 153.922C205.235 154.189 179.906 144.036 179.906 144.036C179.906 144.036 169.94 139.574 165.265 143.635C161.203 147.189 161.016 151.677 161.978 155.471C163.1 159.96 166.921 163.3 171.517 163.887C181.856 165.197 202.483 167.681 206.784 167.067C216.403 165.731 238.204 153.147 238.204 153.147C238.204 153.147 238.472 151.383 237.777 149.487Z" fill="#2A4E96"/>
<path d="M490.821 196.537C490.821 196.537 494.374 199.85 493.68 202.201C492.985 204.552 489.779 206.102 489.325 208.987C488.87 211.873 487.161 213.423 485.584 213.423C484.008 213.423 478.13 213.423 478.13 213.423C478.13 213.423 476.981 211.392 479.76 210.804C482.538 210.19 483.58 206.823 483.42 203.697C483.233 200.571 483.687 196.403 483.687 196.403L489.592 195.014L490.821 196.537Z" fill="#2C3A64"/>
<path d="M446.388 212.995C446.014 213.182 444.759 213.289 443.022 213.396H426.136C426.19 212.888 426.59 211.098 429.342 210.671C432.468 210.163 437.865 208.346 439.068 204.365C439.121 204.232 439.148 204.098 439.175 203.964C440.136 199.716 447.083 205.274 447.083 205.274C447.083 205.274 447.11 205.434 447.137 205.728C447.297 207.304 447.724 212.354 446.388 212.995Z" fill="#2C3A64"/>
<path d="M430.17 99.0432C430.17 99.0432 431.239 112.215 432.468 128.059C434.151 149.593 436.182 176.017 436.396 181.04C436.743 189.75 438.132 203.644 438.132 203.644C438.132 203.644 441.445 206.957 448.045 205.567C448.045 205.567 453.923 185.716 455.606 164.689C455.633 164.342 455.659 163.994 455.686 163.647C457.262 142.246 459.694 97.1997 459.694 97.1997L430.17 99.0432Z" fill="#35488B"/>
<path d="M430.17 99.0432C430.17 99.0432 431.239 112.215 432.468 128.059L455.606 164.689C455.633 164.342 455.659 163.994 455.686 163.647C457.262 142.246 459.694 97.1997 459.694 97.1997L430.17 99.0432Z" fill="#2C3A64"/>
<path d="M435.008 100.593C435.008 100.593 454.058 148.338 466.562 170.781C479.092 193.224 482.993 199.476 482.993 199.476C482.993 199.476 490.18 196.617 490.821 194.64C490.821 194.64 486.039 151.33 477.65 140.777C472.92 134.819 467.336 116.918 467.096 110.639C466.829 104.387 465.413 91.9897 465.413 91.9897L435.008 100.593Z" fill="#35488B"/>
<path d="M376.255 74.7033C376.255 74.7033 371.098 73.5277 370.217 73.5811C369.335 73.6345 366.316 74.917 366.262 75.1575C366.209 75.3979 366.369 75.6117 366.904 75.6384C367.438 75.6651 369.148 75.4514 369.041 75.6651C368.934 75.8789 363.938 76.8407 363.885 77.856C363.831 78.8713 366.556 80.7148 368.854 80.8484C371.152 80.982 375.694 78.2835 376.095 78.2567C379.408 77.9628 376.255 74.7033 376.255 74.7033Z" fill="#FFB27D"/>
<path d="M374.038 76.0123C373.29 73.6611 373.477 73.2871 373.477 73.2871C373.477 73.2871 394.424 61.9587 396.321 60.8098C398.245 59.6609 419.886 36.6301 419.886 36.6301L442.062 42.7218C442.062 42.7218 407.756 68.8519 402.84 71.6573C394.718 76.3062 375.909 78.9513 375.909 78.9513C375.909 78.9513 374.626 77.8825 374.038 76.0123Z" fill="#E58638"/>
<path d="M426.619 25.4353C426.619 25.4353 418.844 39.1149 411.256 40.905C411.256 40.905 411.576 36.3095 413.42 33.1835C412.672 32.3018 412.004 31.4736 411.416 30.7255C409.492 28.2674 408.584 26.7712 408.584 26.7712L411.149 19.8513L412.886 15.1489C413.714 16.6718 414.649 17.981 415.611 19.0765C420.634 24.7941 426.619 25.4353 426.619 25.4353Z" fill="#FFB27D"/>
<path d="M415.664 19.0765C415.664 19.0765 416.599 25.9162 411.416 30.7255C409.492 28.2674 408.584 26.7712 408.584 26.7712L411.149 19.8513C413.928 18.9963 415.664 19.0765 415.664 19.0765Z" fill="#ED975D"/>
<path d="M406.553 27.7866C406.553 27.7866 418.176 23.2713 415.237 16.0842C412.298 8.89708 411.844 3.47335 404.282 6.06498C396.748 8.65662 396.427 11.9696 396.828 14.6147C397.229 17.2331 403.454 28.7752 406.553 27.7866Z" fill="#FFB27D"/>
<path d="M466.508 95.5967C461.833 102.33 426.806 111.334 427.233 106.658C427.393 104.868 427.607 101.742 427.233 97.467C427.153 96.4784 427.019 95.4097 426.859 94.2875C425.977 88.1691 423.867 80.2874 419.138 71.1766C418.79 70.4819 418.416 69.814 418.042 69.1193C416.092 65.5925 414.435 61.852 413.179 58.2184C410.748 51.2183 409.786 44.5121 410.989 40.1037C410.989 40.0769 410.989 40.0502 411.015 40.0502C418.336 36.6571 421.168 23.5386 421.168 23.5386C421.168 23.5386 446.149 28.0272 460.123 61.3177C460.15 61.291 470.596 89.7455 466.508 95.5967Z" fill="#F1A34F"/>
<path d="M427.232 97.4669C427.152 96.4783 427.019 95.4096 426.858 94.2874C425.977 88.169 423.866 80.2873 419.137 71.1765C419.938 66.2604 421.06 62.1992 422.289 60.3557C427.259 52.9014 430.171 51.7258 430.171 51.7258C430.171 51.7258 437.652 83.2262 427.232 97.4669Z" fill="#E58638"/>
<path d="M387.877 89.9858C387.877 89.9858 380.957 90.3599 379.888 90.7339C378.82 91.108 375.453 93.8065 375.48 94.1271C375.507 94.4477 375.774 94.6615 376.442 94.5012C377.11 94.3676 379.194 93.4592 379.14 93.7531C379.087 94.047 373.182 97.0661 373.449 98.3485C373.743 99.631 377.831 100.994 380.77 100.326C383.709 99.6577 388.438 94.6615 388.919 94.5012C392.98 92.9515 387.877 89.9858 387.877 89.9858Z" fill="#FFB27D"/>
<path d="M386.567 92.6041C385.178 90.3598 386.193 89.3445 386.193 89.3445C386.193 89.3445 407.541 72.6458 409.198 70.9359C410.881 69.2527 418.629 42.3745 418.629 42.3745C418.629 42.3745 421.301 31.5003 427.553 30.298C432.976 29.256 436.744 31.9278 439.175 35.0805C442.087 38.821 442.381 44.0043 439.95 48.0921C434.499 57.283 423.518 75.5047 420.312 78.6039C413.178 85.5239 389.266 95.2225 389.266 95.2225C389.266 95.2225 387.663 94.3675 386.567 92.6041Z" fill="#EE9849"/>
<path d="M416.893 2.72522C416.973 2.56492 417.214 2.40461 417.775 2.21758C417.775 2.21758 417.241 2.03056 416.599 2.16415C416.279 1.36261 415.477 0.0267179 414.008 0C414.008 0 414.863 0.213743 415.183 1.06872C413.153 -0.213743 409.359 -0.587794 399.954 2.5382C387.53 6.67947 393.729 13.8933 395.626 14.4811C397.496 15.0689 400.969 11.3551 404.095 10.8475C407.221 10.3398 408.905 14.6948 410.08 15.0422C411.256 15.3895 410.588 14.4277 411.844 13.4124C413.099 12.4238 413.794 14.7483 413.767 16.3781C413.741 18.0079 416.172 19.5575 416.172 19.5575C416.172 19.5575 416.172 19.5575 417.588 16.9391C419.004 14.3208 418.63 4.86266 417.267 3.15271C417.134 3.01912 417.027 2.85881 416.893 2.72522Z" fill="#2B478B"/>
<path d="M621.173 360H0.827253C0.378173 360 0 359.663 0 359.263V358.737C0 358.337 0.378173 358 0.827253 358H621.173C621.622 358 622 358.337 622 358.737V359.263C621.976 359.663 621.622 360 621.173 360Z" fill="#4D2621"/>
<path d="M220.621 333.548V347.258L187.429 333.548H220.621Z" fill="#4271BC"/>
<path d="M505.645 213.044H395.243V358.082H505.645V213.044Z" fill="#F15A29"/>
<path d="M471.731 213.044H361.33V358.082H471.731V213.044Z" fill="#FF8E69"/>
<path d="M505.645 213.044V234.691L471.73 213.044H505.645Z" fill="#D94312"/>
</svg>
