<svg width="22" height="20" viewBox="0 0 22 20" fill="none" xmlns="http://www.w3.org/2000/svg">
<path d="M8.71488e-07 9.96866C0.0499905 7.70481 0.949808 5.95547 2.69945 4.72064C4.74903 3.33146 6.79862 1.99373 8.89819 0.656001C10.2979 -0.218668 11.7976 -0.218668 13.1973 0.656001C15.2969 1.94228 17.3965 3.28001 19.496 4.66919C21.4456 5.95547 22.3954 8.73383 21.8456 11.0491C21.6456 11.9238 20.9457 12.2325 20.1959 11.718C19.8959 11.5122 19.596 11.3064 19.2461 11.1006C18.6462 10.7404 18.3463 10.2774 18.3463 9.50559C18.3463 8.68238 17.8964 8.06496 17.1965 7.6019C15.2969 6.36708 13.4473 5.1837 11.5476 4.00032C11.1977 3.79452 10.8978 3.79452 10.5978 4.00032C8.69823 5.2866 6.74862 6.52143 4.84901 7.80771C3.29933 8.88818 3.29933 10.8948 4.84901 11.9752C6.59866 13.2101 8.39829 14.4449 10.1479 15.6797C10.5978 15.9884 10.9478 16.1428 11.4977 15.7312C12.3975 15.1138 13.3973 15.1138 14.3971 15.6797C14.797 15.8855 15.2469 16.1428 15.5968 16.4515C16.0467 16.7602 16.0467 17.1204 15.6468 17.4291C14.547 18.2008 13.4973 18.9726 12.3475 19.59C11.2477 20.2074 10.0979 20.1045 9.04816 19.4357C6.49868 17.7892 4.04918 15.9884 1.69966 14.0333C0.44991 12.9528 0.0999806 11.4607 8.71488e-07 9.96866Z" fill="white"/>
</svg>
