<svg width="31" height="30" viewBox="0 0 31 30" fill="none" xmlns="http://www.w3.org/2000/svg">
<g clip-path="url(#clip0_371_8568)">
<path d="M28.1136 26.9851H26.3441L26.3433 15.0889C26.3433 14.8461 26.1465 14.6494 25.9038 14.6494C25.6611 14.6494 25.4644 14.8461 25.4644 15.0889L25.4652 26.9851H21.1555V25.4009H22.8005C23.0432 25.4009 23.2399 25.2042 23.2399 24.9615C23.2399 24.7187 23.0432 24.522 22.8005 24.522H21.1555V22.9378H21.8538C22.0965 22.9378 22.2932 22.7411 22.2932 22.4983C22.2932 22.2555 22.0965 22.0588 21.8538 22.0588H21.1555V20.4746H22.8005C23.0432 20.4746 23.2399 20.2779 23.2399 20.0351C23.2399 19.7924 23.0432 19.5957 22.8005 19.5957H21.1555V18.0114H21.8538C22.0965 18.0114 22.2932 17.8147 22.2932 17.572C22.2932 17.3292 22.0965 17.1325 21.8538 17.1325H21.1555V15.5483H22.8005C23.0432 15.5483 23.2399 15.3516 23.2399 15.1088C23.2399 14.8661 23.0432 14.6694 22.8005 14.6694H21.1555V13.0851H21.8538C22.0965 13.0851 22.2932 12.8884 22.2932 12.6456C22.2932 12.4029 22.0965 12.2062 21.8538 12.2062H21.1555V10.622H22.8005C23.0432 10.622 23.2399 10.4253 23.2399 10.1825C23.2399 9.93979 23.0432 9.74309 22.8005 9.74309H21.1555V8.15883H21.8538C22.0965 8.15883 22.2932 7.96213 22.2932 7.71938C22.2932 7.47662 22.0965 7.27992 21.8538 7.27992H21.1555V5.69561H22.8005C23.0432 5.69561 23.2399 5.49891 23.2399 5.25615C23.2399 5.0134 23.0432 4.8167 22.8005 4.8167H21.1555V3.23244H25.4652V13.0687C25.4652 13.3114 25.662 13.5081 25.9046 13.5081C26.1473 13.5081 26.3441 13.3114 26.3441 13.0687V3.23121C26.7381 3.21826 27.055 2.89447 27.055 2.49732V0.735117C27.0549 0.329766 26.7251 0 26.3198 0H12.8434C12.6007 0 12.4039 0.196699 12.4039 0.439453C12.4039 0.682207 12.6007 0.878906 12.8434 0.878906H17.2106V1.61537C17.2106 2.50705 17.9352 3.23244 18.8259 3.23244H20.2765V26.9851H15.4117C15.2508 26.1021 14.3383 25.3654 13.4123 25.1274C13.313 25.1016 13.2564 25.0825 13.2246 25.0699C13.2181 25.0027 13.2181 24.8852 13.2181 24.8087V22.4474C13.5504 22.3785 13.8011 22.0835 13.8011 21.731V17.9617C13.9897 18.0478 14.1991 18.0962 14.4196 18.0962C15.2453 18.0962 15.9171 17.4236 15.9171 16.597V13.2885V12.7719C15.9171 11.5143 15.5504 10.4384 14.8569 9.66029C14.3522 9.09416 13.7013 8.71652 12.9433 8.54162C13.5221 7.88789 13.899 7.08258 13.899 6.35244V5.42889C13.899 4.27078 13.528 3.28699 12.8262 2.58381C12.1979 1.95439 11.3525 1.59949 10.4457 1.58455C10.4409 1.58443 10.436 1.58443 10.4312 1.58455C9.52377 1.59949 8.67809 1.95439 8.05002 2.58387C7.34859 3.28682 6.97787 4.27061 6.97787 5.42889V6.35238C6.97787 7.08264 7.35445 7.88783 7.93283 8.54156C7.17451 8.71646 6.52342 9.09404 6.01863 9.66012C5.32488 10.4381 4.9582 11.5141 4.9582 12.7718V13.2884V16.5969C4.9582 17.4235 5.63068 18.096 6.45727 18.096C6.67781 18.096 6.88711 18.0477 7.07584 17.9616V21.7308C7.07584 22.0834 7.32645 22.3784 7.65879 22.4473V24.8086C7.65879 24.8851 7.65879 25.0023 7.65229 25.0695C7.62041 25.0822 7.56363 25.1013 7.46402 25.1271C6.53771 25.3651 5.62564 26.1018 5.4651 26.9851H4.245C3.41473 26.9851 2.73926 27.6613 2.73926 28.4926V29.2731C2.73926 29.6739 3.06457 29.9999 3.46436 29.9999H28.1136C28.5317 29.9999 28.8719 29.6597 28.8719 29.2416V27.7435C28.872 27.3254 28.5318 26.9851 28.1136 26.9851ZM18.0895 1.61537V0.878906H26.176V2.35354H18.8259C18.4198 2.35354 18.0895 2.02242 18.0895 1.61537ZM14.5031 26.9851H10.8779V22.4627H12.3391V24.8086C12.3391 25.4531 12.4232 25.7786 13.1924 25.9783C13.6952 26.1076 14.3178 26.5154 14.5031 26.9851ZM15.0381 16.597C15.0381 16.939 14.7606 17.2172 14.4196 17.2172C14.0785 17.2172 13.8011 16.939 13.8011 16.597V13.7279H15.0381V16.597ZM10.4384 2.46352C11.5571 2.4852 12.7501 3.24398 12.9804 4.85221C12.8596 4.78189 12.7711 4.69148 12.6762 4.59457C12.498 4.41258 12.2459 4.155 11.8051 4.155C11.7025 4.155 11.5897 4.16895 11.4651 4.20111C11.3067 4.24178 10.565 4.43971 10.4384 4.43971C10.3119 4.43971 9.57018 4.24178 9.41215 4.20117C8.75227 4.03125 8.41986 4.37027 8.1999 4.59469C8.10516 4.69137 8.0168 4.78148 7.8965 4.8518C8.12707 3.24393 9.31992 2.48514 10.4384 2.46352ZM7.85678 6.35238V5.80447C8.36895 5.67744 8.63766 5.40369 8.82768 5.2098C9.01717 5.01639 9.02449 5.00889 9.19307 5.0523C9.3484 5.09227 10.1966 5.31861 10.4385 5.31861C10.6804 5.31861 11.5286 5.09227 11.6843 5.05225C11.8521 5.00883 11.8594 5.0165 12.0482 5.20939C12.2382 5.40352 12.507 5.67762 13.0202 5.80465V6.35244C13.0202 7.27406 12.0771 8.46311 11.0411 8.84719C10.8144 8.93145 10.6229 8.9707 10.4385 8.9707C10.2544 8.9707 10.0621 8.93133 9.83391 8.84701C8.79908 8.46334 7.85678 7.27436 7.85678 6.35238ZM11.4799 9.61828C11.4156 10.21 10.9736 10.6698 10.4385 10.6698C9.90363 10.6698 9.46172 10.2104 9.39715 9.61904C9.4408 9.63738 9.48469 9.65484 9.52881 9.67119C9.85805 9.79283 10.1471 9.84955 10.4385 9.84955C10.7307 9.84955 11.0196 9.79277 11.3469 9.67102C11.3915 9.65455 11.4358 9.63686 11.4799 9.61828ZM8.50922 9.33352V9.46992C8.50922 10.6161 9.37471 11.5488 10.4385 11.5488C11.5023 11.5488 12.3677 10.6162 12.3677 9.46992V9.33357C14.0265 9.52342 15.0381 10.8038 15.0381 12.7719V12.849H13.3616C13.1189 12.849 12.9221 13.0457 12.9221 13.2884V16.1575H11.3802C11.1375 16.1575 10.9407 16.3542 10.9407 16.597C10.9407 16.8397 11.1375 17.0364 11.3802 17.0364H12.9221V21.5838H10.8779V19.3285H11.3286C11.5713 19.3285 11.7681 19.1318 11.7681 18.889C11.7681 18.6463 11.5713 18.4496 11.3286 18.4496H9.5482C9.30551 18.4496 9.10875 18.6463 9.10875 18.889C9.10875 19.1318 9.30551 19.3285 9.5482 19.3285H9.99896V21.5838H7.95475V17.0364H9.51164C9.75434 17.0364 9.95109 16.8397 9.95109 16.597C9.95109 16.3542 9.75434 16.1575 9.51164 16.1575H7.95475V13.2884C7.95475 13.0457 7.75799 12.849 7.51529 12.849H5.83711V12.7719C5.83711 10.8038 6.84943 9.5233 8.50922 9.33352ZM6.45732 17.2172C6.11537 17.2172 5.83717 16.939 5.83717 16.597V13.7279H7.0759V16.597C7.07584 16.939 6.79834 17.2172 6.45732 17.2172ZM7.68352 25.9781C8.45344 25.7788 8.5377 25.4533 8.5377 24.8086V22.4627H9.99896V26.9851H6.37365C6.55863 26.5152 7.18072 26.1074 7.68352 25.9781ZM27.993 29.1211H3.61816V28.4926C3.61816 28.146 3.89936 27.864 4.245 27.864H27.993V29.1211Z" fill="#724C9F"/>
</g>
<defs>
<clipPath id="clip0_371_8568">
<rect width="30" height="30" fill="white" transform="translate(0.805664)"/>
</clipPath>
</defs>
</svg>
