<svg width="31" height="30" viewBox="0 0 31 30" fill="none" xmlns="http://www.w3.org/2000/svg">
<g clip-path="url(#clip0_371_8530)">
<path d="M15.8057 2.37793C16.0484 2.37793 16.2451 2.18118 16.2451 1.93848C16.2451 1.69577 16.0484 1.49902 15.8057 1.49902C15.563 1.49902 15.3662 1.69577 15.3662 1.93848C15.3662 2.18118 15.563 2.37793 15.8057 2.37793Z" fill="#724C9F"/>
<path d="M26.3175 29.1393V2.69965C26.3175 2.22504 25.9314 1.83896 25.4568 1.83896H21.3788C21.2382 1.63383 21.0022 1.49895 20.7353 1.49895H17.6941C17.4924 0.623203 16.7174 0 15.8057 0C14.8941 0 14.119 0.623145 13.9173 1.49895H10.8761C10.6092 1.49895 10.3732 1.63383 10.2327 1.83896H6.15463C5.68002 1.83896 5.29395 2.2251 5.29395 2.69965V20.5146C5.29395 20.7573 5.49064 20.954 5.7334 20.954C5.97615 20.954 6.17285 20.7573 6.17285 20.5146V2.71787H10.0967V3.30381H7.6691C7.16719 3.30381 6.75885 3.71215 6.75885 4.21406V27.6249C6.75885 28.1268 7.16719 28.5352 7.6691 28.5352H18.3977C20.122 28.5352 21.743 27.8637 22.962 26.6445C24.1812 25.4254 24.8527 23.8044 24.8527 22.0802V11.8071C24.8527 11.5644 24.656 11.3677 24.4132 11.3677C24.1705 11.3677 23.9738 11.5644 23.9738 11.8071V22.0802C23.9738 23.2118 23.0531 24.1324 21.9216 24.1324H21.3605C21.2351 24.1324 21.1156 24.1579 21.0068 24.204H13.2231C12.9803 24.204 12.7836 24.4007 12.7836 24.6434C12.7836 24.8862 12.9803 25.0829 13.2231 25.0829H20.45V25.604C20.45 26.7356 19.5294 27.6562 18.3977 27.6562H7.6691C7.65182 27.6562 7.63775 27.6422 7.63775 27.6249V4.21406C7.63775 4.19678 7.65182 4.18271 7.6691 4.18271H10.0967V5.80301C10.0967 6.42023 10.5988 6.92238 11.2161 6.92238H20.3954C21.0126 6.92238 21.5147 6.42023 21.5147 5.80301V4.18271H23.9424C23.9597 4.18271 23.9738 4.19678 23.9738 4.21406V9.75633C23.9738 9.99908 24.1705 10.1958 24.4132 10.1958C24.656 10.1958 24.8527 9.99908 24.8527 9.75633V4.21406C24.8527 3.71215 24.4443 3.30381 23.9424 3.30381H21.5147V2.71787H25.4387V29.1211H6.17285V22.5653C6.17285 22.3226 5.97615 22.1259 5.7334 22.1259C5.49064 22.1259 5.29395 22.3226 5.29395 22.5653V29.1393C5.29395 29.6139 5.68008 29.9999 6.15463 29.9999H25.4568C25.9314 30 26.3175 29.6139 26.3175 29.1393ZM21.3289 25.604V25.043C21.3289 25.0255 21.3431 25.0113 21.3605 25.0113H21.9215C22.4427 25.0113 22.9325 24.8746 23.3571 24.635C22.8278 25.6595 21.9779 26.5098 20.9526 27.0395C21.1921 26.615 21.3289 26.1252 21.3289 25.604ZM20.6358 4.49824H13.8935C13.6507 4.49824 13.454 4.69494 13.454 4.9377C13.454 5.18045 13.6507 5.37715 13.8935 5.37715H20.6358V5.80307C20.6358 5.93572 20.5279 6.04354 20.3953 6.04354H11.2161C11.0834 6.04354 10.9756 5.93566 10.9756 5.80307V5.37715H11.8427C12.0855 5.37715 12.2822 5.18045 12.2822 4.9377C12.2822 4.69494 12.0855 4.49824 11.8427 4.49824H10.9756C10.9756 1.59492 10.9756 4.12518 10.9756 2.37785H14.0351C14.3971 2.37785 14.7021 2.12016 14.7603 1.76508C14.8445 1.25156 15.2842 0.878906 15.8057 0.878906C16.3273 0.878906 16.767 1.25156 16.8512 1.76502C16.9094 2.12016 17.2144 2.37785 17.5764 2.37785H20.6358V4.49824Z" fill="#724C9F"/>
<path d="M16.6444 7.5083H14.9668C14.6375 7.5083 14.3695 7.77625 14.3695 8.10566V9.38594H13.0892C12.7599 9.38594 12.4919 9.65389 12.4919 9.9833V11.6609C12.4919 11.9903 12.7599 12.2582 13.0892 12.2582H14.3696V13.5385C14.3696 13.8679 14.6375 14.1358 14.9669 14.1358H16.6445C16.9738 14.1358 17.2418 13.8679 17.2418 13.5385V12.2582H18.5221C18.8515 12.2582 19.1194 11.9903 19.1194 11.6609V9.9833C19.1194 9.65389 18.8515 9.38594 18.5221 9.38594H17.2418V8.10566C17.2418 7.77625 16.9738 7.5083 16.6444 7.5083ZM18.2405 10.2648V11.3794H16.9602C16.6308 11.3794 16.3629 11.6473 16.3629 11.9767V13.257H15.2484V11.9767C15.2484 11.6473 14.9805 11.3794 14.6511 11.3794H13.3708V10.2648H14.6511C14.9805 10.2648 15.2484 9.99689 15.2484 9.66754V8.38721H16.3629V9.66754C16.3629 9.99689 16.6308 10.2648 16.9602 10.2648H18.2405Z" fill="#724C9F"/>
<path d="M12.0631 15.812C12.0631 15.4689 11.7839 15.1897 11.4408 15.1897H9.95216C9.60903 15.1897 9.32983 15.4689 9.32983 15.812V17.3007C9.32983 17.6438 9.60903 17.923 9.95216 17.923H11.4408C11.7839 17.923 12.0631 17.6438 12.0631 17.3007V15.812ZM11.1842 17.0441H10.2087V16.0687H11.1842V17.0441Z" fill="#724C9F"/>
<path d="M12.0631 19.7988C12.0631 19.4557 11.7839 19.1765 11.4408 19.1765H9.95216C9.60903 19.1765 9.32983 19.4557 9.32983 19.7988V21.2875C9.32983 21.6306 9.60903 21.9098 9.95216 21.9098H11.4408C11.7839 21.9098 12.0631 21.6306 12.0631 21.2875V19.7988ZM11.1842 21.0309H10.2087V20.0554H11.1842V21.0309Z" fill="#724C9F"/>
<path d="M11.4408 23.1636H9.95216C9.60903 23.1636 9.32983 23.4428 9.32983 23.7859V25.2745C9.32983 25.6177 9.60903 25.8969 9.95216 25.8969H11.4408C11.7839 25.8969 12.0631 25.6177 12.0631 25.2745V23.7859C12.0631 23.4428 11.7839 23.1636 11.4408 23.1636ZM11.1842 25.018H10.2087V24.0425H11.1842V25.018Z" fill="#724C9F"/>
<path d="M21.8422 16.0625H13.2231C12.9804 16.0625 12.7837 16.2592 12.7837 16.502C12.7837 16.7447 12.9804 16.9414 13.2231 16.9414H21.8422C22.085 16.9414 22.2817 16.7447 22.2817 16.502C22.2817 16.2592 22.0849 16.0625 21.8422 16.0625Z" fill="#724C9F"/>
<path d="M21.8422 20.1333H13.2231C12.9804 20.1333 12.7837 20.33 12.7837 20.5728C12.7837 20.8155 12.9804 21.0122 13.2231 21.0122H21.8422C22.085 21.0122 22.2817 20.8155 22.2817 20.5728C22.2817 20.33 22.0849 20.1333 21.8422 20.1333Z" fill="#724C9F"/>
</g>
<defs>
<clipPath id="clip0_371_8530">
<rect width="30" height="30" fill="white" transform="translate(0.805664)"/>
</clipPath>
</defs>
</svg>
