<svg width="30" height="30" viewBox="0 0 30 30" fill="none" xmlns="http://www.w3.org/2000/svg">
<g clip-path="url(#clip0_371_8649)">
<path d="M16.4075 15.6435H14.5865L13.8191 13.3221C13.7595 13.1416 13.5909 13.0198 13.4008 13.0197H13.4007C13.2108 13.0197 13.0421 13.1415 12.9824 13.3218L11.1889 18.7365L9.31592 11.7845C9.2043 11.3704 8.62428 11.3455 8.47674 11.7472L7.0215 15.7085H5.55104C5.30758 15.7085 5.11035 15.9058 5.11035 16.1492C5.11035 16.3926 5.30758 16.5899 5.55104 16.5899H7.32918C7.51398 16.5899 7.67916 16.4746 7.74285 16.3011L8.82578 13.3531L10.72 20.3838C10.7706 20.5717 10.9385 20.7041 11.133 20.7097C11.1372 20.7098 11.1415 20.7099 11.1457 20.7099C11.3351 20.7099 11.504 20.5884 11.5639 20.4077L13.4004 14.8632L13.8497 16.2225C13.9094 16.403 14.078 16.5248 14.2681 16.5248H16.4076C16.651 16.5248 16.8483 16.3275 16.8483 16.0841C16.8483 15.8407 16.6509 15.6435 16.4075 15.6435Z" fill="#724C9F"/>
<path d="M21.8579 8.22825C21.7362 8.01743 21.4667 7.94524 21.2559 8.06694L19.1333 9.29237C18.9225 9.41407 18.8503 9.6836 18.972 9.89436C19.0935 10.105 19.363 10.1775 19.5739 10.0557L21.6966 8.83024C21.9073 8.70854 21.9796 8.43907 21.8579 8.22825Z" fill="#724C9F"/>
<path d="M24.816 9.1467C24.6944 8.93588 24.4247 8.8637 24.214 8.98539L20.2705 11.2622C20.0597 11.3839 19.9875 11.6534 20.1092 11.8642C20.2309 12.0751 20.5006 12.1471 20.7112 12.0255L24.6547 9.7487C24.8655 9.627 24.9377 9.35747 24.816 9.1467Z" fill="#724C9F"/>
<path d="M25.9534 11.1165C25.8318 10.9056 25.5622 10.8334 25.3515 10.9551L21.4079 13.232C21.1972 13.3537 21.1249 13.6232 21.2466 13.834C21.3282 13.9754 21.4764 14.0544 21.6286 14.0544C21.7034 14.0544 21.7792 14.0354 21.8486 13.9953L25.7921 11.7184C26.0029 11.5967 26.0751 11.3272 25.9534 11.1165Z" fill="#724C9F"/>
<path d="M27.0904 13.0862C26.9688 12.8754 26.6991 12.8031 26.4884 12.9249L22.5449 15.2017C22.3341 15.3234 22.2619 15.5929 22.3836 15.8037C22.5053 16.0146 22.775 16.0866 22.9856 15.965L26.9291 13.6882C27.1399 13.5665 27.2121 13.2969 27.0904 13.0862Z" fill="#724C9F"/>
<path d="M29.8018 13.0565L27.8208 9.62523C27.6991 9.41441 27.4294 9.34217 27.2188 9.46393C27.008 9.58563 26.9358 9.85516 27.0575 10.0659L29.0385 13.4972C29.2039 13.7838 29.1054 14.1515 28.819 14.317L22.5478 17.9375C22.2567 18.1057 21.89 17.9985 21.7281 17.7179L16.9287 9.4051C16.7629 9.11775 16.861 8.75125 17.1483 8.58531C17.3067 8.49385 23.2666 5.05281 23.4193 4.96469C23.706 4.79916 24.0737 4.89783 24.2391 5.18441L26.0283 8.28355C26.15 8.49432 26.4196 8.56656 26.6303 8.44486C26.8411 8.32316 26.9133 8.05363 26.7916 7.84287L25.0024 4.74373C24.594 4.03627 23.6861 3.79293 22.9787 4.20139L21.8064 4.87814C21.4472 3.8851 20.4883 3.17529 19.3925 3.17529H15.4454C15.1856 2.95041 14.8472 2.81395 14.4774 2.81395H12.8728C12.6726 1.95355 11.8995 1.31055 10.9791 1.31055C10.0586 1.31055 9.28553 1.95355 9.08537 2.81395H7.48061C7.11082 2.81395 6.7725 2.95047 6.51264 3.17529H2.56576C1.15102 3.17523 0 4.32625 0 5.74094V26.1239C0 27.5387 1.15102 28.6897 2.56576 28.6897H19.3925C20.8073 28.6897 21.9583 27.5387 21.9583 26.1239V18.8698C22.3147 18.9411 22.6777 18.8804 22.9886 18.7008L29.2597 15.0803C29.967 14.6719 30.2103 13.7641 29.8018 13.0565ZM19.3925 4.05666C20.1677 4.0566 20.839 4.59748 21.0251 5.32926L19.7898 6.04246V5.78436C19.7898 5.54096 19.5925 5.34367 19.3491 5.34367H15.954C15.9592 5.2849 15.9772 4.27363 15.9396 4.05672L19.3925 4.05666ZM6.94646 4.02355C7.04824 3.82715 7.24904 3.6952 7.48084 3.6952H9.47584C9.7193 3.6952 9.91652 3.49791 9.91652 3.25451C9.91652 2.66852 10.3932 2.1918 10.9792 2.1918C11.5652 2.1918 12.042 2.66852 12.042 3.25451C12.042 3.49791 12.2392 3.6952 12.4826 3.6952H14.4775C14.704 3.6952 14.9091 3.82234 15.0135 4.02666C15.0969 4.19348 15.0778 4.22529 15.0778 5.22051C15.0778 5.27682 15.0665 5.3452 15.0529 5.39025C14.9776 5.64303 14.7452 5.82068 14.4776 5.82068H7.48072C7.20352 5.82068 6.97752 5.63348 6.90428 5.38586C6.88992 5.33629 6.88061 5.2726 6.88061 5.22051C6.88072 4.24932 6.86063 4.19125 6.94646 4.02355ZM21.0769 26.1239C21.0769 27.0527 20.3213 27.8083 19.3925 27.8083H2.56576C1.63699 27.8083 0.881426 27.0527 0.881426 26.1239V5.74094C0.881426 4.81217 1.63699 4.0566 2.56576 4.0566H6.01881C5.97697 4.27826 5.99924 5.28484 6.00445 5.34355H2.60912C2.36566 5.34355 2.16844 5.54084 2.16844 5.78424V26.0806C2.16844 26.324 2.36566 26.5213 2.60912 26.5213H9.95092C10.1944 26.5213 10.3916 26.324 10.3916 26.0806C10.3916 25.8372 10.1944 25.6399 9.95092 25.6399H7.51658V21.6138C7.51658 21.3704 7.31936 21.1731 7.0759 21.1731H3.04975V6.22498H6.39299C6.66381 6.51807 7.05111 6.70205 7.48072 6.70205H14.4774C14.9071 6.70205 15.2943 6.51807 15.5653 6.22498H18.9084V6.55135L16.7077 7.82195C15.9986 8.23129 15.7559 9.1365 16.1654 9.84578L18.9084 14.5969V25.64H12.0075C11.764 25.64 11.5668 25.8372 11.5668 26.0806C11.5668 26.324 11.764 26.5213 12.0075 26.5213H19.3492C19.5926 26.5213 19.7899 26.324 19.7899 26.0806V16.1234C21.0868 18.3697 20.9916 18.2153 21.0769 18.3254V26.1239H21.0769ZM6.01189 25.6399H3.0498V22.6778L6.01189 25.6399ZM3.67301 22.0546H6.63521V25.0167L3.67301 22.0546Z" fill="#724C9F"/>
</g>
<defs>
<clipPath id="clip0_371_8649">
<rect width="30" height="30" fill="white"/>
</clipPath>
</defs>
</svg>
