<svg width="26" height="30" viewBox="0 0 26 30" fill="none" xmlns="http://www.w3.org/2000/svg">
<path d="M10.1115 25.4694C9.86882 25.4694 9.67207 25.6662 9.67207 25.9089V28.3666C9.67207 28.782 9.33411 29.1198 8.91882 29.1198C8.62012 29.1198 8.34919 28.9425 8.22855 28.6681C7.63128 27.3095 6.20382 23.7085 5.85051 19.6229C5.74177 18.3653 5.26354 17.1775 4.46752 16.188C3.42958 14.8977 2.19225 12.9317 2.19225 10.8934C2.19225 10.4881 2.21311 10.1035 2.25436 9.74355C2.82498 10.1505 3.47223 10.4466 4.15763 10.6051C4.39399 10.6597 4.63006 10.5125 4.68484 10.276C4.73956 10.0395 4.59221 9.80354 4.35573 9.74882C3.383 9.52383 2.50032 8.96909 1.87029 8.18695C1.22174 7.38179 0.878927 6.40848 0.878927 5.37229C0.878869 2.89464 2.89464 0.878869 5.37235 0.878869C7.85005 0.878869 9.86583 2.89464 9.86583 5.37235C9.86583 6.40391 9.50748 7.41132 8.85683 8.20904C8.21508 8.99581 7.31863 9.54732 6.33254 9.76194C6.09542 9.81356 5.94502 10.0476 5.99664 10.2848C6.0414 10.4905 6.22339 10.6309 6.42558 10.6309C6.45652 10.6309 6.48798 10.6276 6.51951 10.6207C7.69901 10.364 8.77093 9.70476 9.53789 8.76449C10.219 7.92945 10.6323 6.9024 10.7248 5.83223C11.4478 6.24354 11.9426 6.74496 12.096 6.91119C12.098 6.91336 12.1003 6.91523 12.1023 6.91734C12.1044 6.91951 12.1062 6.92179 12.1083 6.92396C12.9126 7.7283 13.7723 8.12602 14.7856 8.12602C15.5753 8.12602 16.4582 7.88439 17.4807 7.40535C17.7005 7.3024 17.7952 7.04079 17.6922 6.82102C17.5893 6.6013 17.3277 6.50662 17.1079 6.6095C15.3005 7.4562 14.1231 7.46517 13.0584 6.60024C13.6163 6.09466 14.7776 5.23442 16.2206 5.23442C18.9433 5.23442 20.6668 5.83709 21.6448 7.13108C21.7313 7.24539 21.8627 7.30557 21.9957 7.30557C22.088 7.30557 22.1811 7.27662 22.2603 7.21668C22.454 7.07032 22.4923 6.79477 22.3459 6.60118C21.2039 5.09011 19.2003 4.35561 16.2206 4.35561C14.4468 4.35561 13.0806 5.37709 12.4189 5.99254C12.0536 5.65347 11.4711 5.18984 10.7185 4.8404C10.4505 2.1268 8.1552 0 5.37235 0C2.41003 0 0 2.41003 0 5.37235C0 6.59362 0.421154 7.78906 1.18583 8.73836C1.27577 8.84997 1.37027 8.95749 1.46847 9.06113C1.366 9.61594 1.31338 10.2311 1.31338 10.8934C1.31338 13.1877 2.65618 15.3385 3.78271 16.7389C4.46893 17.592 4.88118 18.6154 4.97487 19.6986C5.33954 23.915 6.80912 27.6232 7.42398 29.0218C7.68489 29.6153 8.27162 29.9987 8.91882 29.9987C9.81878 29.9987 10.5509 29.2666 10.5509 28.3666V25.9089C10.5509 25.6662 10.3542 25.4694 10.1115 25.4694Z" fill="#724C9F"/>
<path d="M24.6266 21.1933C23.9606 20.5273 22.8669 20.3809 21.5469 20.7811C20.9004 20.9771 20.2362 21.2971 19.6061 21.7073C19.7202 21.0254 19.8065 20.3531 19.863 19.6986C19.9568 18.615 20.3691 17.5916 21.0555 16.7386C22.1818 15.3378 23.5243 13.1866 23.5243 10.8929C23.5243 10.1017 23.4503 9.37882 23.3045 8.7444C23.2502 8.50787 23.0143 8.36022 22.7778 8.41459C22.5413 8.46896 22.3936 8.70479 22.448 8.94132C22.579 9.5113 22.6455 10.1679 22.6455 10.893C22.6455 12.0178 22.2508 13.8495 20.3707 16.1878C19.5747 17.177 19.0963 18.3648 18.9874 19.6229C18.9074 20.5511 18.7651 21.5172 18.5657 22.4967C18.4222 22.6228 18.2823 22.753 18.1477 22.8876C17.1665 23.8689 16.3987 25.1078 16.0412 26.2869C15.6969 27.4224 15.7583 28.3896 16.2058 29.062C16.116 29.0991 16.0191 29.1197 15.9191 29.1197C15.5036 29.1197 15.1656 28.7817 15.1656 28.3662V22.34C15.1656 20.5416 14.8492 18.9788 14.225 17.6949C13.8856 16.9973 13.1936 16.5639 12.4189 16.5639C11.6441 16.5639 10.9521 16.9973 10.6127 17.6951C9.98863 18.9804 9.67212 20.5432 9.67212 22.34V23.7392C9.67212 23.9819 9.86887 24.1786 10.1116 24.1786C10.3542 24.1786 10.551 23.9819 10.551 23.7392V22.34C10.551 20.6773 10.8377 19.2437 11.4032 18.0793C11.597 17.6807 11.9767 17.4428 12.4189 17.4428C12.8611 17.4428 13.2408 17.6807 13.4346 18.0792C14 19.2423 14.2868 20.6759 14.2868 22.34V28.3662C14.2868 29.2663 15.019 29.9985 15.9191 29.9985C16.2678 29.9985 16.6007 29.888 16.876 29.688C17.2382 29.8948 17.6762 29.9998 18.1729 29.9998C18.5886 29.9998 19.0454 29.9266 19.5331 29.7788C20.7122 29.4212 21.9511 28.6535 22.9323 27.6722C23.9135 26.691 24.6813 25.452 25.0388 24.273C25.439 22.9529 25.2926 21.8593 24.6266 21.1933ZM19.2781 28.9377C18.2976 29.235 17.4946 29.1648 17.0749 28.7451C16.2178 27.888 16.8981 25.5821 18.4674 23.8287L21.9914 27.3527C21.1699 28.0891 20.2006 28.658 19.2781 28.9377ZM22.6127 26.7311L19.0887 23.2071C19.9102 22.4708 20.8795 21.9019 21.802 21.6222C22.2026 21.5007 22.5736 21.4406 22.9009 21.4406C23.3746 21.4406 23.757 21.5666 24.0052 21.8148C24.8622 22.6718 24.1819 24.9777 22.6127 26.7311Z" fill="#724C9F"/>
<path d="M4.57389 8.54919H6.17086C6.63683 8.54919 7.01598 8.17005 7.01598 7.70407V7.01598H7.70407C8.17005 7.01598 8.54913 6.63683 8.54913 6.17086V4.57383C8.54913 4.10786 8.17005 3.72877 7.70407 3.72877H7.01598V3.04068C7.01598 2.5747 6.63683 2.19556 6.17086 2.19556H4.57389C4.10792 2.19556 3.72877 2.5747 3.72877 3.04068V3.72877H3.04068C2.5747 3.72877 2.19556 4.10786 2.19556 4.57383V6.1708C2.19556 6.63677 2.5747 7.01592 3.04068 7.01592H3.72877V7.70401C3.72883 8.17005 4.10792 8.54919 4.57389 8.54919ZM3.07448 6.13711V4.60764H4.16827C4.41095 4.60764 4.6077 4.41089 4.6077 4.16821V3.07443H6.13717V4.16821C6.13717 4.41089 6.33391 4.60764 6.5766 4.60764H7.67032V6.13711H6.5766C6.33391 6.13711 6.13717 6.33386 6.13717 6.57654V7.67032H4.6077V6.57654C4.6077 6.33386 4.41095 6.13711 4.16827 6.13711H3.07448Z" fill="#724C9F"/>
</svg>
