<svg width="31" height="30" viewBox="0 0 31 30" fill="none" xmlns="http://www.w3.org/2000/svg">
<path d="M27.2119 3.76647H25.7243C24.786 3.76647 23.8464 3.99185 23.0072 4.41832L21.4314 5.21897C21.1562 5.35879 20.8656 5.46734 20.567 5.54374C20.4934 4.99675 20.3165 4.46786 20.0442 3.98941C19.9227 3.77587 19.6537 3.70293 19.4437 3.82649C19.2337 3.94999 19.1618 4.22318 19.2834 4.43672C19.4996 4.81656 19.6397 5.23696 19.6972 5.67188C19.6406 5.6742 19.5839 5.67581 19.5273 5.67581H10.4724C10.416 5.67581 10.3596 5.6742 10.3033 5.67188C10.5207 4.02489 11.9117 2.75037 13.5909 2.75037H16.4091C16.9717 2.75037 17.5274 2.89596 18.016 3.17142C18.2283 3.29111 18.4957 3.21322 18.6135 2.99755C18.7312 2.78187 18.6546 2.51004 18.4424 2.39035C17.8236 2.04159 17.1206 1.85718 16.4091 1.85718H13.5909C11.4698 1.85718 9.71229 3.46486 9.43356 5.54398C9.13467 5.46758 8.84381 5.35897 8.56848 5.21903L6.99273 4.41838C6.15349 3.99191 5.21389 3.76652 4.27557 3.76652H2.78794C1.25068 3.76647 0 5.03742 0 6.59967C0 8.16192 1.25068 9.43294 2.78794 9.43294H3.3546C3.60262 10.2538 4.51774 10.8649 5.60611 10.8649C6.69449 10.8649 7.60954 10.2538 7.85763 9.43294H9.39395V10.4183C9.39395 12.3776 10.3687 14.1753 12.0013 15.2271C12.4274 15.5016 12.6818 15.9648 12.6818 16.466V26.1702C12.6818 26.9429 13.3004 27.5715 14.0606 27.5715H15.9394C16.6997 27.5715 17.3182 26.9429 17.3182 26.1702V16.466C17.3182 15.9648 17.5726 15.5016 17.9987 15.2271C19.6313 14.1752 20.6061 12.3776 20.6061 10.4182V9.43288H22.1424C22.3904 10.2538 23.3055 10.8648 24.3939 10.8648C25.4823 10.8648 26.3974 10.2538 26.6454 9.43288H27.2121C28.7493 9.43288 30 8.16186 30 6.59961C29.9999 5.03742 28.7492 3.76647 27.2119 3.76647ZM5.60605 9.97165C4.82588 9.97165 4.16676 9.52041 4.16676 8.98628C4.16676 8.45209 4.82588 8.00085 5.60605 8.00085C6.38622 8.00085 7.04534 8.45209 7.04534 8.98628C7.0454 9.52041 6.38628 9.97165 5.60605 9.97165ZM7.85757 8.53974C7.60954 7.71884 6.69443 7.10772 5.60605 7.10772C4.51768 7.10772 3.60262 7.71884 3.35454 8.53974H2.78788C1.73531 8.53974 0.878903 7.66942 0.878903 6.59967C0.878903 5.52992 1.73531 4.65966 2.78794 4.65966H4.27557C5.07818 4.65966 5.88185 4.85241 6.59968 5.21719L8.17544 6.01784C8.5611 6.21381 8.97196 6.3591 9.39395 6.45134V8.53968H7.85757V8.53974ZM12.4718 14.4727C11.0949 13.5856 10.2728 12.0699 10.2728 10.4182V6.56436C10.3393 6.56704 10.4059 6.56888 10.4724 6.56888H10.7724H10.7727C11.5664 6.56888 12.212 7.22508 12.212 8.03158V8.5089C12.212 8.7556 12.4088 8.95549 12.6515 8.95549C12.8941 8.95549 13.0909 8.7556 13.0909 8.5089V8.03158C13.0909 7.47905 12.9021 6.97094 12.5874 6.56888H17.4131C17.0982 6.971 16.9089 7.47887 16.9089 8.03158V10.4182C16.9089 11.2262 16.4477 11.9405 15.7614 12.1956C15.4889 12.2969 15.234 12.4326 14.9999 12.6006C14.7659 12.4326 14.511 12.2969 14.2385 12.1956C13.5521 11.9405 13.091 11.2262 13.091 10.4182C13.091 10.1715 12.8942 9.97159 12.6515 9.97159C12.4088 9.97159 12.2121 10.1715 12.2121 10.4182C12.2121 11.5997 12.9051 12.6511 13.9366 13.0345C14.1625 13.1185 14.3714 13.2351 14.5605 13.3813V19.9955H13.5606V16.4659C13.5606 15.6571 13.1536 14.912 12.4718 14.4727ZM15.9393 26.6782H14.0606C13.7849 26.6782 13.5606 26.4503 13.5606 26.1702V20.8888H16.4393V26.1702C16.4392 26.4503 16.215 26.6782 15.9393 26.6782ZM19.7271 10.4182C19.7271 12.0699 18.905 13.5856 17.5281 14.4727C16.8463 14.912 16.4392 15.6571 16.4392 16.4659V19.9955H15.4394V13.3813C15.6285 13.2351 15.8374 13.1185 16.0632 13.0346C17.0948 12.6512 17.7878 11.5998 17.7878 10.4182V8.03164C17.7878 7.22508 18.4335 6.56894 19.2271 6.56894H19.2274H19.5274C19.594 6.56894 19.6605 6.5671 19.727 6.56442V10.4182H19.7271ZM24.3938 9.97165C23.6137 9.97165 22.9545 9.52041 22.9545 8.98628C22.9545 8.45209 23.6137 8.00085 24.3938 8.00085C25.174 8.00085 25.8331 8.45209 25.8331 8.98628C25.8331 9.52041 25.174 9.97165 24.3938 9.97165ZM27.2119 8.53974H26.6453C26.3973 7.71884 25.4821 7.10772 24.3938 7.10772C23.3054 7.10772 22.3903 7.71884 22.1423 8.53974H20.6059V6.4514C21.0279 6.35916 21.4388 6.21387 21.8244 6.0179L23.4002 5.21725C24.118 4.85247 24.9217 4.65972 25.7243 4.65972H27.2119C28.2646 4.65972 29.121 5.52998 29.121 6.59973C29.121 7.66942 28.2646 8.53974 27.2119 8.53974Z" fill="#724C9F"/>
</svg>
