<svg width="30" height="30" viewBox="0 0 30 30" fill="none" xmlns="http://www.w3.org/2000/svg">
<g clip-path="url(#clip0_371_8671)">
<path d="M15 16.4062C13.0119 16.4062 11.1507 17.4755 10.1427 19.1966C10.0201 19.406 10.0904 19.6753 10.2998 19.7979C10.5092 19.9206 10.7784 19.8503 10.9011 19.6407C11.7521 18.1877 13.3227 17.2852 15 17.2852C17.617 17.2852 19.7461 19.4143 19.7461 22.0312C19.7461 24.6482 17.617 26.7773 15 26.7773C12.383 26.7773 10.2539 24.6482 10.2539 22.0312C10.2539 21.8257 10.2672 21.6189 10.2935 21.4167C10.3247 21.176 10.1549 20.9555 9.91424 20.9243C9.67354 20.8924 9.45311 21.0628 9.42188 21.3035C9.39076 21.5432 9.375 21.7881 9.375 22.0313C9.375 25.133 11.8983 27.6563 15 27.6563C18.1017 27.6563 20.625 25.133 20.625 22.0313C20.625 18.9296 18.1017 16.4062 15 16.4062ZM15.5273 18.1641H14.4727C14.0365 18.1641 13.6816 18.5189 13.6816 18.9551V20.7129H11.9238C11.4877 20.7129 11.1328 21.0677 11.1328 21.5039V22.5586C11.1328 22.9948 11.4877 23.3496 11.9238 23.3496H13.6816V25.1074C13.6816 25.5436 14.0365 25.8984 14.4727 25.8984H15.5273C15.9635 25.8984 16.3184 25.5436 16.3184 25.1074V23.3496H18.0762C18.5123 23.3496 18.8672 22.9948 18.8672 22.5586V21.5039C18.8672 21.0677 18.5123 20.7129 18.0762 20.7129H16.3184V18.9551C16.3184 18.5189 15.9635 18.1641 15.5273 18.1641ZM17.9883 21.5918V22.4707H16.0547C15.7154 22.4707 15.4395 22.7467 15.4395 23.0859V25.0195H14.5605V23.0859C14.5605 22.7467 14.2846 22.4707 13.9453 22.4707H12.0117V21.5918H13.9453C14.2846 21.5918 14.5605 21.3158 14.5605 20.9766V19.043H15.4395V20.9766C15.4395 21.3158 15.7154 21.5918 16.0547 21.5918H17.9883ZM21.5039 3.66211C21.5039 3.09674 21.0439 2.63672 20.4785 2.63672H9.52148C8.95611 2.63672 8.49609 3.09674 8.49609 3.66211V4.7168C8.49609 5.28217 8.95611 5.74219 9.52148 5.74219H20.4785C21.0439 5.74219 21.5039 5.28217 21.5039 4.7168V3.66211ZM20.625 4.7168C20.625 4.7976 20.5593 4.86328 20.4785 4.86328H9.52148C9.44074 4.86328 9.375 4.7976 9.375 4.7168V3.66211C9.375 3.58131 9.44074 3.51562 9.52148 3.51562H20.4785C20.5593 3.51562 20.625 3.58131 20.625 3.66211V4.7168ZM25.4004 14.0625H15.0619C14.6201 14.0625 14.21 13.8431 13.9649 13.4754L13.2508 12.4042C12.8423 11.7916 12.1589 11.4258 11.4225 11.4258H5.93379V2.19727C5.93379 1.47035 6.52518 0.878906 7.25215 0.878906H22.7479C23.4748 0.878906 24.0662 1.47035 24.0662 2.19727V12.4512C24.0662 12.6939 24.263 12.8906 24.5057 12.8906C24.7484 12.8906 24.9451 12.6939 24.9451 12.4512V2.19727C24.9451 0.985664 23.9595 0 22.7479 0H7.25215C6.04055 0 5.05488 0.985664 5.05488 2.19727V11.4258H4.59961C3.38801 11.4258 2.40234 12.4114 2.40234 13.623V27.8027C2.40234 29.0143 3.38801 30 4.59961 30H25.4004C26.612 30 27.5977 29.0143 27.5977 27.8027V16.2598C27.5977 15.0482 26.612 14.0625 25.4004 14.0625ZM26.7188 27.8027C26.7188 28.5296 26.1274 29.1211 25.4004 29.1211H4.59961C3.87264 29.1211 3.28125 28.5296 3.28125 27.8027V13.623C3.28125 12.8961 3.87264 12.3047 4.59961 12.3047H11.4225C11.8643 12.3047 12.2744 12.5241 12.5194 12.8918L13.2336 13.9629C13.642 14.5756 14.3255 14.9414 15.0619 14.9414H25.4004C26.1274 14.9414 26.7188 15.5329 26.7188 16.2598V27.8027ZM21.0645 9.25781H8.93555C8.69285 9.25781 8.49609 9.45451 8.49609 9.69727C8.49609 9.94002 8.69285 10.1367 8.93555 10.1367H21.0645C21.3071 10.1367 21.5039 9.94002 21.5039 9.69727C21.5039 9.45451 21.3071 9.25781 21.0645 9.25781ZM21.0645 7.5H8.93555C8.69285 7.5 8.49609 7.6967 8.49609 7.93945C8.49609 8.18221 8.69285 8.37891 8.93555 8.37891H21.0645C21.3071 8.37891 21.5039 8.18221 21.5039 7.93945C21.5039 7.6967 21.3071 7.5 21.0645 7.5Z" fill="#724C9F"/>
</g>
<defs>
<clipPath id="clip0_371_8671">
<rect width="30" height="30" fill="white"/>
</clipPath>
</defs>
</svg>
