<svg width="31" height="30" viewBox="0 0 31 30" fill="none" xmlns="http://www.w3.org/2000/svg">
<path d="M12.481 7.3057L14.9126 9.73254C15.0851 9.90469 15.3646 9.90439 15.5368 9.73189C15.709 9.55934 15.7087 9.2799 15.5362 9.1077L13.1053 6.68156C12.4733 6.03967 12.1251 5.19053 12.1251 4.29047C12.1251 2.41148 13.6541 0.882832 15.5334 0.882832C16.9297 0.882832 18.1699 1.71955 18.693 3.01447C18.7604 3.18129 18.9223 3.29051 19.1021 3.29057H19.1022C19.2821 3.29057 19.444 3.18141 19.5114 3.01465C20.035 1.71967 21.2755 0.882891 22.6717 0.882891C24.5509 0.882891 26.0799 2.41154 26.0799 4.29053C26.0799 5.19059 25.7318 6.03973 25.0998 6.68156L19.1023 12.6679L16.8975 10.4672C16.725 10.295 16.4455 10.2953 16.2734 10.4678C16.1011 10.6404 16.1014 10.9198 16.2739 11.092L18.7905 13.6039C19.0512 13.8424 19.1689 13.8424 19.4142 13.6039L25.7242 7.30564C25.725 7.30482 25.7282 7.30166 25.7289 7.3009C26.5246 6.49289 26.9628 5.42373 26.9628 4.29041C26.9628 1.92469 25.0378 0 22.6717 0C21.2117 0 19.8871 0.72668 19.1024 1.90693C18.3182 0.726562 16.9936 0 15.5334 0C13.1674 0 11.2424 1.92469 11.2424 4.29047C11.2424 5.42379 11.6807 6.49289 12.4764 7.30096C12.4771 7.30172 12.4803 7.30488 12.481 7.3057Z" fill="#724C9F"/>
<path d="M20.1049 3.65479H18.2768C18.033 3.65479 17.8354 3.85242 17.8354 4.09617V5.48291H16.4487C16.205 5.48291 16.0073 5.68055 16.0073 5.9243V7.75242C16.0073 7.99617 16.205 8.19381 16.4487 8.19381H17.8354V9.58055C17.8354 9.8243 18.033 10.0219 18.2768 10.0219H20.1049C20.3487 10.0219 20.5463 9.8243 20.5463 9.58055V8.19381H21.933C22.1767 8.19381 22.3744 7.99617 22.3744 7.75242V5.9243C22.3744 5.68055 22.1767 5.48291 21.933 5.48291H20.5463V4.09623C20.5463 3.85242 20.3487 3.65479 20.1049 3.65479ZM21.4916 6.36574V7.31104H20.1049C19.8612 7.31104 19.6635 7.50867 19.6635 7.75242V9.13916H18.7182V7.75242C18.7182 7.50867 18.5205 7.31104 18.2768 7.31104H16.8901V6.36574H18.2768C18.5205 6.36574 18.7182 6.16811 18.7182 5.92436V4.53762H19.6635V5.92436C19.6635 6.16811 19.8612 6.36574 20.1049 6.36574H21.4916Z" fill="#724C9F"/>
<path d="M29.3573 14.5465C28.865 13.7689 27.9222 13.508 27.1493 13.954L21.507 17.2121C21.3222 16.5226 20.692 16.0135 19.9451 16.0135H17.2512C16.1636 15.549 14.9859 15.103 13.7901 15.103C12.2172 15.103 10.7226 15.8076 9.46773 17.1405C8.9528 17.6875 8.57862 18.2321 8.34355 18.6168L7.47571 17.749C7.26765 17.5766 7.05958 17.5766 6.85152 17.749L5.91003 18.6905L5.42681 18.2069C5.25448 18.0344 4.97482 18.0344 4.80243 18.2069L2.16636 20.8435C1.99404 21.0158 1.99404 21.2952 2.1663 21.4675L3.8289 23.1313C4.00122 23.3038 4.28066 23.3039 4.4531 23.1316C4.62554 22.9592 4.62566 22.6797 4.45333 22.5074L3.10257 21.1557L5.11445 19.1433L12.8881 26.9225L10.8758 28.9344L5.81341 23.8681C5.64109 23.6956 5.36165 23.6955 5.18921 23.8678C5.01677 24.0402 5.01665 24.3196 5.18898 24.492L10.5635 29.8707C10.6462 29.9534 10.7585 30 10.8756 30H10.8757C10.9928 30 11.1051 29.9535 11.1878 29.8708L13.8245 27.2347C13.9968 27.0624 13.9969 26.7829 13.8246 26.6106L12.8957 25.681L13.8396 24.7371C14.012 24.5647 14.012 24.2852 13.8396 24.1129L12.9768 23.2501H15.4869C15.7306 23.2501 15.9283 23.0525 15.9283 22.8088C15.9283 22.565 15.7306 22.3674 15.4869 22.3674H12.0941L8.98837 19.2617C9.46304 18.4344 11.0959 15.9859 13.7901 15.9859C14.9011 15.9859 15.9989 16.4359 17.0099 16.8667C17.0607 16.8863 17.1146 16.8964 17.1689 16.8964H19.9451C20.8545 16.8964 21.0521 18.33 19.9451 18.364H14.6152C14.3715 18.364 14.1739 18.5616 14.1739 18.8054C14.1739 19.0491 14.3715 19.2468 14.6152 19.2468H19.9451C20.5974 19.2468 21.1703 18.8642 21.4251 18.2787L27.5907 14.7185C28.2617 14.328 29.1739 15.3432 28.2735 16.0242L20.833 21.8397C20.3984 22.18 19.8546 22.3674 19.3019 22.3674H17.4103C17.1666 22.3674 16.969 22.5651 16.969 22.8088C16.969 23.0526 17.1666 23.2502 17.4103 23.2502H19.3019C20.0509 23.2502 20.788 22.9961 21.377 22.5351L28.795 16.7371C29.5568 16.1573 29.7919 15.2991 29.3573 14.5465ZM12.274 25.0544L6.53435 19.3147L7.16364 18.6854L12.9033 24.4251L12.274 25.0544Z" fill="#724C9F"/>
</svg>
