<svg width="29" height="30" viewBox="0 0 29 30" fill="none" xmlns="http://www.w3.org/2000/svg">
<path d="M24.9154 18.5172C23.7793 18.5171 22.7234 19.0034 21.9907 19.842C21.835 19.6648 21.664 19.5045 21.4817 19.3603C22.6687 18.2306 23.5172 16.8926 23.9821 15.438C24.7444 15.4237 25.4727 15.1421 26.0229 14.6383C26.5746 14.1332 26.8758 13.4687 26.8709 12.7705C26.8709 12.1474 26.6325 11.5529 26.197 11.0763C26.1462 8.18632 24.8716 5.46335 22.5933 3.39147C22.4137 3.22817 22.1358 3.24141 21.9725 3.42094C21.8092 3.60048 21.8225 3.87844 22.002 4.04175C24.0225 5.87919 25.1859 8.26572 25.3096 10.8042C24.903 10.7816 24.4984 10.7287 24.1003 10.6458C23.3871 8.77297 21.4757 6.58484 18.793 5.98548C18.5608 5.93363 18.3297 6.07577 18.2712 6.30634C18.1139 6.92644 17.8264 7.57666 17.4399 8.18679C16.8856 9.06142 16.1906 9.7652 15.4827 10.1686C14.8705 10.5175 14.3204 10.5914 13.9735 10.3717C13.6014 10.1359 13.4381 9.55766 13.5258 8.78527C13.5454 8.61218 13.461 8.44384 13.3105 8.35607C13.16 8.26836 12.9718 8.27779 12.8309 8.38015C11.178 9.58062 9.54956 9.72875 9.06563 9.11404C8.66421 8.6041 8.94434 7.57343 9.76272 6.54939C9.8703 6.41468 9.88923 6.22958 9.81118 6.07595C9.73308 5.92232 9.57276 5.82792 9.40015 5.83595C7.88426 5.90228 6.42539 6.49677 5.18121 7.55515C4.18019 8.4067 3.37787 9.52543 2.95148 10.6559C2.58878 10.7387 2.19515 10.7882 1.74568 10.8074C2.01333 5.29255 7.19567 0.878908 13.5276 0.878908C16.0247 0.878908 18.4114 1.55784 20.4294 2.84227C20.6343 2.97264 20.9058 2.91229 21.0361 2.70751C21.1664 2.50272 21.1061 2.23108 20.9014 2.10082C18.742 0.726447 16.1922 0 13.5276 0C10.1529 0 6.97776 1.16426 4.58695 3.27839C2.22884 5.36357 0.909952 8.12679 0.858331 11.0763C0.422744 11.5528 0.184384 12.1472 0.184384 12.7674C0.179521 13.4687 0.480635 14.133 1.03235 14.6382C1.58396 15.1433 2.31462 15.4252 3.0791 15.4381C3.93275 18.0822 6.02531 20.2651 8.75977 21.4568C6.63768 22.7795 5.12912 24.9466 4.65433 27.4152C4.5518 27.9483 4.69131 28.4941 5.03695 28.9126C5.38242 29.3309 5.89172 29.5707 6.43412 29.5707H8.33333C8.57608 29.5707 8.77278 29.374 8.77278 29.1313C8.77278 28.8885 8.57608 28.6918 8.33333 28.6918H6.43418C6.15481 28.6918 5.89254 28.5683 5.71459 28.3528C5.53647 28.1371 5.46457 27.8559 5.51748 27.5812C5.9894 25.1271 7.59358 23.0027 9.8236 21.8635C9.7428 23.9525 11.437 25.7093 13.5277 25.7048C14.4 25.7048 15.2335 25.3983 15.894 24.8495C16.6944 26.3037 18.0611 27.6759 19.4146 28.6918H10.3842C10.1414 28.6918 9.94472 28.8885 9.94472 29.1313C9.94472 29.374 10.1414 29.5707 10.3842 29.5707H20.7279C20.8445 29.6391 20.9594 29.7038 21.0721 29.7645C21.3637 29.9216 21.6834 30 22.003 30C22.3245 30 22.646 29.9205 22.9389 29.7617C25.3775 28.4389 28.8098 25.281 28.8056 22.4015C28.8023 20.2585 27.0578 18.5172 24.9154 18.5172ZM25.5698 11.6928C25.843 12.0027 25.9919 12.3802 25.9919 12.7735C25.9951 13.223 25.7953 13.6551 25.4294 13.9901C25.0977 14.2937 24.6725 14.4836 24.2164 14.5412C24.3348 13.9656 24.3958 13.3756 24.3958 12.7764C24.3958 12.3765 24.3674 11.9754 24.3119 11.5776C24.7277 11.6452 25.1483 11.6839 25.5698 11.6928ZM1.62591 13.99C1.25999 13.6549 1.06019 13.2229 1.06335 12.7705C1.06335 12.3804 1.21189 12.0036 1.48435 11.6939C1.94595 11.6868 2.35874 11.6533 2.74148 11.5913C2.68722 11.9846 2.65951 12.3811 2.65951 12.7764C2.65951 13.3792 2.72255 13.9692 2.84197 14.5418C2.3847 14.4847 1.95831 14.2944 1.62591 13.99ZM3.53836 12.7764C3.53836 12.2275 3.59742 11.6759 3.71338 11.1363C4.32873 9.31203 6.15475 7.34275 8.50987 6.8341C7.89405 7.93261 7.83129 8.96691 8.37493 9.65756C9.14145 10.6313 10.8937 10.5573 12.6447 9.54799C12.7217 10.2557 13.018 10.8067 13.503 11.114C14.1429 11.5196 15.0004 11.4549 15.9177 10.9322C16.7482 10.4588 17.5524 9.65088 18.1821 8.65707C18.5314 8.10582 18.8098 7.52205 18.9991 6.94689C21.2371 7.61556 22.8022 9.53727 23.341 11.1326C23.4575 11.6732 23.5168 12.2261 23.5168 12.7763C23.5084 15.1322 22.5026 17.2435 20.7046 18.8823C20.2024 18.6508 19.6485 18.5258 19.0737 18.5258C19.0718 18.5258 19.0698 18.5258 19.0677 18.5258C17.2698 18.5285 15.7552 19.7571 15.3138 21.4178C14.7262 21.5111 14.1267 21.5586 13.5274 21.5586C8.01956 21.5587 3.53836 17.619 3.53836 12.7764ZM13.5276 24.826C12.0044 24.826 10.7594 23.6153 10.7025 22.1058C11.6037 22.3217 12.5507 22.4376 13.5276 22.4376C14.0827 22.4376 14.6383 22.3997 15.1858 22.3251C15.169 22.8909 15.2893 23.4515 15.5047 24.0177C14.9779 24.5338 14.2712 24.826 13.5276 24.826ZM22.5198 28.9891C22.1972 29.1642 21.8118 29.1647 21.4888 28.9907C18.9986 27.5308 16.3038 25.2268 16.0623 22.4206C16.0599 20.7601 17.4088 19.4072 19.0692 19.4047C20.11 19.4028 21.0637 19.9309 21.6204 20.8096C21.7009 20.9371 21.8411 21.0142 21.9918 21.0142C22.1434 21.014 22.2836 20.9364 22.3639 20.8085C22.9186 19.9256 23.8707 19.3975 24.9108 19.396H24.9154C26.5736 19.396 27.9241 20.744 27.9266 22.4028C27.93 24.6578 25.1228 27.5773 22.5198 28.9891Z" fill="#724C9F"/>
<path d="M22.9125 23.1753H22.8196V23.0823C22.8196 22.7612 22.5583 22.5 22.2372 22.5H21.7525C21.4314 22.5 21.1702 22.7612 21.1702 23.0823V23.1753H21.0772C20.7561 23.1753 20.4949 23.4365 20.4949 23.7576V24.2424C20.4949 24.5635 20.7561 24.8247 21.0772 24.8247H21.1702V24.9177C21.1702 25.2388 21.4314 25.5 21.7525 25.5H22.2372C22.5583 25.5 22.8196 25.2388 22.8196 24.9177V24.8247H22.9125C23.2336 24.8247 23.4949 24.5635 23.4949 24.2424V23.7576C23.4949 23.4365 23.2336 23.1753 22.9125 23.1753ZM22.9634 24.2424C22.9634 24.2704 22.9405 24.2932 22.9125 24.2932H22.5538C22.407 24.2932 22.288 24.4122 22.288 24.559V24.9177C22.288 24.9457 22.2652 24.9686 22.2372 24.9686H21.7524C21.7244 24.9686 21.7016 24.9457 21.7016 24.9177V24.559C21.7016 24.4122 21.5826 24.2932 21.4358 24.2932H21.0771C21.0491 24.2932 21.0262 24.2704 21.0262 24.2424V23.7576C21.0262 23.7296 21.0491 23.7068 21.0771 23.7068H21.4358C21.5826 23.7068 21.7016 23.5878 21.7016 23.441V23.0823C21.7016 23.0543 21.7244 23.0315 21.7524 23.0315H22.2372C22.2652 23.0315 22.288 23.0543 22.288 23.0823V23.4411C22.288 23.5879 22.407 23.7068 22.5538 23.7068H22.9125C22.9405 23.7068 22.9634 23.7296 22.9634 23.7577V24.2424Z" fill="#724C9F"/>
<path d="M8.6758 12.5081C8.37046 12.5081 8.12305 12.7441 8.12305 13.0354V13.8792C8.12305 14.1705 8.37046 14.4065 8.6758 14.4065C8.98113 14.4065 9.22854 14.1705 9.22854 13.8792V13.0354C9.22854 12.7441 8.98106 12.5081 8.6758 12.5081Z" fill="#724C9F"/>
<path d="M17.8806 14.4065C18.186 14.4065 18.4334 14.1705 18.4334 13.8792V13.0354C18.4334 12.7441 18.186 12.5081 17.8806 12.5081C17.5753 12.5081 17.3279 12.7441 17.3279 13.0354V13.8792C17.3279 14.1704 17.5753 14.4065 17.8806 14.4065Z" fill="#724C9F"/>
<path d="M14.9084 17.2004C15.109 16.9809 15.0849 16.6478 14.8547 16.4565C14.6246 16.2651 14.2754 16.288 14.0749 16.5076C13.8739 16.7278 13.5834 16.8541 13.2783 16.8541C12.9731 16.8541 12.6827 16.7278 12.4817 16.5076C12.2811 16.288 11.9319 16.2652 11.7019 16.4565C11.4717 16.6478 11.4477 16.9809 11.6482 17.2004C12.0593 17.6506 12.6534 17.9087 13.2783 17.9087C13.9032 17.9087 14.4973 17.6506 14.9084 17.2004Z" fill="#724C9F"/>
</svg>
