<svg width="26" height="30" viewBox="0 0 26 30" fill="none" xmlns="http://www.w3.org/2000/svg">
<path d="M24.6921 13.5973L24.5255 13.4531C24.146 13.1261 23.5801 13.133 23.2087 13.4697L20.5886 15.852C20.5284 15.9067 20.4632 15.9544 20.3946 15.9956L19.6749 13.9265C19.5953 13.6973 19.3447 13.5762 19.1155 13.6558C18.8863 13.7355 18.7651 13.986 18.8448 14.2153L19.5252 16.1715H16.5541V15.05C16.5541 14.8073 16.3573 14.6105 16.1146 14.6105C15.8719 14.6105 15.6751 14.8073 15.6751 15.05V16.1715H13.3723C13.3724 16.1647 13.3728 16.1581 13.3728 16.1513V15.6589C13.3728 15.2942 13.0761 14.9975 12.7114 14.9975H11.0952C10.7777 14.9975 10.4678 15.127 10.2446 15.353L8.60812 17.0106C8.53025 17.0758 8.4324 17.1116 8.33132 17.1116H6.80688V15.1167C6.80688 14.9274 6.68565 14.7594 6.506 14.6996C6.32647 14.6399 6.12872 14.7021 6.01534 14.8536L5.24711 15.8818L2.94783 14.4934L4.8724 11.5601C5.08785 11.2324 5.45049 11.0368 5.84237 11.0368H8.36765C8.71505 12.4844 10.0151 13.5335 11.5395 13.5335C13.0638 13.5335 14.3639 12.4844 14.7113 11.0368H16.9143C17.4074 11.0368 17.8477 11.3496 18.0098 11.8152L18.1715 12.2799C18.2516 12.5099 18.5027 12.63 18.731 12.5504C18.9602 12.4707 19.0813 12.2201 19.0016 11.9909L18.8399 11.5263C18.5549 10.7078 17.7811 10.1579 16.9143 10.1579H13.7426V9.46855C14.2733 9.17863 14.6703 8.67408 14.8171 8.07249C15.2493 8.02702 15.6775 7.84046 16.0184 7.53905C16.4379 7.16827 16.6688 6.67081 16.6688 6.13831C16.6688 5.80057 16.598 5.50303 16.4684 5.2618V3.78751C16.4684 1.69905 14.7691 0 12.6803 0H10.3987C8.30994 0 6.61059 1.69911 6.61059 3.78751V5.2618C6.48104 5.50297 6.4102 5.80057 6.4102 6.13825C6.4102 6.67022 6.64095 7.16727 7.05995 7.538C7.40097 7.8397 7.82947 8.02661 8.26195 8.07226C8.4089 8.67402 8.80611 9.17869 9.33697 9.46861V10.1578H5.84243C5.15377 10.1578 4.51668 10.5014 4.13787 11.0775L0.671332 16.3603C0.366995 16.8241 0.227014 17.3616 0.266565 17.9146C0.283909 18.1568 0.494847 18.3393 0.736254 18.3216C0.978365 18.3043 1.16059 18.0941 1.14325 17.8519C1.11758 17.4928 1.20852 17.1437 1.40616 16.8424L2.46536 15.2286L4.71836 16.5891L4.19605 17.2876C4.09644 17.4208 4.08056 17.5989 4.1551 17.7476C4.22957 17.8963 4.38168 17.9902 4.54803 17.9902H8.33132C8.6513 17.9902 8.95986 17.8731 9.20004 17.6604C9.20736 17.6539 9.21451 17.6472 9.22142 17.6401L10.87 15.9703C10.9291 15.9104 11.0112 15.8762 11.0952 15.8762H12.4939V16.151C12.4939 16.3794 12.3082 16.5652 12.0798 16.5652H11.3429C11.1761 16.5652 11.0237 16.6596 10.9494 16.8089L10.0223 18.673C9.83719 19.0453 9.48808 19.2944 9.08578 19.3521C9.08068 19.3528 9.07558 19.3532 9.07043 19.354C8.91017 19.375 9.24861 19.363 2.76835 19.3651C2.56515 19.3651 2.36628 19.3278 2.17767 19.2545C2.11456 19.2298 2.05239 19.201 1.99292 19.1688C1.77952 19.0532 1.5128 19.1325 1.39719 19.3459C1.28159 19.5593 1.36087 19.826 1.57427 19.9416C1.66567 19.9911 1.76118 20.0354 1.85856 20.0734C2.1496 20.1866 2.45564 20.244 2.76829 20.244H5.92791V23.7398H1.37106C1.12837 23.7398 0.931607 23.9366 0.931607 24.1793C0.931607 24.422 1.12837 24.6187 1.37106 24.6187H8.95646C8.95634 24.779 8.96062 28.2088 8.96314 29.1211H1.37112C1.12842 29.1211 0.931665 29.3178 0.931665 29.5605C0.931665 29.8032 1.12842 30 1.37112 30H13.5651C14.7608 30 15.8645 29.4019 16.5174 28.4C17.1703 27.3981 17.2718 26.1469 16.7891 25.053L16.554 24.5203V19.5886L17.2088 19.5308L17.2524 19.8211C17.3178 20.2564 17.6937 20.5696 18.1213 20.5696C18.1227 20.5696 18.1243 20.5694 18.1258 20.5694L18.9083 23.357C19.0352 23.8091 19.3321 24.182 19.7444 24.4069C20.1584 24.6328 20.6329 24.6793 21.0801 24.5419C21.529 24.4039 21.8946 24.0977 22.1094 23.6799C22.3242 23.2623 22.3604 22.787 22.2115 22.3418L21.4507 20.0666C21.7884 19.9586 22.027 19.6565 22.0578 19.3072C22.0766 19.3078 22.0955 19.3092 22.1142 19.3092C22.523 19.3092 22.9178 19.1754 23.2477 18.9212C23.6487 18.6123 23.9021 18.1655 23.9615 17.6628L24.0156 17.2036L25.0147 15.3403C25.3297 14.7518 25.1972 14.035 24.6921 13.5973ZM9.07845 7.55587V4.21027C9.07845 3.81623 9.34154 3.47292 9.71397 3.36687L10.0774 4.02757C10.4654 4.73293 11.2622 5.13336 12.0601 5.02396L14.0006 4.75701C14.0006 4.75701 14 7.60017 13.9989 7.62191C13.9989 7.62296 13.9988 7.62401 13.9988 7.62501C13.9629 8.30915 13.3951 8.85478 12.7021 8.85478H10.3774C9.66117 8.85484 9.07845 8.27212 9.07845 7.55587ZM15.4363 6.88057C15.2783 7.02026 15.0804 7.12063 14.8795 7.16991V5.76196C15.1033 5.53215 15.3601 5.4602 15.5179 5.51422C15.6908 5.57317 15.7899 5.80063 15.7899 6.13831C15.7899 6.49339 15.5976 6.73796 15.4363 6.88057ZM10.3986 0.87891H12.6803C14.2844 0.87891 15.5895 2.18374 15.5895 3.78751V4.63162C15.3568 4.59758 15.1132 4.63127 14.8794 4.72379V4.68752C14.8794 4.45097 14.7772 4.22621 14.5989 4.07076C14.4206 3.91531 14.1841 3.8447 13.9497 3.87687L11.9404 4.15326C11.5004 4.21384 11.0612 3.99289 10.8473 3.604L10.4474 2.87702C10.2838 2.5796 9.95186 2.42269 9.62156 2.48626C8.79755 2.64505 8.19943 3.37009 8.19943 4.21033V4.72396C7.96564 4.63144 7.72206 4.59775 7.48939 4.63174V3.78751C7.4895 2.18374 8.79451 0.87891 10.3986 0.87891ZM7.28911 6.13831C7.28911 5.8008 7.38814 5.5734 7.56075 5.51446C7.71849 5.46049 7.97536 5.53215 8.19954 5.76172V7.16979C7.99851 7.12034 7.8004 7.01973 7.64232 6.87981C7.48118 6.73719 7.28911 6.49286 7.28911 6.13831ZM9.67096 11.0368C9.97143 11.0368 10.2159 10.7923 10.2159 10.4918V9.72713C10.3944 9.74031 12.8539 9.72783 12.8637 9.72713V10.4918C12.8637 10.7923 13.1082 11.0368 13.4087 11.0368H13.7983C13.4775 11.9864 12.5798 12.6545 11.5395 12.6545C10.4992 12.6545 9.60146 11.9863 9.28072 11.0368H9.67096ZM5.71276 16.727L5.92797 16.439V17.1114H5.4253L5.71276 16.727ZM6.80688 20.2442H8.81326L9.79793 23.74C9.18867 23.74 7.51833 23.74 6.80688 23.74V20.2442ZM15.7811 27.9202C15.291 28.6722 14.4625 29.1212 13.5651 29.1212H9.84475C9.8417 28.3536 9.83555 24.7817 9.83584 24.6188H10.0395C10.2592 24.6188 10.4613 24.5183 10.594 24.3429C10.7269 24.1673 10.7688 23.945 10.7091 23.7333L10.0805 21.5017H14.2613L15.9849 25.408C16.3473 26.2291 16.2712 27.1682 15.7811 27.9202ZM15.6751 22.5285L14.4617 19.7785L14.4651 19.7732L15.6751 19.6664V22.5285ZM21.1832 19.2307L18.1216 19.6906L18.0557 19.2528C18.0135 18.9721 18.2075 18.7093 18.4882 18.6672C20.6366 18.3453 20.5381 18.3543 20.6093 18.3543C20.8559 18.3543 21.0783 18.5339 21.1172 18.7926C21.1181 18.7985 21.1875 19.2601 21.1832 19.2307ZM21.3276 23.2782C21.2221 23.4836 21.0423 23.6341 20.8217 23.7019C20.6012 23.7697 20.3681 23.7461 20.1653 23.6356C19.9627 23.525 19.8168 23.3418 19.7544 23.1196L19.0041 20.447L20.5721 20.2113L21.3779 22.6207C21.451 22.8395 21.4332 23.073 21.3276 23.2782ZM24.2398 14.9254L23.2015 16.8619C23.1755 16.9105 23.1588 16.9634 23.1524 17.0182L23.0885 17.5601C23.0572 17.8257 22.9232 18.0619 22.7112 18.2252C22.4992 18.3885 22.2365 18.458 21.9712 18.4204L21.925 18.4139C21.8341 18.1492 21.6663 17.9181 21.4363 17.7482C21.1369 17.527 20.7694 17.4357 20.4012 17.491L18.3576 17.7982C17.8577 17.8733 17.4594 18.2068 17.2779 18.6426L14.3884 18.8977C14.1051 18.9223 13.8495 19.0832 13.7049 19.328C13.5604 19.5728 13.5428 19.874 13.6576 20.1334L13.8736 20.6228H9.83309L9.6849 20.0968C10.1661 19.9084 10.569 19.5477 10.8093 19.0645L11.6151 17.4442H12.0797C12.4435 17.4442 12.7725 17.2929 13.0077 17.0503H19.7621C20.2873 17.0503 20.7907 16.8557 21.1798 16.5024L23.7996 14.1203C23.8423 14.0815 23.9078 14.081 23.951 14.1182L24.1167 14.2617C24.3091 14.4284 24.3597 14.7015 24.2398 14.9254Z" fill="#724C9F"/>
</svg>
