<svg width="28" height="30" viewBox="0 0 28 30" fill="none" xmlns="http://www.w3.org/2000/svg">
<path d="M27.776 0.0706202C27.6507 -0.0105322 27.4928 -0.0224268 27.3565 0.038628C25.3606 0.935114 23.1493 1.40902 20.9615 1.40902C18.7738 1.40902 16.5625 0.935172 14.5666 0.038628C14.4518 -0.012876 14.3206 -0.012876 14.2058 0.038628C12.2098 0.935114 9.99856 1.40902 7.81084 1.40902C5.62306 1.40902 3.41167 0.935172 1.41591 0.038628C1.12933 -0.0899855 0.795166 0.126753 0.795166 0.440289V14.0607C0.795166 14.0649 0.795225 14.0691 0.795342 14.0733C0.837119 15.5252 1.78681 18.4327 3.7732 21.3855C5.5432 24.0167 8.79112 27.6409 14.2127 29.9644C14.2681 29.9882 14.3272 30 14.3862 30C14.4453 30 14.5043 29.9882 14.5597 29.9644C19.9814 27.6409 23.2293 24.0167 24.9993 21.3855C26.9856 18.4328 27.9354 15.5253 27.9771 14.0733C27.9773 14.0691 27.9773 14.0649 27.9773 14.0607V0.440289C27.9772 0.290933 27.9014 0.151714 27.776 0.0706202ZM27.0966 14.054C27.062 15.1673 26.2816 17.9014 24.2686 20.8939C22.5836 23.3986 19.5065 26.8386 14.3862 29.0799C9.26602 26.8386 6.18885 23.3987 4.50392 20.8939C2.49087 17.9014 1.71046 15.1673 1.67589 14.054V1.10533C3.6171 1.88146 5.72414 2.28963 7.81084 2.28963C10.0563 2.28963 12.3253 1.81707 14.3862 0.921637C16.4471 1.81707 18.7161 2.28963 20.9615 2.28963C23.0482 2.28963 25.1553 1.88152 27.0966 1.10533V14.054Z" fill="#724C9F"/>
<path d="M25.6583 5.59668C25.9015 5.59668 26.0986 5.39957 26.0986 5.15634V3.09905C26.0986 2.96194 26.0348 2.83269 25.9259 2.74937C25.817 2.66599 25.6755 2.6381 25.5432 2.67401C24.0391 3.08118 22.4976 3.28761 20.9616 3.28761C18.7945 3.28761 16.5764 2.86591 14.5473 2.0681C14.4438 2.02743 14.3287 2.02743 14.2251 2.0681C12.196 2.86591 9.97796 3.28761 7.81087 3.28761C6.27483 3.28761 4.73334 3.08112 3.22924 2.67401C3.09693 2.63821 2.95543 2.66605 2.84656 2.74937C2.7377 2.83269 2.67383 2.96194 2.67383 3.09905V14.0284C2.67383 14.0346 2.67395 14.0409 2.67424 14.0471C2.71531 15.0125 3.47322 17.5738 5.332 20.337C6.85215 22.5966 9.62435 25.7428 14.1985 27.8985C14.2579 27.9266 14.3221 27.9405 14.3862 27.9405C14.4503 27.9405 14.5145 27.9266 14.5739 27.8985C19.148 25.7428 21.9203 22.5966 23.4404 20.337C25.2992 17.5739 26.057 15.0126 26.0982 14.0471C26.0984 14.0409 26.0986 14.0347 26.0986 14.0284V7.30896C26.0986 7.06574 25.9014 6.86863 25.6583 6.86863C25.4151 6.86863 25.2179 7.06574 25.2179 7.30896V14.0184C25.1819 14.7624 24.5256 17.146 22.7097 19.8453C21.2723 21.9821 18.6669 24.9455 14.3862 27.0123C10.1055 24.9455 7.50009 21.982 6.06272 19.8453C4.24684 17.146 3.59059 14.7624 3.55449 14.0184V3.66531C4.9567 3.99929 6.38569 4.16833 7.81087 4.16833C10.0299 4.16833 12.2996 3.74751 14.3862 2.95023C16.4729 3.74751 18.7424 4.16833 20.9616 4.16833C22.3866 4.16833 23.8157 3.99929 25.2179 3.66536V5.1564C25.218 5.39962 25.4152 5.59668 25.6583 5.59668Z" fill="#724C9F"/>
<path d="M24.0909 11.2438L21.434 8.58694C21.262 8.41503 20.9832 8.41503 20.8113 8.58694C20.6394 8.75898 20.6394 9.03771 20.8113 9.20968L21.1642 9.56253L20.1264 10.6003L19.4414 9.91538C19.2694 9.74347 18.9906 9.74347 18.8187 9.91538L12.1767 16.5575C12.094 16.6401 12.0477 16.7521 12.0477 16.8689V18.6791L10.8482 19.8786C10.6786 20.0482 10.6786 20.3317 10.8482 20.5013L11.2011 20.8541L9.85188 22.2033C9.69157 22.3636 9.68091 22.6284 9.82844 22.8008C9.99309 22.993 10.2955 23.0051 10.4746 22.8261L11.8237 21.4769L12.1767 21.8297C12.3463 21.9994 12.6297 21.9994 12.7993 21.8297L13.9988 20.6303H15.809C15.9258 20.6303 16.0378 20.5839 16.1203 20.5014L22.7624 13.8592C22.9344 13.6872 22.9344 13.4085 22.7624 13.2365L22.0774 12.5515L23.1152 11.5137L23.4683 11.8666C23.6473 12.0456 23.9497 12.0337 24.1144 11.8413C24.2619 11.6689 24.2513 11.4041 24.0909 11.2438ZM12.488 20.8957L11.7823 20.19L12.488 19.4842L13.1938 20.19L12.488 20.8957ZM15.6267 19.7497H13.9989L12.9284 18.6791V17.0512L13.4843 16.4952L14.5015 17.5124C14.6805 17.6914 14.9829 17.6794 15.1476 17.4871C15.2952 17.3147 15.2845 17.0499 15.1242 16.8896L14.1071 15.8725L15.477 14.5026L16.4941 15.5196C16.6732 15.6987 16.9756 15.6867 17.1403 15.4943C17.2879 15.322 17.2772 15.0572 17.1168 14.8969L16.0997 13.8798L17.4697 12.5099L18.4867 13.527C18.6658 13.706 18.9682 13.694 19.1329 13.5017C19.2805 13.3293 19.2698 13.0645 19.1094 12.9042L18.0923 11.8871L19.1302 10.8493L21.8286 13.5476L15.6267 19.7497ZM21.4549 11.9288L20.7491 11.2231L21.7869 10.1853L22.4927 10.891L21.4549 11.9288Z" fill="#724C9F"/>
<path d="M14.8557 8.45409H12.9477V6.54605C12.9477 6.30282 12.7505 6.10571 12.5074 6.10571H9.68935C9.44619 6.10571 9.24902 6.30282 9.24902 6.54605V8.45409H7.34097C7.0978 8.45409 6.90063 8.6512 6.90063 8.89443V11.7124C6.90063 11.9557 7.0978 12.1528 7.34097 12.1528H9.24902V14.0608C9.24902 14.304 9.44619 14.5012 9.68935 14.5012H12.5074C12.7505 14.5012 12.9477 14.304 12.9477 14.0608V12.1528H14.8557C15.0989 12.1528 15.2961 11.9557 15.2961 11.7124V8.89443C15.2961 8.65115 15.099 8.45409 14.8557 8.45409ZM14.4155 11.272H12.5074C12.2643 11.272 12.0671 11.4692 12.0671 11.7124V13.6204H10.1297V11.7124C10.1297 11.4692 9.93251 11.272 9.68935 11.272H7.7813V9.33464H9.68935C9.93251 9.33464 10.1297 9.13753 10.1297 8.89431V6.98626H12.0671V8.89431C12.0671 9.13753 12.2643 9.33464 12.5074 9.33464H14.4155V11.272Z" fill="#724C9F"/>
</svg>
