<svg width="31" height="30" viewBox="0 0 31 30" fill="none" xmlns="http://www.w3.org/2000/svg">
<path d="M11.1296 20.3441C11.7213 20.3441 12.2925 20.0962 12.6968 19.6637C12.8624 19.4867 12.853 19.2088 12.6759 19.0432C12.4989 18.8776 12.221 18.8871 12.0554 19.0641C11.813 19.3233 11.4842 19.4661 11.1296 19.4661C10.7625 19.4661 10.4136 19.307 10.1725 19.0295C10.0134 18.8465 9.73612 18.827 9.55314 18.9861C9.37015 19.1451 9.35071 19.4224 9.50973 19.6054C9.9177 20.0749 10.5082 20.3441 11.1296 20.3441Z" fill="#724C9F"/>
<path d="M17.987 20.3442C18.5787 20.3442 19.1499 20.0963 19.5542 19.6638C19.7198 19.4867 19.7104 19.2089 19.5333 19.0433C19.3563 18.8777 19.0784 18.8871 18.9128 19.0641C18.6704 19.3234 18.3416 19.4662 17.987 19.4662C17.6199 19.4662 17.271 19.307 17.0299 19.0296C16.8709 18.8465 16.5936 18.827 16.4106 18.9861C16.2276 19.1451 16.2081 19.4224 16.3671 19.6054C16.7751 20.0749 17.3655 20.3442 17.987 20.3442Z" fill="#724C9F"/>
<path d="M28.6714 8.53994C28.268 8.53994 27.9084 8.68561 27.5912 8.81406C27.5339 8.83726 27.4777 8.86004 27.4224 8.88154V7.91531C27.4224 7.46459 27.0557 7.09786 26.6049 7.09786H25.1005C25.0378 7.09786 25.0008 7.06219 24.9844 7.04093C24.9675 7.01908 24.9415 6.97304 24.9579 6.90996C25.0027 6.73705 25.0738 6.56297 25.149 6.37876C25.2887 6.03651 25.4471 5.64864 25.4471 5.20384C25.4471 4.08655 24.5382 3.17761 23.4209 3.17761C22.3036 3.17761 21.3947 4.08655 21.3947 5.20389C21.3947 5.62176 21.556 6.02867 21.6983 6.38766C21.7724 6.57457 21.8424 6.75117 21.8838 6.91043C21.9 6.97322 21.8742 7.01914 21.8573 7.04093C21.8409 7.06219 21.8039 7.09792 21.7411 7.09792H20.2366C19.7858 7.09792 19.4191 7.46465 19.4191 7.91537V8.05126C19.0599 7.81884 18.6844 7.60898 18.2951 7.424C18.4635 6.85279 18.4654 6.23719 18.4299 5.78676C18.4021 5.43251 18.2004 5.12798 17.914 4.9539C18.1776 4.1163 18.1992 3.20309 17.923 2.3601C17.453 0.926397 16.1233 -5.85706e-05 14.5354 2.77741e-09C12.9498 5.85762e-05 11.6217 0.926455 11.1519 2.3601C10.8757 3.20309 10.8968 4.11648 11.1605 4.95408C10.8744 5.12822 10.6728 5.43256 10.6449 5.78658C10.6094 6.23684 10.6112 6.85209 10.7796 7.42324C9.54216 8.01126 8.44069 8.84792 7.57533 9.87366C6.25497 11.4387 5.52778 13.3996 5.52778 15.3951V17.5083H4.88786C3.72817 17.5083 2.78467 18.4517 2.78467 19.6114C2.78467 20.7711 3.72817 21.7146 4.88786 21.7146H5.55771C5.60246 22.2764 5.69817 22.8317 5.84612 23.3727C5.89954 23.5678 6.07637 23.696 6.26932 23.696C6.30768 23.696 6.34669 23.6909 6.38541 23.6803C6.61929 23.6164 6.757 23.3749 6.69304 23.1411C6.50332 22.4474 6.40685 21.7274 6.40591 21.0009V18.2997C10.0859 17.8519 12.1216 15.6997 14.2718 13.425C14.3599 13.3318 14.4484 13.2383 14.5373 13.1444C14.6263 13.2383 14.7147 13.3318 14.8028 13.425C16.953 15.6997 18.9888 17.8521 22.6689 18.2997V20.9905C22.6689 25.4742 19.0211 29.122 14.5373 29.122C11.5656 29.122 8.83137 27.5016 7.40166 24.8932C7.28515 24.6806 7.01835 24.6026 6.80567 24.7191C6.59305 24.8357 6.51515 25.1026 6.63165 25.3151C8.21553 28.2048 11.2448 30 14.5373 30C19.2614 30 23.1477 26.3451 23.5177 21.7146H24.1869C25.3466 21.7146 26.29 20.7711 26.29 19.6114C26.29 18.4517 25.3466 17.5082 24.1869 17.5082H23.5469V15.395C23.5469 14.3183 23.3341 13.252 22.9316 12.2522C23.081 12.1817 23.2471 12.1425 23.4209 12.1425C23.9701 12.1425 24.4441 12.533 24.548 13.0709C24.6216 13.4524 24.9587 13.7294 25.3496 13.7294H26.6049C27.0557 13.7294 27.4224 13.3627 27.4224 12.912V11.9457C27.4778 11.9672 27.5342 11.99 27.5917 12.0133C27.9093 12.1418 28.2692 12.2874 28.6715 12.2874C29.7046 12.2874 30.5451 11.4469 30.5451 10.4138C30.5451 9.38047 29.7046 8.53994 28.6714 8.53994ZM5.52772 20.8365H4.88786C4.21228 20.8365 3.66274 20.2869 3.66274 19.6114C3.66274 18.9359 4.21234 18.3863 4.88786 18.3863H5.52772V20.8365ZM23.5469 18.3862H24.187C24.8625 18.3862 25.412 18.9358 25.412 19.6113C25.412 20.2869 24.8624 20.8364 24.187 20.8364H23.5469V18.3862ZM11.9863 2.63346C12.4108 1.33776 13.6247 0.878074 14.5353 0.878015C15.4477 0.878015 16.6638 1.3377 17.0885 2.6334C17.3161 3.32802 17.2796 4.09949 17.035 4.79845H12.0396C11.795 4.09955 11.7587 3.32808 11.9863 2.63346ZM11.5202 5.85552C11.5283 5.75343 11.6101 5.67646 11.7106 5.67646H17.3642C17.4647 5.67646 17.5465 5.75337 17.5546 5.85541V5.85552C17.5895 6.29916 17.5848 6.93052 17.364 7.41879C17.332 7.4896 17.2628 7.53541 17.1876 7.53541H11.8871C11.8121 7.53541 11.7429 7.48966 11.7108 7.41885C11.49 6.9304 11.4853 6.2991 11.5202 5.85552ZM28.6715 11.4093C28.44 11.4093 28.1879 11.3073 27.921 11.1992C27.7331 11.1233 27.5388 11.0447 27.326 10.9904C27.1368 10.9427 26.9402 10.9841 26.7864 11.1039C26.6326 11.2238 26.5443 11.4044 26.5443 11.5993V12.8513H25.3991C25.1953 11.9285 24.3718 11.2644 23.421 11.2644C22.4697 11.2644 21.6462 11.9286 21.4423 12.8513H20.2971V12.2421C20.2971 11.9996 20.1006 11.8031 19.8581 11.8031C19.6156 11.8031 19.4191 11.9996 19.4191 12.2421V12.9119C19.4191 13.3626 19.7858 13.7294 20.2366 13.7294H21.4919C21.8826 13.7294 22.2197 13.4524 22.2935 13.0709C22.2938 13.0693 22.2943 13.0678 22.2946 13.0662C22.5402 13.8182 22.669 14.6036 22.669 15.395V17.4152C19.3705 16.9787 17.5426 15.045 15.441 12.8218C15.3067 12.6797 15.1714 12.5367 15.0349 12.393C14.906 12.2574 14.7247 12.1797 14.5373 12.1797C14.35 12.1797 14.1687 12.2575 14.04 12.393C13.9034 12.5366 13.7682 12.6796 13.6339 12.8218C11.5322 15.045 9.70435 16.9787 6.40585 17.4152V15.395C6.40585 13.6065 7.05953 11.8467 8.24646 10.4398C9.04763 9.49012 10.0735 8.71906 11.227 8.18329C11.4124 8.32908 11.6435 8.41342 11.8872 8.41342H17.1877C17.4313 8.41342 17.6624 8.32914 17.8476 8.18346C18.4054 8.44247 18.9322 8.75772 19.4192 9.12046V10.301C19.4192 10.5435 19.6157 10.74 19.8582 10.74C20.1007 10.74 20.2972 10.5435 20.2972 10.301V7.97594H21.7411C22.0608 7.97594 22.3563 7.83097 22.5518 7.57817C22.7481 7.32448 22.8144 7.00069 22.7336 6.68984C22.6786 6.47798 22.5952 6.26753 22.5145 6.06393C22.3956 5.76409 22.2727 5.45406 22.2727 5.20384C22.2727 4.57066 22.7878 4.05556 23.4209 4.05556C24.054 4.05556 24.5691 4.57066 24.5691 5.20378C24.5691 5.47626 24.456 5.75343 24.3362 6.04682C24.2533 6.24978 24.1676 6.45965 24.108 6.68955C24.0274 7.00057 24.0937 7.32448 24.29 7.57822C24.4855 7.83097 24.7809 7.97588 25.1005 7.97588H26.5444V9.22789C26.5444 9.42293 26.6326 9.60352 26.7865 9.72336C26.9403 9.84326 27.137 9.88455 27.3297 9.83594C27.539 9.78258 27.7331 9.70391 27.9208 9.62788C28.1874 9.51993 28.4391 9.41796 28.6714 9.41796C29.2204 9.41796 29.6671 9.86464 29.6671 10.4136C29.6671 10.9627 29.2205 11.4093 28.6715 11.4093Z" fill="#724C9F"/>
<path d="M30.3563 2.04849H29.6663V1.35844C29.6663 1.11595 29.4697 0.919434 29.2272 0.919434C28.9848 0.919434 28.7882 1.11595 28.7882 1.35844V2.04849H28.0982C27.8557 2.04849 27.6592 2.24501 27.6592 2.4875C27.6592 2.73 27.8557 2.92651 28.0982 2.92651H28.7882V3.61656C28.7882 3.85906 28.9848 4.05557 29.2272 4.05557C29.4697 4.05557 29.6663 3.85906 29.6663 3.61656V2.92651H30.3563C30.5988 2.92651 30.7953 2.73 30.7953 2.4875C30.7953 2.24501 30.5988 2.04849 30.3563 2.04849Z" fill="#724C9F"/>
<path d="M3.50273 24.3874H2.81274V23.6973C2.81274 23.4548 2.61623 23.2583 2.37373 23.2583C2.13124 23.2583 1.93472 23.4548 1.93472 23.6973V24.3874H1.24467C1.00218 24.3874 0.805664 24.5839 0.805664 24.8264C0.805664 25.0689 1.00218 25.2654 1.24467 25.2654H1.93472V25.9554C1.93472 26.1979 2.13124 26.3944 2.37373 26.3944C2.61623 26.3944 2.81274 26.1979 2.81274 25.9554V25.2654H3.50279C3.74529 25.2654 3.9418 25.0689 3.9418 24.8264C3.9418 24.5839 3.74523 24.3874 3.50273 24.3874Z" fill="#724C9F"/>
</svg>
